Aleo-Bold Italic.ufo
<glyph name="numbersign" format="1">
  <advance width="624"/>
  <unicode hex="0023"/>
  <note>
    numbersign
  </note>
  <outline>
    <contour>
      <point x="413" y="204" type="line"/>
      <point x="521" y="204" type="line"/>
      <point x="532" y="243" type="line"/>
      <point x="534" y="249"/>
      <point x="535" y="254"/>
      <point x="536" y="259" type="curve" smooth="yes"/>
      <point x="538" y="271"/>
      <point x="536" y="280"/>
      <point x="531" y="285" type="curve" smooth="yes"/>
      <point x="526" y="290"/>
      <point x="518" y="293"/>
      <point x="507" y="293" type="curve" smooth="yes"/>
      <point x="436" y="293" type="line"/>
      <point x="479" y="431" type="line"/>
      <point x="529" y="431" type="line" smooth="yes"/>
      <point x="547" y="431"/>
      <point x="560" y="434"/>
      <point x="569" y="440" type="curve" smooth="yes"/>
      <point x="578" y="446"/>
      <point x="584" y="455"/>
      <point x="588" y="468" type="curve" smooth="yes"/>
      <point x="604" y="520" type="line"/>
      <point x="502" y="520" type="line"/>
      <point x="553" y="680" type="line"/>
      <point x="554" y="682"/>
      <point x="554" y="685"/>
      <point x="554" y="688" type="curve"/>
      <point x="555" y="698"/>
      <point x="553" y="706"/>
      <point x="546" y="713" type="curve" smooth="yes"/>
      <point x="539" y="720"/>
      <point x="531" y="723"/>
      <point x="519" y="723" type="curve" smooth="yes"/>
      <point x="464" y="723" type="line"/>
      <point x="401" y="520" type="line"/>
      <point x="299" y="520" type="line"/>
      <point x="362" y="723" type="line"/>
      <point x="306" y="723" type="line" smooth="yes"/>
      <point x="293" y="723"/>
      <point x="281" y="719"/>
      <point x="270" y="712" type="curve" smooth="yes"/>
      <point x="259" y="705"/>
      <point x="252" y="694"/>
      <point x="248" y="681" type="curve" smooth="yes"/>
      <point x="197" y="520" type="line"/>
      <point x="142" y="520" type="line" smooth="yes"/>
      <point x="124" y="520"/>
      <point x="111" y="517"/>
      <point x="102" y="511" type="curve" smooth="yes"/>
      <point x="93" y="505"/>
      <point x="87" y="495"/>
      <point x="83" y="482" type="curve" smooth="yes"/>
      <point x="67" y="431" type="line"/>
      <point x="174" y="431" type="line"/>
      <point x="131" y="293" type="line"/>
      <point x="36" y="293" type="line"/>
      <point x="24" y="254" type="line" smooth="yes"/>
      <point x="22" y="248"/>
      <point x="22" y="242"/>
      <point x="21" y="237" type="curve"/>
      <point x="20" y="225"/>
      <point x="21" y="217"/>
      <point x="26" y="212" type="curve" smooth="yes"/>
      <point x="31" y="207"/>
      <point x="39" y="204"/>
      <point x="50" y="204" type="curve" smooth="yes"/>
      <point x="107" y="204" type="line"/>
      <point x="44" y="0" type="line"/>
      <point x="99" y="0" type="line" smooth="yes"/>
      <point x="112" y="0"/>
      <point x="124" y="3"/>
      <point x="136" y="10" type="curve" smooth="yes"/>
      <point x="148" y="17"/>
      <point x="155" y="29"/>
      <point x="160" y="45" type="curve" smooth="yes"/>
      <point x="209" y="204" type="line"/>
      <point x="311" y="204" type="line"/>
      <point x="263" y="51" type="line"/>
      <point x="262" y="49"/>
      <point x="262" y="48"/>
      <point x="262" y="46" type="curve" smooth="yes"/>
      <point x="262" y="44"/>
      <point x="261" y="43"/>
      <point x="261" y="41" type="curve"/>
      <point x="260" y="29"/>
      <point x="262" y="20"/>
      <point x="268" y="12" type="curve" smooth="yes"/>
      <point x="274" y="4"/>
      <point x="283" y="0"/>
      <point x="293" y="0" type="curve" smooth="yes"/>
      <point x="349" y="0" type="line"/>
    </contour>
    <contour>
      <point x="232" y="293" type="line"/>
      <point x="275" y="431" type="line"/>
      <point x="377" y="431" type="line"/>
      <point x="335" y="293" type="line"/>
    </contour>
  </outline>
</glyph>
<glyph name="dollar" format="1">
  <advance width="597"/>
  <unicode hex="0024"/>
  <note>
    dollar
  </note>
  <outline>
    <contour>
      <point x="182" y="-112" type="line"/>
      <point x="227" y="-112" type="line" smooth="yes"/>
      <point x="237" y="-112"/>
      <point x="245" y="-108"/>
      <point x="252" y="-102" type="curve" smooth="yes"/>
      <point x="259" y="-96"/>
      <point x="262" y="-88"/>
      <point x="264" y="-80" type="curve"/>
      <point x="279" y="-7" type="line"/>
      <point x="317" y="-4"/>
      <point x="351" y="3"/>
      <point x="382" y="16" type="curve" smooth="yes"/>
      <point x="413" y="29"/>
      <point x="439" y="46"/>
      <point x="461" y="67" type="curve" smooth="yes"/>
      <point x="483" y="88"/>
      <point x="501" y="112"/>
      <point x="515" y="139" type="curve" smooth="yes"/>
      <point x="529" y="166"/>
      <point x="538" y="195"/>
      <point x="542" y="226" type="curve" smooth="yes"/>
      <point x="546" y="257"/>
      <point x="543" y="284"/>
      <point x="534" y="305" type="curve" smooth="yes"/>
      <point x="525" y="326"/>
      <point x="511" y="343"/>
      <point x="494" y="357" type="curve" smooth="yes"/>
      <point x="477" y="371"/>
      <point x="457" y="382"/>
      <point x="435" y="391" type="curve" smooth="yes"/>
      <point x="413" y="400"/>
      <point x="390" y="409"/>
      <point x="367" y="416" type="curve"/>
      <point x="410" y="623" type="line"/>
      <point x="423" y="620"/>
      <point x="434" y="616"/>
      <point x="444" y="611" type="curve" smooth="yes"/>
      <point x="454" y="606"/>
      <point x="463" y="602"/>
      <point x="471" y="597" type="curve"/>
      <point x="493" y="586" type="line" smooth="yes"/>
      <point x="499" y="583"/>
      <point x="506" y="581"/>
      <point x="511" y="581" type="curve" smooth="yes"/>
      <point x="518" y="581"/>
      <point x="523" y="583"/>
      <point x="528" y="586" type="curve" smooth="yes"/>
      <point x="533" y="589"/>
      <point x="539" y="594"/>
      <point x="544" y="601" type="curve"/>
      <point x="580" y="646" type="line"/>
      <point x="563" y="664"/>
      <point x="543" y="681"/>
      <point x="519" y="695" type="curve" smooth="yes"/>
      <point x="495" y="709"/>
      <point x="466" y="719"/>
      <point x="431" y="725" type="curve"/>
      <point x="451" y="824" type="line"/>
      <point x="406" y="824" type="line" smooth="yes"/>
      <point x="396" y="824"/>
      <point x="388" y="820"/>
      <point x="381" y="814" type="curve" smooth="yes"/>
      <point x="374" y="808"/>
      <point x="371" y="800"/>
      <point x="369" y="792" type="curve" smooth="yes"/>
      <point x="355" y="730" type="line"/>
      <point x="318" y="728"/>
      <point x="285" y="720"/>
      <point x="255" y="708" type="curve" smooth="yes"/>
      <point x="225" y="696"/>
      <point x="200" y="681"/>
      <point x="178" y="662" type="curve" smooth="yes"/>
      <point x="156" y="643"/>
      <point x="139" y="621"/>
      <point x="126" y="597" type="curve" smooth="yes"/>
      <point x="113" y="573"/>
      <point x="104" y="547"/>
      <point x="101" y="522" type="curve" smooth="yes"/>
      <point x="97" y="488"/>
      <point x="99" y="461"/>
      <point x="108" y="438" type="curve" smooth="yes"/>
      <point x="117" y="415"/>
      <point x="129" y="396"/>
      <point x="146" y="381" type="curve" smooth="yes"/>
      <point x="163" y="366"/>
      <point x="182" y="355"/>
      <point x="204" y="346" type="curve" smooth="yes"/>
      <point x="226" y="337"/>
      <point x="248" y="329"/>
      <point x="271" y="322" type="curve"/>
      <point x="225" y="98" type="line"/>
      <point x="207" y="101"/>
      <point x="191" y="107"/>
      <point x="178" y="114" type="curve" smooth="yes"/>
      <point x="165" y="121"/>
      <point x="154" y="127"/>
      <point x="144" y="134" type="curve" smooth="yes"/>
      <point x="134" y="141"/>
      <point x="126" y="148"/>
      <point x="118" y="153" type="curve" smooth="yes"/>
      <point x="110" y="158"/>
      <point x="103" y="160"/>
      <point x="96" y="160" type="curve" smooth="yes"/>
      <point x="90" y="160"/>
      <point x="84" y="159"/>
      <point x="78" y="156" type="curve" smooth="yes"/>
      <point x="72" y="153"/>
      <point x="67" y="148"/>
      <point x="63" y="143" type="curve" smooth="yes"/>
      <point x="18" y="87" type="line"/>
      <point x="39" y="63"/>
      <point x="66" y="43"/>
      <point x="98" y="27" type="curve" smooth="yes"/>
      <point x="130" y="11"/>
      <point x="166" y="1"/>
      <point x="204" y="-4" type="curve"/>
    </contour>
    <contour>
      <point x="418" y="176"/>
      <point x="407" y="151"/>
      <point x="386" y="132" type="curve" smooth="yes"/>
      <point x="365" y="113"/>
      <point x="337" y="101"/>
      <point x="301" y="96" type="curve"/>
      <point x="343" y="300" type="line"/>
      <point x="355" y="296"/>
      <point x="367" y="290"/>
      <point x="377" y="285" type="curve" smooth="yes"/>
      <point x="387" y="280"/>
      <point x="397" y="273"/>
      <point x="404" y="266" type="curve" smooth="yes"/>
      <point x="411" y="259"/>
      <point x="417" y="251"/>
      <point x="420" y="241" type="curve" smooth="yes"/>
      <point x="423" y="231"/>
      <point x="424" y="220"/>
      <point x="422" y="207" type="curve" smooth="yes"/>
    </contour>
    <contour>
      <point x="220" y="545"/>
      <point x="224" y="556"/>
      <point x="229" y="566" type="curve" smooth="yes"/>
      <point x="234" y="576"/>
      <point x="242" y="584"/>
      <point x="251" y="592" type="curve" smooth="yes"/>
      <point x="260" y="600"/>
      <point x="271" y="607"/>
      <point x="285" y="613" type="curve"/>
      <point x="299" y="618"/>
      <point x="314" y="622"/>
      <point x="333" y="624" type="curve"/>
      <point x="295" y="439" type="line"/>
      <point x="283" y="444"/>
      <point x="272" y="449"/>
      <point x="262" y="455" type="curve" smooth="yes"/>
      <point x="252" y="461"/>
      <point x="244" y="467"/>
      <point x="237" y="475" type="curve" smooth="yes"/>
      <point x="230" y="483"/>
      <point x="225" y="491"/>
      <point x="222" y="501" type="curve" smooth="yes"/>
      <point x="219" y="511"/>
      <point x="217" y="521"/>
      <point x="219" y="534" type="curve"/>
    </contour>
  </outline>
</glyph>
<glyph name="parenright" format="1">
  <advance width="306"/>
  <unicode hex="0029"/>
  <note>
    parenright
  </note>
  <outline>
    <contour>
      <point x="163" y="245"/>
      <point x="146" y="177"/>
      <point x="121" y="111" type="curve" smooth="yes"/>
      <point x="96" y="45"/>
      <point x="65" y="-18"/>
      <point x="27" y="-76" type="curve"/>
      <point x="24" y="-80"/>
      <point x="22" y="-84"/>
      <point x="21" y="-88" type="curve" smooth="yes"/>
      <point x="20" y="-92"/>
      <point x="18" y="-95"/>
      <point x="18" y="-98" type="curve"/>
      <point x="17" y="-105"/>
      <point x="18" y="-110"/>
      <point x="21" y="-114" type="curve" smooth="yes"/>
      <point x="24" y="-118"/>
      <point x="28" y="-121"/>
      <point x="32" y="-124" type="curve"/>
      <point x="83" y="-158" type="line"/>
      <point x="112" y="-120"/>
      <point x="138" y="-82"/>
      <point x="160" y="-44" type="curve" smooth="yes"/>
      <point x="182" y="-6"/>
      <point x="201" y="33"/>
      <point x="217" y="72" type="curve" smooth="yes"/>
      <point x="233" y="111"/>
      <point x="246" y="151"/>
      <point x="256" y="191" type="curve" smooth="yes"/>
      <point x="266" y="231"/>
      <point x="273" y="272"/>
      <point x="278" y="314" type="curve" smooth="yes"/>
      <point x="283" y="356"/>
      <point x="286" y="396"/>
      <point x="286" y="436" type="curve" smooth="yes"/>
      <point x="286" y="476"/>
      <point x="282" y="516"/>
      <point x="276" y="555" type="curve" smooth="yes"/>
      <point x="270" y="594"/>
      <point x="261" y="633"/>
      <point x="248" y="671" type="curve" smooth="yes"/>
      <point x="235" y="709"/>
      <point x="219" y="747"/>
      <point x="199" y="785" type="curve"/>
      <point x="140" y="752" type="line" smooth="yes"/>
      <point x="135" y="749"/>
      <point x="130" y="746"/>
      <point x="126" y="742" type="curve" smooth="yes"/>
      <point x="122" y="738"/>
      <point x="120" y="732"/>
      <point x="119" y="726" type="curve" smooth="yes"/>
      <point x="118" y="720"/>
      <point x="120" y="713"/>
      <point x="123" y="704" type="curve"/>
      <point x="147" y="646"/>
      <point x="162" y="582"/>
      <point x="171" y="516" type="curve" smooth="yes"/>
      <point x="180" y="450"/>
      <point x="179" y="383"/>
      <point x="171" y="314" type="curve" smooth="yes"/>
    </contour>
  </outline>
</glyph>
<glyph name="zero" format="1">
  <advance width="585"/>
  <unicode hex="0030"/>
  <note>
    zero
  </note>
  <outline>
    <contour>
      <point x="566" y="425"/>
      <point x="566" y="480"/>
      <point x="558" y="526" type="curve" smooth="yes"/>
      <point x="550" y="572"/>
      <point x="536" y="611"/>
      <point x="516" y="641" type="curve" smooth="yes"/>
      <point x="496" y="671"/>
      <point x="471" y="694"/>
      <point x="440" y="709" type="curve" smooth="yes"/>
      <point x="409" y="724"/>
      <point x="375" y="731"/>
      <point x="337" y="731" type="curve" smooth="yes"/>
      <point x="299" y="731"/>
      <point x="264" y="724"/>
      <point x="230" y="709" type="curve" smooth="yes"/>
      <point x="196" y="694"/>
      <point x="165" y="671"/>
      <point x="138" y="641" type="curve" smooth="yes"/>
      <point x="111" y="611"/>
      <point x="87" y="572"/>
      <point x="68" y="526" type="curve" smooth="yes"/>
      <point x="49" y="480"/>
      <point x="36" y="425"/>
      <point x="28" y="362" type="curve" smooth="yes"/>
      <point x="20" y="299"/>
      <point x="20" y="243"/>
      <point x="28" y="197" type="curve" smooth="yes"/>
      <point x="36" y="151"/>
      <point x="49" y="112"/>
      <point x="69" y="82" type="curve" smooth="yes"/>
      <point x="89" y="52"/>
      <point x="114" y="29"/>
      <point x="144" y="14" type="curve" smooth="yes"/>
      <point x="174" y="-1"/>
      <point x="208" y="-8"/>
      <point x="246" y="-8" type="curve" smooth="yes"/>
      <point x="284" y="-8"/>
      <point x="320" y="-1"/>
      <point x="354" y="14" type="curve" smooth="yes"/>
      <point x="388" y="29"/>
      <point x="419" y="52"/>
      <point x="447" y="82" type="curve" smooth="yes"/>
      <point x="475" y="112"/>
      <point x="498" y="151"/>
      <point x="517" y="197" type="curve" smooth="yes"/>
      <point x="536" y="243"/>
      <point x="550" y="299"/>
      <point x="558" y="362" type="curve" smooth="yes"/>
    </contour>
    <contour>
      <point x="424" y="310"/>
      <point x="415" y="266"/>
      <point x="403" y="232" type="curve" smooth="yes"/>
      <point x="391" y="198"/>
      <point x="377" y="169"/>
      <point x="362" y="149" type="curve" smooth="yes"/>
      <point x="347" y="129"/>
      <point x="331" y="115"/>
      <point x="313" y="107" type="curve" smooth="yes"/>
      <point x="295" y="99"/>
      <point x="277" y="94"/>
      <point x="259" y="94" type="curve" smooth="yes"/>
      <point x="241" y="94"/>
      <point x="224" y="99"/>
      <point x="209" y="107" type="curve" smooth="yes"/>
      <point x="194" y="115"/>
      <point x="181" y="130"/>
      <point x="171" y="150" type="curve" smooth="yes"/>
      <point x="161" y="170"/>
      <point x="154" y="198"/>
      <point x="151" y="232" type="curve" smooth="yes"/>
      <point x="148" y="266"/>
      <point x="149" y="310"/>
      <point x="155" y="362" type="curve" smooth="yes"/>
      <point x="161" y="414"/>
      <point x="171" y="458"/>
      <point x="183" y="492" type="curve" smooth="yes"/>
      <point x="195" y="526"/>
      <point x="208" y="554"/>
      <point x="223" y="574" type="curve" smooth="yes"/>
      <point x="238" y="594"/>
      <point x="254" y="608"/>
      <point x="272" y="616" type="curve" smooth="yes"/>
      <point x="290" y="624"/>
      <point x="307" y="629"/>
      <point x="325" y="629" type="curve" smooth="yes"/>
      <point x="343" y="629"/>
      <point x="359" y="624"/>
      <point x="375" y="616" type="curve" smooth="yes"/>
      <point x="391" y="608"/>
      <point x="404" y="594"/>
      <point x="414" y="574" type="curve" smooth="yes"/>
      <point x="424" y="554"/>
      <point x="432" y="526"/>
      <point x="435" y="492" type="curve" smooth="yes"/>
      <point x="438" y="458"/>
      <point x="436" y="414"/>
      <point x="430" y="362" type="curve" smooth="yes"/>
    </contour>
  </outline>
</glyph>
<glyph name="two" format="1">
  <advance width="592"/>
  <unicode hex="0032"/>
  <note>
    two
  </note>
  <outline>
    <contour>
      <point x="541" y="108" type="line"/>
      <point x="550" y="178" type="line"/>
      <point x="497" y="178" type="line" smooth="yes"/>
      <point x="484" y="178"/>
      <point x="475" y="172"/>
      <point x="471" y="160" type="curve"/>
      <point x="470" y="156"/>
      <point x="466" y="141"/>
      <point x="461" y="115" type="curve"/>
      <point x="302" y="115" type="line" smooth="yes"/>
      <point x="288" y="115"/>
      <point x="273" y="113"/>
      <point x="257" y="111" type="curve"/>
      <point x="241" y="108"/>
      <point x="226" y="105"/>
      <point x="209" y="100" type="curve"/>
      <point x="392" y="267" type="line" smooth="yes"/>
      <point x="414" y="287"/>
      <point x="435" y="307"/>
      <point x="455" y="326" type="curve" smooth="yes"/>
      <point x="475" y="345"/>
      <point x="493" y="365"/>
      <point x="509" y="386" type="curve" smooth="yes"/>
      <point x="525" y="407"/>
      <point x="537" y="428"/>
      <point x="548" y="451" type="curve" smooth="yes"/>
      <point x="559" y="474"/>
      <point x="566" y="498"/>
      <point x="569" y="525" type="curve" smooth="yes"/>
      <point x="573" y="556"/>
      <point x="571" y="584"/>
      <point x="563" y="609" type="curve" smooth="yes"/>
      <point x="555" y="634"/>
      <point x="542" y="656"/>
      <point x="525" y="674" type="curve" smooth="yes"/>
      <point x="508" y="692"/>
      <point x="485" y="706"/>
      <point x="459" y="716" type="curve" smooth="yes"/>
      <point x="433" y="726"/>
      <point x="402" y="731"/>
      <point x="369" y="731" type="curve" smooth="yes"/>
      <point x="337" y="731"/>
      <point x="307" y="727"/>
      <point x="278" y="718" type="curve" smooth="yes"/>
      <point x="249" y="709"/>
      <point x="223" y="695"/>
      <point x="199" y="678" type="curve" smooth="yes"/>
      <point x="175" y="660"/>
      <point x="155" y="639"/>
      <point x="137" y="613" type="curve" smooth="yes"/>
      <point x="119" y="587"/>
      <point x="106" y="556"/>
      <point x="97" y="521" type="curve"/>
      <point x="161" y="510" type="line" smooth="yes"/>
      <point x="167" y="509"/>
      <point x="172" y="508"/>
      <point x="177" y="508" type="curve" smooth="yes"/>
      <point x="188" y="508"/>
      <point x="198" y="512"/>
      <point x="206" y="517" type="curve" smooth="yes"/>
      <point x="214" y="522"/>
      <point x="221" y="531"/>
      <point x="226" y="544" type="curve"/>
      <point x="237" y="569"/>
      <point x="252" y="589"/>
      <point x="273" y="604" type="curve" smooth="yes"/>
      <point x="294" y="619"/>
      <point x="319" y="627"/>
      <point x="349" y="627" type="curve" smooth="yes"/>
      <point x="365" y="627"/>
      <point x="380" y="624"/>
      <point x="392" y="620" type="curve" smooth="yes"/>
      <point x="404" y="616"/>
      <point x="415" y="609"/>
      <point x="423" y="600" type="curve" smooth="yes"/>
      <point x="431" y="591"/>
      <point x="437" y="580"/>
      <point x="440" y="567" type="curve" smooth="yes"/>
      <point x="443" y="554"/>
      <point x="444" y="538"/>
      <point x="442" y="521" type="curve" smooth="yes"/>
      <point x="440" y="502"/>
      <point x="435" y="484"/>
      <point x="428" y="467" type="curve" smooth="yes"/>
      <point x="421" y="450"/>
      <point x="411" y="433"/>
      <point x="399" y="416" type="curve" smooth="yes"/>
      <point x="387" y="399"/>
      <point x="373" y="382"/>
      <point x="356" y="365" type="curve" smooth="yes"/>
      <point x="339" y="348"/>
      <point x="321" y="331"/>
      <point x="300" y="312" type="curve" smooth="yes"/>
      <point x="54" y="92" type="line" smooth="yes"/>
      <point x="45" y="84"/>
      <point x="39" y="76"/>
      <point x="34" y="67" type="curve" smooth="yes"/>
      <point x="29" y="58"/>
      <point x="27" y="49"/>
      <point x="26" y="41" type="curve" smooth="yes"/>
      <point x="20" y="0" type="line"/>
      <point x="487" y="0" type="line"/>
      <point x="516" y="0" type="line"/>
      <point x="528" y="0" type="line"/>
    </contour>
  </outline>
</glyph>
<glyph name="five" format="1">
  <advance width="577"/>
  <unicode hex="0035"/>
  <note>
    five
  </note>
  <outline>
    <contour>
      <point x="556" y="723" type="line"/>
      <point x="199" y="723" type="line"/>
      <point x="96" y="372" type="line"/>
      <point x="171" y="350" type="line"/>
      <point x="208" y="363"/>
      <point x="243" y="369"/>
      <point x="278" y="369" type="curve" smooth="yes"/>
      <point x="322" y="369"/>
      <point x="355" y="358"/>
      <point x="375" y="336" type="curve" smooth="yes"/>
      <point x="395" y="314"/>
      <point x="403" y="283"/>
      <point x="398" y="244" type="curve" smooth="yes"/>
      <point x="395" y="223"/>
      <point x="390" y="202"/>
      <point x="382" y="184" type="curve" smooth="yes"/>
      <point x="374" y="166"/>
      <point x="363" y="150"/>
      <point x="350" y="137" type="curve" smooth="yes"/>
      <point x="337" y="124"/>
      <point x="321" y="113"/>
      <point x="303" y="106" type="curve" smooth="yes"/>
      <point x="285" y="99"/>
      <point x="265" y="96"/>
      <point x="242" y="96" type="curve" smooth="yes"/>
      <point x="221" y="96"/>
      <point x="202" y="99"/>
      <point x="188" y="104" type="curve" smooth="yes"/>
      <point x="174" y="109"/>
      <point x="162" y="115"/>
      <point x="151" y="121" type="curve" smooth="yes"/>
      <point x="140" y="127"/>
      <point x="131" y="134"/>
      <point x="123" y="139" type="curve" smooth="yes"/>
      <point x="115" y="144"/>
      <point x="107" y="147"/>
      <point x="99" y="147" type="curve" smooth="yes"/>
      <point x="86" y="147"/>
      <point x="74" y="141"/>
      <point x="65" y="130" type="curve" smooth="yes"/>
      <point x="20" y="77" type="line"/>
      <point x="31" y="66"/>
      <point x="43" y="55"/>
      <point x="57" y="45" type="curve" smooth="yes"/>
      <point x="71" y="35"/>
      <point x="86" y="26"/>
      <point x="103" y="18" type="curve" smooth="yes"/>
      <point x="120" y="10"/>
      <point x="138" y="4"/>
      <point x="158" y="-1" type="curve" smooth="yes"/>
      <point x="178" y="-6"/>
      <point x="199" y="-8"/>
      <point x="222" y="-8" type="curve" smooth="yes"/>
      <point x="261" y="-8"/>
      <point x="298" y="-1"/>
      <point x="332" y="11" type="curve" smooth="yes"/>
      <point x="366" y="23"/>
      <point x="396" y="41"/>
      <point x="423" y="63" type="curve" smooth="yes"/>
      <point x="450" y="85"/>
      <point x="472" y="112"/>
      <point x="489" y="144" type="curve" smooth="yes"/>
      <point x="506" y="176"/>
      <point x="518" y="211"/>
      <point x="523" y="249" type="curve" smooth="yes"/>
      <point x="527" y="280"/>
      <point x="525" y="309"/>
      <point x="518" y="336" type="curve" smooth="yes"/>
      <point x="511" y="363"/>
      <point x="499" y="386"/>
      <point x="482" y="406" type="curve" smooth="yes"/>
      <point x="465" y="426"/>
      <point x="442" y="442"/>
      <point x="415" y="453" type="curve" smooth="yes"/>
      <point x="388" y="464"/>
      <point x="355" y="470"/>
      <point x="317" y="470" type="curve" smooth="yes"/>
      <point x="290" y="470"/>
      <point x="260" y="467"/>
      <point x="227" y="460" type="curve"/>
      <point x="271" y="611" type="line"/>
      <point x="470" y="611" type="line" smooth="yes"/>
      <point x="496" y="611"/>
      <point x="515" y="617"/>
      <point x="528" y="628" type="curve" smooth="yes"/>
      <point x="541" y="639"/>
      <point x="548" y="652"/>
      <point x="550" y="670" type="curve" smooth="yes"/>
    </contour>
  </outline>
</glyph>
<glyph name="nine" format="1">
  <advance width="535"/>
  <unicode hex="0039"/>
  <note>
    nine
  </note>
  <outline>
    <contour>
      <point x="221" y="288"/>
      <point x="242" y="291"/>
      <point x="263" y="297" type="curve"/>
      <point x="284" y="302"/>
      <point x="303" y="310"/>
      <point x="321" y="321" type="curve"/>
      <point x="316" y="314"/>
      <point x="310" y="308"/>
      <point x="304" y="301" type="curve" smooth="yes"/>
      <point x="298" y="294"/>
      <point x="293" y="287"/>
      <point x="286" y="280" type="curve"/>
      <point x="27" y="0" type="line"/>
      <point x="140" y="0" type="line" smooth="yes"/>
      <point x="154" y="0"/>
      <point x="167" y="2"/>
      <point x="179" y="8" type="curve" smooth="yes"/>
      <point x="191" y="14"/>
      <point x="200" y="20"/>
      <point x="207" y="28" type="curve" smooth="yes"/>
      <point x="402" y="264" type="line" smooth="yes"/>
      <point x="417" y="282"/>
      <point x="430" y="299"/>
      <point x="442" y="317" type="curve" smooth="yes"/>
      <point x="454" y="335"/>
      <point x="465" y="353"/>
      <point x="474" y="371" type="curve" smooth="yes"/>
      <point x="483" y="389"/>
      <point x="492" y="409"/>
      <point x="498" y="429" type="curve" smooth="yes"/>
      <point x="504" y="449"/>
      <point x="508" y="471"/>
      <point x="511" y="493" type="curve" smooth="yes"/>
      <point x="515" y="528"/>
      <point x="514" y="560"/>
      <point x="506" y="589" type="curve" smooth="yes"/>
      <point x="498" y="618"/>
      <point x="486" y="643"/>
      <point x="468" y="664" type="curve" smooth="yes"/>
      <point x="450" y="685"/>
      <point x="426" y="702"/>
      <point x="398" y="714" type="curve" smooth="yes"/>
      <point x="370" y="726"/>
      <point x="337" y="731"/>
      <point x="300" y="731" type="curve" smooth="yes"/>
      <point x="263" y="731"/>
      <point x="230" y="724"/>
      <point x="198" y="712" type="curve" smooth="yes"/>
      <point x="166" y="700"/>
      <point x="138" y="683"/>
      <point x="114" y="662" type="curve" smooth="yes"/>
      <point x="90" y="641"/>
      <point x="69" y="616"/>
      <point x="54" y="588" type="curve" smooth="yes"/>
      <point x="39" y="560"/>
      <point x="29" y="528"/>
      <point x="25" y="496" type="curve" smooth="yes"/>
      <point x="21" y="461"/>
      <point x="23" y="432"/>
      <point x="31" y="406" type="curve" smooth="yes"/>
      <point x="39" y="380"/>
      <point x="51" y="359"/>
      <point x="68" y="341" type="curve" smooth="yes"/>
      <point x="85" y="323"/>
      <point x="104" y="311"/>
      <point x="127" y="302" type="curve" smooth="yes"/>
      <point x="150" y="293"/>
      <point x="174" y="288"/>
      <point x="199" y="288" type="curve" smooth="yes"/>
    </contour>
    <contour>
      <point x="392" y="488"/>
      <point x="387" y="471"/>
      <point x="380" y="456" type="curve" smooth="yes"/>
      <point x="373" y="441"/>
      <point x="363" y="429"/>
      <point x="351" y="418" type="curve" smooth="yes"/>
      <point x="339" y="407"/>
      <point x="325" y="398"/>
      <point x="309" y="392" type="curve" smooth="yes"/>
      <point x="293" y="386"/>
      <point x="274" y="382"/>
      <point x="254" y="382" type="curve" smooth="yes"/>
      <point x="216" y="382"/>
      <point x="187" y="393"/>
      <point x="169" y="414" type="curve" smooth="yes"/>
      <point x="151" y="435"/>
      <point x="144" y="466"/>
      <point x="149" y="506" type="curve" smooth="yes"/>
      <point x="151" y="524"/>
      <point x="156" y="541"/>
      <point x="164" y="556" type="curve" smooth="yes"/>
      <point x="172" y="571"/>
      <point x="181" y="584"/>
      <point x="193" y="595" type="curve" smooth="yes"/>
      <point x="205" y="606"/>
      <point x="218" y="615"/>
      <point x="234" y="621" type="curve" smooth="yes"/>
      <point x="250" y="627"/>
      <point x="267" y="630"/>
      <point x="286" y="630" type="curve" smooth="yes"/>
      <point x="304" y="630"/>
      <point x="321" y="628"/>
      <point x="335" y="622" type="curve" smooth="yes"/>
      <point x="349" y="616"/>
      <point x="361" y="608"/>
      <point x="371" y="597" type="curve" smooth="yes"/>
      <point x="381" y="586"/>
      <point x="388" y="574"/>
      <point x="392" y="558" type="curve" smooth="yes"/>
      <point x="396" y="543"/>
      <point x="396" y="525"/>
      <point x="394" y="505" type="curve" smooth="yes"/>
    </contour>
  </outline>
</glyph>
<glyph name="semicolon" format="1">
  <advance width="251"/>
  <unicode hex="003B"/>
  <note>
    semicolon
  </note>
  <outline>
    <contour>
      <point x="36" y="65"/>
      <point x="37" y="55"/>
      <point x="39" y="46" type="curve" smooth="yes"/>
      <point x="41" y="37"/>
      <point x="46" y="30"/>
      <point x="51" y="23" type="curve" smooth="yes"/>
      <point x="56" y="16"/>
      <point x="63" y="11"/>
      <point x="71" y="7" type="curve" smooth="yes"/>
      <point x="79" y="3"/>
      <point x="89" y="2"/>
      <point x="99" y="2" type="curve"/>
      <point x="96" y="-8"/>
      <point x="91" y="-18"/>
      <point x="85" y="-27" type="curve" smooth="yes"/>
      <point x="79" y="-36"/>
      <point x="74" y="-43"/>
      <point x="68" y="-51" type="curve" smooth="yes"/>
      <point x="62" y="-59"/>
      <point x="55" y="-65"/>
      <point x="49" y="-71" type="curve" smooth="yes"/>
      <point x="34" y="-86" type="line" smooth="yes"/>
      <point x="31" y="-89"/>
      <point x="28" y="-92"/>
      <point x="26" y="-95" type="curve" smooth="yes"/>
      <point x="24" y="-98"/>
      <point x="22" y="-101"/>
      <point x="22" y="-104" type="curve"/>
      <point x="21" y="-111"/>
      <point x="24" y="-117"/>
      <point x="29" y="-122" type="curve" smooth="yes"/>
      <point x="48" y="-142" type="line"/>
      <point x="67" y="-128"/>
      <point x="85" y="-113"/>
      <point x="101" y="-96" type="curve" smooth="yes"/>
      <point x="117" y="-79"/>
      <point x="129" y="-62"/>
      <point x="141" y="-44" type="curve" smooth="yes"/>
      <point x="153" y="-26"/>
      <point x="162" y="-10"/>
      <point x="169" y="8" type="curve" smooth="yes"/>
      <point x="176" y="26"/>
      <point x="181" y="43"/>
      <point x="183" y="59" type="curve" smooth="yes"/>
      <point x="184" y="70"/>
      <point x="184" y="81"/>
      <point x="182" y="91" type="curve" smooth="yes"/>
      <point x="180" y="101"/>
      <point x="176" y="110"/>
      <point x="171" y="118" type="curve" smooth="yes"/>
      <point x="166" y="126"/>
      <point x="159" y="133"/>
      <point x="150" y="137" type="curve" smooth="yes"/>
      <point x="141" y="141"/>
      <point x="131" y="143"/>
      <point x="118" y="143" type="curve" smooth="yes"/>
      <point x="107" y="143"/>
      <point x="97" y="142"/>
      <point x="88" y="138" type="curve" smooth="yes"/>
      <point x="79" y="134"/>
      <point x="70" y="130"/>
      <point x="63" y="124" type="curve" smooth="yes"/>
      <point x="56" y="118"/>
      <point x="51" y="110"/>
      <point x="46" y="102" type="curve" smooth="yes"/>
      <point x="41" y="94"/>
      <point x="38" y="85"/>
      <point x="37" y="76" type="curve" smooth="yes"/>
    </contour>
    <contour>
      <point x="76" y="413"/>
      <point x="76" y="404"/>
      <point x="79" y="395" type="curve" smooth="yes"/>
      <point x="82" y="386"/>
      <point x="86" y="378"/>
      <point x="92" y="371" type="curve" smooth="yes"/>
      <point x="98" y="364"/>
      <point x="105" y="359"/>
      <point x="114" y="355" type="curve" smooth="yes"/>
      <point x="123" y="351"/>
      <point x="132" y="350"/>
      <point x="143" y="350" type="curve" smooth="yes"/>
      <point x="153" y="350"/>
      <point x="164" y="351"/>
      <point x="174" y="355" type="curve" smooth="yes"/>
      <point x="184" y="359"/>
      <point x="193" y="364"/>
      <point x="200" y="371" type="curve" smooth="yes"/>
      <point x="207" y="378"/>
      <point x="213" y="386"/>
      <point x="218" y="395" type="curve" smooth="yes"/>
      <point x="223" y="404"/>
      <point x="227" y="413"/>
      <point x="228" y="424" type="curve" smooth="yes"/>
      <point x="229" y="434"/>
      <point x="229" y="445"/>
      <point x="226" y="454" type="curve" smooth="yes"/>
      <point x="223" y="463"/>
      <point x="219" y="471"/>
      <point x="213" y="478" type="curve" smooth="yes"/>
      <point x="207" y="485"/>
      <point x="200" y="490"/>
      <point x="191" y="494" type="curve" smooth="yes"/>
      <point x="182" y="498"/>
      <point x="172" y="500"/>
      <point x="162" y="500" type="curve" smooth="yes"/>
      <point x="151" y="500"/>
      <point x="141" y="498"/>
      <point x="131" y="494" type="curve" smooth="yes"/>
      <point x="121" y="490"/>
      <point x="113" y="485"/>
      <point x="105" y="478" type="curve" smooth="yes"/>
      <point x="97" y="471"/>
      <point x="91" y="463"/>
      <point x="86" y="454" type="curve" smooth="yes"/>
      <point x="81" y="445"/>
      <point x="78" y="434"/>
      <point x="77" y="424" type="curve" smooth="yes"/>
    </contour>
  </outline>
</glyph>
<glyph name="greater" format="1">
  <advance width="474"/>
  <unicode hex="003E"/>
  <note>
    greater
  </note>
  <outline>
    <contour>
      <point x="23" y="105" type="line"/>
      <point x="444" y="312" type="line"/>
      <point x="451" y="362" type="line"/>
      <point x="80" y="568" type="line"/>
      <point x="69" y="480" type="line" smooth="yes"/>
      <point x="68" y="473"/>
      <point x="69" y="468"/>
      <point x="72" y="462" type="curve" smooth="yes"/>
      <point x="75" y="456"/>
      <point x="80" y="452"/>
      <point x="87" y="448" type="curve" smooth="yes"/>
      <point x="257" y="355" type="line" smooth="yes"/>
      <point x="264" y="351"/>
      <point x="272" y="348"/>
      <point x="280" y="345" type="curve" smooth="yes"/>
      <point x="288" y="342"/>
      <point x="297" y="339"/>
      <point x="306" y="337" type="curve"/>
      <point x="286" y="332"/>
      <point x="268" y="326"/>
      <point x="252" y="319" type="curve"/>
      <point x="59" y="226" type="line" smooth="yes"/>
      <point x="51" y="222"/>
      <point x="45" y="217"/>
      <point x="41" y="211" type="curve" smooth="yes"/>
      <point x="37" y="205"/>
      <point x="35" y="200"/>
      <point x="34" y="193" type="curve" smooth="yes"/>
    </contour>
  </outline>
</glyph>
<glyph name="question" format="1">
  <advance width="417"/>
  <unicode hex="003F"/>
  <note>
    question
  </note>
  <outline>
    <contour>
      <point x="47" y="606" type="line"/>
      <point x="51" y="596"/>
      <point x="59" y="591"/>
      <point x="71" y="591" type="curve" smooth="yes"/>
      <point x="76" y="591"/>
      <point x="82" y="593"/>
      <point x="89" y="597" type="curve" smooth="yes"/>
      <point x="96" y="601"/>
      <point x="104" y="606"/>
      <point x="114" y="611" type="curve" smooth="yes"/>
      <point x="124" y="616"/>
      <point x="135" y="621"/>
      <point x="149" y="625" type="curve" smooth="yes"/>
      <point x="163" y="629"/>
      <point x="179" y="631"/>
      <point x="198" y="631" type="curve" smooth="yes"/>
      <point x="211" y="631"/>
      <point x="223" y="630"/>
      <point x="234" y="626" type="curve" smooth="yes"/>
      <point x="245" y="622"/>
      <point x="254" y="617"/>
      <point x="261" y="610" type="curve" smooth="yes"/>
      <point x="268" y="603"/>
      <point x="273" y="596"/>
      <point x="276" y="586" type="curve" smooth="yes"/>
      <point x="279" y="576"/>
      <point x="280" y="565"/>
      <point x="279" y="553" type="curve" smooth="yes"/>
      <point x="277" y="535"/>
      <point x="271" y="519"/>
      <point x="262" y="506" type="curve" smooth="yes"/>
      <point x="253" y="493"/>
      <point x="243" y="482"/>
      <point x="231" y="471" type="curve"/>
      <point x="219" y="461"/>
      <point x="205" y="450"/>
      <point x="191" y="441" type="curve" smooth="yes"/>
      <point x="177" y="432"/>
      <point x="165" y="424"/>
      <point x="153" y="414" type="curve"/>
      <point x="141" y="405"/>
      <point x="130" y="394"/>
      <point x="121" y="383" type="curve" smooth="yes"/>
      <point x="112" y="372"/>
      <point x="108" y="360"/>
      <point x="106" y="345" type="curve"/>
      <point x="105" y="341" type="line"/>
      <point x="105" y="336" type="line"/>
      <point x="104" y="255" type="line"/>
      <point x="188" y="255" type="line"/>
      <point x="209" y="328" type="line" smooth="yes"/>
      <point x="212" y="339"/>
      <point x="217" y="348"/>
      <point x="227" y="357" type="curve"/>
      <point x="237" y="365"/>
      <point x="248" y="374"/>
      <point x="261" y="383" type="curve" smooth="yes"/>
      <point x="274" y="392"/>
      <point x="287" y="401"/>
      <point x="301" y="411" type="curve" smooth="yes"/>
      <point x="315" y="421"/>
      <point x="329" y="432"/>
      <point x="342" y="446" type="curve" smooth="yes"/>
      <point x="355" y="460"/>
      <point x="366" y="476"/>
      <point x="376" y="495" type="curve" smooth="yes"/>
      <point x="386" y="513"/>
      <point x="392" y="535"/>
      <point x="395" y="560" type="curve" smooth="yes"/>
      <point x="398" y="586"/>
      <point x="396" y="610"/>
      <point x="389" y="631" type="curve" smooth="yes"/>
      <point x="382" y="652"/>
      <point x="371" y="670"/>
      <point x="356" y="685" type="curve" smooth="yes"/>
      <point x="341" y="700"/>
      <point x="322" y="711"/>
      <point x="299" y="719" type="curve" smooth="yes"/>
      <point x="276" y="727"/>
      <point x="251" y="731"/>
      <point x="222" y="731" type="curve" smooth="yes"/>
      <point x="201" y="731"/>
      <point x="180" y="729"/>
      <point x="161" y="725" type="curve" smooth="yes"/>
      <point x="142" y="721"/>
      <point x="124" y="716"/>
      <point x="108" y="709" type="curve" smooth="yes"/>
      <point x="92" y="702"/>
      <point x="77" y="695"/>
      <point x="62" y="686" type="curve" smooth="yes"/>
      <point x="47" y="677"/>
      <point x="34" y="668"/>
      <point x="21" y="658" type="curve"/>
    </contour>
    <contour>
      <point x="42" y="57"/>
      <point x="42" y="47"/>
      <point x="45" y="38" type="curve" smooth="yes"/>
      <point x="48" y="29"/>
      <point x="52" y="21"/>
      <point x="58" y="14" type="curve" smooth="yes"/>
      <point x="64" y="7"/>
      <point x="72" y="3"/>
      <point x="81" y="-1" type="curve" smooth="yes"/>
      <point x="90" y="-5"/>
      <point x="99" y="-7"/>
      <point x="110" y="-7" type="curve" smooth="yes"/>
      <point x="120" y="-7"/>
      <point x="130" y="-5"/>
      <point x="140" y="-1" type="curve" smooth="yes"/>
      <point x="150" y="3"/>
      <point x="159" y="7"/>
      <point x="166" y="14" type="curve" smooth="yes"/>
      <point x="173" y="21"/>
      <point x="180" y="29"/>
      <point x="185" y="38" type="curve" smooth="yes"/>
      <point x="190" y="47"/>
      <point x="194" y="57"/>
      <point x="195" y="68" type="curve" smooth="yes"/>
      <point x="196" y="78"/>
      <point x="195" y="89"/>
      <point x="192" y="98" type="curve" smooth="yes"/>
      <point x="189" y="107"/>
      <point x="185" y="115"/>
      <point x="179" y="122" type="curve" smooth="yes"/>
      <point x="173" y="129"/>
      <point x="166" y="134"/>
      <point x="157" y="138" type="curve" smooth="yes"/>
      <point x="148" y="142"/>
      <point x="138" y="144"/>
      <point x="128" y="144" type="curve" smooth="yes"/>
      <point x="117" y="144"/>
      <point x="108" y="142"/>
      <point x="98" y="138" type="curve" smooth="yes"/>
      <point x="88" y="134"/>
      <point x="79" y="128"/>
      <point x="71" y="121" type="curve" smooth="yes"/>
      <point x="63" y="114"/>
      <point x="57" y="106"/>
      <point x="52" y="97" type="curve" smooth="yes"/>
      <point x="47" y="88"/>
      <point x="44" y="78"/>
      <point x="43" y="68" type="curve" smooth="yes"/>
    </contour>
  </outline>
</glyph>
<glyph name="E" format="1">
  <advance width="658"/>
  <unicode hex="0045"/>
  <note>
    E
  </note>
  <outline>
    <contour>
      <point x="184" y="723" type="line"/>
      <point x="108" y="723" type="line"/>
      <point x="101" y="664" type="line" smooth="yes"/>
      <point x="99" y="647"/>
      <point x="106" y="637"/>
      <point x="122" y="633" type="curve"/>
      <point x="123" y="633"/>
      <point x="125" y="632"/>
      <point x="128" y="632" type="curve" smooth="yes"/>
      <point x="131" y="632"/>
      <point x="135" y="630"/>
      <point x="142" y="629" type="curve" smooth="yes"/>
      <point x="149" y="628"/>
      <point x="159" y="626"/>
      <point x="171" y="624" type="curve"/>
      <point x="107" y="99" type="line"/>
      <point x="94" y="97"/>
      <point x="84" y="95"/>
      <point x="77" y="94" type="curve" smooth="yes"/>
      <point x="70" y="93"/>
      <point x="64" y="91"/>
      <point x="61" y="91" type="curve" smooth="yes"/>
      <point x="58" y="91"/>
      <point x="57" y="90"/>
      <point x="55" y="90" type="curve"/>
      <point x="38" y="86"/>
      <point x="28" y="76"/>
      <point x="26" y="59" type="curve" smooth="yes"/>
      <point x="19" y="0" type="line"/>
      <point x="95" y="0" type="line"/>
      <point x="551" y="0" type="line"/>
      <point x="559" y="70" type="line"/>
      <point x="564" y="108" type="line"/>
      <point x="574" y="191" type="line"/>
      <point x="570" y="191" type="line"/>
      <point x="558" y="191" type="line"/>
      <point x="517" y="191" type="line" smooth="yes"/>
      <point x="504" y="191"/>
      <point x="495" y="184"/>
      <point x="491" y="172" type="curve"/>
      <point x="489" y="164"/>
      <point x="484" y="143"/>
      <point x="476" y="108" type="curve"/>
      <point x="243" y="108" type="line"/>
      <point x="269" y="312" type="line"/>
      <point x="513" y="312" type="line"/>
      <point x="526" y="416" type="line"/>
      <point x="281" y="416" type="line"/>
      <point x="306" y="616" type="line"/>
      <point x="538" y="616" type="line"/>
      <point x="537" y="581"/>
      <point x="538" y="560"/>
      <point x="538" y="552" type="curve"/>
      <point x="539" y="540"/>
      <point x="546" y="533"/>
      <point x="559" y="533" type="curve" smooth="yes"/>
      <point x="600" y="533" type="line"/>
      <point x="612" y="533" type="line"/>
      <point x="616" y="533" type="line"/>
      <point x="626" y="616" type="line"/>
      <point x="631" y="653" type="line"/>
      <point x="640" y="723" type="line"/>
    </contour>
    <contour>
      <point x="592" y="10" type="move" name="ogonek"/>
    </contour>
    <contour>
      <point x="329" y="723" type="move" name="top"/>
    </contour>
    <contour>
      <point x="20" y="723" type="move" name="topleft"/>
    </contour>
    <contour>
      <point x="329" y="0" type="move" name="bottom"/>
    </contour>
  </outline>
</glyph>
<glyph name="K" format="1">
  <advance width="798"/>
  <unicode hex="004B"/>
  <note>
    K
  </note>
  <outline>
    <contour>
      <point x="702" y="90"/>
      <point x="699" y="91"/>
      <point x="695" y="91" type="curve" smooth="yes"/>
      <point x="691" y="91"/>
      <point x="685" y="93"/>
      <point x="677" y="94" type="curve" smooth="yes"/>
      <point x="669" y="95"/>
      <point x="659" y="97"/>
      <point x="648" y="99" type="curve"/>
      <point x="499" y="338" type="line" smooth="yes"/>
      <point x="492" y="349"/>
      <point x="485" y="359"/>
      <point x="477" y="366" type="curve" smooth="yes"/>
      <point x="469" y="373"/>
      <point x="459" y="379"/>
      <point x="449" y="383" type="curve"/>
      <point x="457" y="387"/>
      <point x="466" y="393"/>
      <point x="474" y="399" type="curve" smooth="yes"/>
      <point x="482" y="405"/>
      <point x="490" y="413"/>
      <point x="499" y="422" type="curve"/>
      <point x="687" y="624" type="line"/>
      <point x="699" y="626"/>
      <point x="709" y="628"/>
      <point x="717" y="629" type="curve" smooth="yes"/>
      <point x="725" y="630"/>
      <point x="732" y="632"/>
      <point x="736" y="632" type="curve" smooth="yes"/>
      <point x="740" y="632"/>
      <point x="742" y="633"/>
      <point x="744" y="633" type="curve"/>
      <point x="761" y="637"/>
      <point x="771" y="647"/>
      <point x="773" y="664" type="curve" smooth="yes"/>
      <point x="780" y="723" type="line"/>
      <point x="704" y="723" type="line"/>
      <point x="679" y="723" type="line"/>
      <point x="513" y="723" type="line"/>
      <point x="506" y="664" type="line" smooth="yes"/>
      <point x="504" y="647"/>
      <point x="511" y="637"/>
      <point x="527" y="633" type="curve"/>
      <point x="528" y="633"/>
      <point x="530" y="632"/>
      <point x="533" y="632" type="curve" smooth="yes"/>
      <point x="536" y="632"/>
      <point x="538" y="631"/>
      <point x="540" y="631" type="curve"/>
      <point x="368" y="442" type="line" smooth="yes"/>
      <point x="361" y="434"/>
      <point x="353" y="429"/>
      <point x="344" y="425" type="curve" smooth="yes"/>
      <point x="335" y="421"/>
      <point x="325" y="420"/>
      <point x="312" y="420" type="curve" smooth="yes"/>
      <point x="281" y="420" type="line"/>
      <point x="306" y="624" type="line"/>
      <point x="319" y="626"/>
      <point x="329" y="629"/>
      <point x="336" y="630" type="curve" smooth="yes"/>
      <point x="343" y="631"/>
      <point x="348" y="631"/>
      <point x="351" y="632" type="curve"/>
      <point x="354" y="632"/>
      <point x="357" y="633"/>
      <point x="358" y="633" type="curve"/>
      <point x="375" y="637"/>
      <point x="384" y="648"/>
      <point x="386" y="665" type="curve" smooth="yes"/>
      <point x="394" y="723" type="line"/>
      <point x="318" y="723" type="line"/>
      <point x="184" y="723" type="line"/>
      <point x="108" y="723" type="line"/>
      <point x="101" y="665" type="line" smooth="yes"/>
      <point x="99" y="648"/>
      <point x="106" y="637"/>
      <point x="122" y="633" type="curve"/>
      <point x="123" y="633"/>
      <point x="125" y="632"/>
      <point x="128" y="632" type="curve" smooth="yes"/>
      <point x="131" y="632"/>
      <point x="136" y="631"/>
      <point x="143" y="630" type="curve" smooth="yes"/>
      <point x="150" y="629"/>
      <point x="159" y="626"/>
      <point x="171" y="624" type="curve"/>
      <point x="107" y="99" type="line"/>
      <point x="94" y="97"/>
      <point x="84" y="95"/>
      <point x="77" y="94" type="curve" smooth="yes"/>
      <point x="70" y="93"/>
      <point x="64" y="92"/>
      <point x="61" y="91" type="curve"/>
      <point x="58" y="91"/>
      <point x="56" y="90"/>
      <point x="55" y="90" type="curve"/>
      <point x="38" y="86"/>
      <point x="28" y="76"/>
      <point x="26" y="59" type="curve" smooth="yes"/>
      <point x="19" y="0" type="line"/>
      <point x="95" y="0" type="line"/>
      <point x="229" y="0" type="line"/>
      <point x="305" y="0" type="line"/>
      <point x="312" y="59" type="line" smooth="yes"/>
      <point x="314" y="76"/>
      <point x="307" y="86"/>
      <point x="291" y="90" type="curve"/>
      <point x="290" y="90"/>
      <point x="288" y="91"/>
      <point x="285" y="91" type="curve" smooth="yes"/>
      <point x="282" y="91"/>
      <point x="277" y="93"/>
      <point x="270" y="94" type="curve" smooth="yes"/>
      <point x="263" y="95"/>
      <point x="253" y="97"/>
      <point x="241" y="99" type="curve"/>
      <point x="268" y="318" type="line"/>
      <point x="311" y="318" type="line" smooth="yes"/>
      <point x="326" y="318"/>
      <point x="338" y="316"/>
      <point x="346" y="312" type="curve" smooth="yes"/>
      <point x="354" y="308"/>
      <point x="360" y="302"/>
      <point x="366" y="293" type="curve" smooth="yes"/>
      <point x="494" y="94" type="line"/>
      <point x="489" y="93"/>
      <point x="484" y="92"/>
      <point x="480" y="91" type="curve" smooth="yes"/>
      <point x="476" y="90"/>
      <point x="473" y="90"/>
      <point x="472" y="90" type="curve"/>
      <point x="455" y="86"/>
      <point x="445" y="76"/>
      <point x="443" y="59" type="curve" smooth="yes"/>
      <point x="436" y="0" type="line"/>
      <point x="590" y="0" type="line"/>
      <point x="602" y="0" type="line"/>
      <point x="641" y="0" type="line"/>
      <point x="709" y="0" type="line"/>
      <point x="716" y="0" type="line"/>
      <point x="724" y="59" type="line" smooth="yes"/>
      <point x="726" y="76"/>
      <point x="719" y="86"/>
      <point x="703" y="90" type="curve"/>
    </contour>
    <contour>
      <point x="399" y="723" type="move" name="top"/>
    </contour>
    <contour>
      <point x="399" y="0" type="move" name="bottom"/>
    </contour>
  </outline>
</glyph>
<glyph name="U" format="1">
  <advance width="797"/>
  <unicode hex="0055"/>
  <note>
    U
  </note>
  <outline>
    <contour>
      <point x="703" y="723" type="line"/>
      <point x="568" y="723" type="line"/>
      <point x="488" y="723" type="line"/>
      <point x="481" y="664" type="line" smooth="yes"/>
      <point x="479" y="647"/>
      <point x="486" y="637"/>
      <point x="502" y="633" type="curve"/>
      <point x="503" y="633"/>
      <point x="506" y="632"/>
      <point x="509" y="632" type="curve" smooth="yes"/>
      <point x="512" y="632"/>
      <point x="518" y="630"/>
      <point x="526" y="629" type="curve" smooth="yes"/>
      <point x="534" y="628"/>
      <point x="544" y="626"/>
      <point x="556" y="624" type="curve"/>
      <point x="515" y="290" type="line" smooth="yes"/>
      <point x="512" y="262"/>
      <point x="505" y="237"/>
      <point x="495" y="215" type="curve" smooth="yes"/>
      <point x="485" y="193"/>
      <point x="471" y="174"/>
      <point x="455" y="158" type="curve" smooth="yes"/>
      <point x="439" y="142"/>
      <point x="421" y="131"/>
      <point x="399" y="122" type="curve" smooth="yes"/>
      <point x="377" y="113"/>
      <point x="353" y="109"/>
      <point x="327" y="109" type="curve" smooth="yes"/>
      <point x="301" y="109"/>
      <point x="278" y="113"/>
      <point x="259" y="122" type="curve" smooth="yes"/>
      <point x="240" y="131"/>
      <point x="224" y="142"/>
      <point x="212" y="158" type="curve" smooth="yes"/>
      <point x="200" y="174"/>
      <point x="192" y="194"/>
      <point x="187" y="216" type="curve" smooth="yes"/>
      <point x="182" y="238"/>
      <point x="182" y="263"/>
      <point x="185" y="291" type="curve" smooth="yes"/>
      <point x="226" y="624" type="line"/>
      <point x="239" y="626"/>
      <point x="249" y="628"/>
      <point x="257" y="629" type="curve" smooth="yes"/>
      <point x="265" y="630"/>
      <point x="271" y="632"/>
      <point x="274" y="632" type="curve" smooth="yes"/>
      <point x="277" y="632"/>
      <point x="280" y="633"/>
      <point x="282" y="633" type="curve"/>
      <point x="299" y="637"/>
      <point x="309" y="647"/>
      <point x="311" y="664" type="curve" smooth="yes"/>
      <point x="318" y="723" type="line"/>
      <point x="238" y="723" type="line"/>
      <point x="103" y="723" type="line"/>
      <point x="28" y="723" type="line"/>
      <point x="20" y="664" type="line" smooth="yes"/>
      <point x="18" y="647"/>
      <point x="26" y="637"/>
      <point x="42" y="633" type="curve"/>
      <point x="43" y="633"/>
      <point x="45" y="632"/>
      <point x="48" y="632" type="curve" smooth="yes"/>
      <point x="51" y="632"/>
      <point x="55" y="630"/>
      <point x="62" y="629" type="curve" smooth="yes"/>
      <point x="69" y="628"/>
      <point x="79" y="626"/>
      <point x="91" y="624" type="curve"/>
      <point x="50" y="290" type="line" smooth="yes"/>
      <point x="45" y="247"/>
      <point x="47" y="207"/>
      <point x="56" y="171" type="curve" smooth="yes"/>
      <point x="65" y="135"/>
      <point x="81" y="103"/>
      <point x="104" y="76" type="curve" smooth="yes"/>
      <point x="127" y="50"/>
      <point x="156" y="29"/>
      <point x="191" y="14" type="curve" smooth="yes"/>
      <point x="226" y="-1"/>
      <point x="267" y="-8"/>
      <point x="313" y="-8" type="curve" smooth="yes"/>
      <point x="359" y="-8"/>
      <point x="402" y="-1"/>
      <point x="441" y="14" type="curve" smooth="yes"/>
      <point x="480" y="29"/>
      <point x="514" y="50"/>
      <point x="543" y="76" type="curve" smooth="yes"/>
      <point x="572" y="103"/>
      <point x="596" y="135"/>
      <point x="614" y="171" type="curve" smooth="yes"/>
      <point x="632" y="207"/>
      <point x="645" y="247"/>
      <point x="650" y="290" type="curve" smooth="yes"/>
      <point x="691" y="624" type="line"/>
      <point x="704" y="626"/>
      <point x="714" y="628"/>
      <point x="721" y="629" type="curve" smooth="yes"/>
      <point x="728" y="630"/>
      <point x="733" y="632"/>
      <point x="736" y="632" type="curve" smooth="yes"/>
      <point x="739" y="632"/>
      <point x="740" y="633"/>
      <point x="742" y="633" type="curve"/>
      <point x="759" y="637"/>
      <point x="769" y="647"/>
      <point x="771" y="664" type="curve" smooth="yes"/>
      <point x="779" y="723" type="line"/>
    </contour>
    <contour>
      <point x="717" y="10" type="move" name="ogonek"/>
    </contour>
    <contour>
      <point x="399" y="723" type="move" name="top"/>
    </contour>
    <contour>
      <point x="777" y="723" type="move" name="topright"/>
    </contour>
    <contour>
      <point x="399" y="0" type="move" name="bottom"/>
    </contour>
  </outline>
</glyph>
<glyph name="Y" format="1">
  <advance width="741"/>
  <unicode hex="0059"/>
  <note>
    Y
  </note>
  <outline>
    <contour>
      <point x="706" y="723" type="line"/>
      <point x="688" y="723" type="line"/>
      <point x="646" y="723" type="line"/>
      <point x="587" y="723" type="line"/>
      <point x="452" y="723" type="line"/>
      <point x="445" y="664" type="line" smooth="yes"/>
      <point x="443" y="647"/>
      <point x="450" y="637"/>
      <point x="466" y="633" type="curve"/>
      <point x="467" y="633"/>
      <point x="468" y="633"/>
      <point x="470" y="632" type="curve"/>
      <point x="472" y="632"/>
      <point x="476" y="630"/>
      <point x="480" y="629" type="curve" smooth="yes"/>
      <point x="484" y="628"/>
      <point x="489" y="627"/>
      <point x="494" y="626" type="curve"/>
      <point x="377" y="451" type="line" smooth="yes"/>
      <point x="368" y="437"/>
      <point x="360" y="424"/>
      <point x="353" y="411" type="curve" smooth="yes"/>
      <point x="346" y="398"/>
      <point x="339" y="386"/>
      <point x="333" y="373" type="curve"/>
      <point x="330" y="385"/>
      <point x="326" y="398"/>
      <point x="322" y="411" type="curve" smooth="yes"/>
      <point x="318" y="424"/>
      <point x="313" y="437"/>
      <point x="307" y="451" type="curve" smooth="yes"/>
      <point x="233" y="626" type="line"/>
      <point x="238" y="627"/>
      <point x="244" y="628"/>
      <point x="248" y="629" type="curve" smooth="yes"/>
      <point x="252" y="630"/>
      <point x="255" y="631"/>
      <point x="257" y="632" type="curve"/>
      <point x="259" y="632"/>
      <point x="261" y="633"/>
      <point x="262" y="633" type="curve"/>
      <point x="279" y="637"/>
      <point x="289" y="647"/>
      <point x="291" y="664" type="curve" smooth="yes"/>
      <point x="298" y="723" type="line"/>
      <point x="163" y="723" type="line"/>
      <point x="104" y="723" type="line"/>
      <point x="63" y="723" type="line"/>
      <point x="45" y="723" type="line"/>
      <point x="28" y="723" type="line"/>
      <point x="21" y="664" type="line" smooth="yes"/>
      <point x="19" y="647"/>
      <point x="26" y="637"/>
      <point x="42" y="633" type="curve"/>
      <point x="43" y="633"/>
      <point x="45" y="633"/>
      <point x="48" y="632" type="curve"/>
      <point x="51" y="632"/>
      <point x="56" y="630"/>
      <point x="63" y="629" type="curve" smooth="yes"/>
      <point x="70" y="628"/>
      <point x="80" y="626"/>
      <point x="92" y="624" type="curve"/>
      <point x="254" y="281" type="line"/>
      <point x="232" y="99" type="line"/>
      <point x="219" y="97"/>
      <point x="208" y="95"/>
      <point x="201" y="94" type="curve" smooth="yes"/>
      <point x="194" y="93"/>
      <point x="189" y="92"/>
      <point x="186" y="91" type="curve" smooth="yes"/>
      <point x="183" y="90"/>
      <point x="181" y="90"/>
      <point x="180" y="90" type="curve"/>
      <point x="163" y="86"/>
      <point x="153" y="76"/>
      <point x="151" y="59" type="curve" smooth="yes"/>
      <point x="144" y="0" type="line"/>
      <point x="219" y="0" type="line"/>
      <point x="354" y="0" type="line"/>
      <point x="429" y="0" type="line"/>
      <point x="437" y="59" type="line" smooth="yes"/>
      <point x="439" y="76"/>
      <point x="432" y="86"/>
      <point x="416" y="90" type="curve"/>
      <point x="415" y="90"/>
      <point x="412" y="91"/>
      <point x="409" y="91" type="curve" smooth="yes"/>
      <point x="406" y="91"/>
      <point x="402" y="93"/>
      <point x="395" y="94" type="curve" smooth="yes"/>
      <point x="388" y="95"/>
      <point x="378" y="97"/>
      <point x="366" y="99" type="curve"/>
      <point x="388" y="281" type="line"/>
      <point x="634" y="624" type="line"/>
      <point x="647" y="626"/>
      <point x="658" y="628"/>
      <point x="665" y="629" type="curve" smooth="yes"/>
      <point x="672" y="630"/>
      <point x="677" y="632"/>
      <point x="680" y="632" type="curve" smooth="yes"/>
      <point x="683" y="632"/>
      <point x="684" y="633"/>
      <point x="686" y="633" type="curve"/>
      <point x="703" y="637"/>
      <point x="713" y="647"/>
      <point x="715" y="664" type="curve" smooth="yes"/>
      <point x="722" y="723" type="line"/>
    </contour>
    <contour>
      <point x="371" y="723" type="move" name="top"/>
    </contour>
    <contour>
      <point x="371" y="0" type="move" name="bottom"/>
    </contour>
    <contour>
      <point x="20" y="723" type="move" name="topleft"/>
    </contour>
  </outline>
</glyph>
<glyph name="bracketleft" format="1">
  <advance width="355"/>
  <unicode hex="005B"/>
  <note>
    bracketleft
  </note>
  <outline>
    <contour>
      <point x="18" y="-154" type="line"/>
      <point x="223" y="-154" type="line"/>
      <point x="229" y="-106" type="line" smooth="yes"/>
      <point x="230" y="-97"/>
      <point x="227" y="-89"/>
      <point x="222" y="-83" type="curve" smooth="yes"/>
      <point x="217" y="-77"/>
      <point x="210" y="-74"/>
      <point x="200" y="-74" type="curve" smooth="yes"/>
      <point x="131" y="-74" type="line"/>
      <point x="225" y="694" type="line"/>
      <point x="294" y="694" type="line" smooth="yes"/>
      <point x="304" y="694"/>
      <point x="312" y="697"/>
      <point x="319" y="703" type="curve" smooth="yes"/>
      <point x="326" y="709"/>
      <point x="330" y="716"/>
      <point x="331" y="725" type="curve" smooth="yes"/>
      <point x="337" y="773" type="line"/>
      <point x="132" y="773" type="line"/>
    </contour>
  </outline>
</glyph>
<glyph name="backslash" format="1">
  <advance width="351"/>
  <unicode hex="005C"/>
  <note>
    backslash
  </note>
  <outline>
    <contour>
      <point x="21" y="743" type="line"/>
      <point x="220" y="-2" type="line" smooth="yes"/>
      <point x="224" y="-17"/>
      <point x="231" y="-28"/>
      <point x="243" y="-36" type="curve" smooth="yes"/>
      <point x="255" y="-44"/>
      <point x="266" y="-48"/>
      <point x="279" y="-48" type="curve" smooth="yes"/>
      <point x="331" y="-48" type="line"/>
      <point x="132" y="700" type="line" smooth="yes"/>
      <point x="128" y="714"/>
      <point x="121" y="724"/>
      <point x="111" y="732" type="curve" smooth="yes"/>
      <point x="101" y="740"/>
      <point x="89" y="743"/>
      <point x="74" y="743" type="curve" smooth="yes"/>
    </contour>
  </outline>
</glyph>
<glyph name="asciicircum" format="1">
  <advance width="498"/>
  <unicode hex="005E"/>
  <note>
    asciicircum
  </note>
  <outline>
    <contour>
      <point x="476" y="388" type="line"/>
      <point x="331" y="723" type="line"/>
      <point x="251" y="723" type="line"/>
      <point x="24" y="388" type="line"/>
      <point x="118" y="388" type="line" smooth="yes"/>
      <point x="127" y="388"/>
      <point x="135" y="390"/>
      <point x="140" y="394" type="curve" smooth="yes"/>
      <point x="145" y="398"/>
      <point x="150" y="403"/>
      <point x="154" y="409" type="curve" smooth="yes"/>
      <point x="249" y="554" type="line" smooth="yes"/>
      <point x="255" y="563"/>
      <point x="260" y="572"/>
      <point x="265" y="580" type="curve" smooth="yes"/>
      <point x="270" y="588"/>
      <point x="274" y="597"/>
      <point x="278" y="606" type="curve"/>
      <point x="280" y="597"/>
      <point x="282" y="588"/>
      <point x="285" y="580" type="curve" smooth="yes"/>
      <point x="288" y="572"/>
      <point x="292" y="563"/>
      <point x="296" y="554" type="curve" smooth="yes"/>
      <point x="358" y="409" type="line"/>
      <point x="361" y="403"/>
      <point x="364" y="398"/>
      <point x="368" y="394" type="curve" smooth="yes"/>
      <point x="372" y="390"/>
      <point x="378" y="388"/>
      <point x="386" y="388" type="curve" smooth="yes"/>
    </contour>
  </outline>
</glyph>
<glyph name="grave" format="1">
  <advance width="272"/>
  <unicode hex="0060"/>
  <note>
    grave
  </note>
  <outline>
    <contour>
      <point x="28" y="731" type="line"/>
      <point x="136" y="600" type="line"/>
      <point x="141" y="593"/>
      <point x="146" y="590"/>
      <point x="152" y="587" type="curve"/>
      <point x="158" y="585"/>
      <point x="165" y="583"/>
      <point x="174" y="583" type="curve" smooth="yes"/>
      <point x="245" y="583" type="line"/>
      <point x="188" y="704" type="line" smooth="yes"/>
      <point x="184" y="713"/>
      <point x="179" y="720"/>
      <point x="173" y="724" type="curve" smooth="yes"/>
      <point x="167" y="728"/>
      <point x="158" y="731"/>
      <point x="144" y="731" type="curve" smooth="yes"/>
    </contour>
  </outline>
</glyph>
<glyph name="m" format="1">
  <advance width="865"/>
  <unicode hex="006D"/>
  <note>
    m
  </note>
  <outline>
    <contour>
      <point x="821" y="90"/>
      <point x="819" y="90"/>
      <point x="816" y="91" type="curve" smooth="yes"/>
      <point x="813" y="92"/>
      <point x="808" y="93"/>
      <point x="801" y="94" type="curve" smooth="yes"/>
      <point x="794" y="95"/>
      <point x="785" y="97"/>
      <point x="773" y="99" type="curve"/>
      <point x="800" y="326" type="line" smooth="yes"/>
      <point x="804" y="357"/>
      <point x="804" y="385"/>
      <point x="799" y="409" type="curve" smooth="yes"/>
      <point x="794" y="433"/>
      <point x="785" y="453"/>
      <point x="772" y="470" type="curve" smooth="yes"/>
      <point x="759" y="487"/>
      <point x="742" y="499"/>
      <point x="721" y="508" type="curve" smooth="yes"/>
      <point x="700" y="517"/>
      <point x="675" y="521"/>
      <point x="647" y="521" type="curve" smooth="yes"/>
      <point x="631" y="521"/>
      <point x="615" y="519"/>
      <point x="598" y="515" type="curve" smooth="yes"/>
      <point x="581" y="511"/>
      <point x="565" y="506"/>
      <point x="550" y="498" type="curve" smooth="yes"/>
      <point x="535" y="490"/>
      <point x="520" y="481"/>
      <point x="507" y="469" type="curve"/>
      <point x="493" y="457"/>
      <point x="482" y="442"/>
      <point x="472" y="425" type="curve"/>
      <point x="465" y="454"/>
      <point x="452" y="477"/>
      <point x="433" y="495" type="curve" smooth="yes"/>
      <point x="414" y="513"/>
      <point x="389" y="521"/>
      <point x="357" y="521" type="curve" smooth="yes"/>
      <point x="342" y="521"/>
      <point x="327" y="519"/>
      <point x="314" y="516" type="curve"/>
      <point x="301" y="512"/>
      <point x="288" y="507"/>
      <point x="276" y="501" type="curve" smooth="yes"/>
      <point x="264" y="495"/>
      <point x="253" y="488"/>
      <point x="242" y="480" type="curve" smooth="yes"/>
      <point x="231" y="472"/>
      <point x="220" y="462"/>
      <point x="210" y="452" type="curve"/>
      <point x="207" y="490" type="line"/>
      <point x="204" y="505"/>
      <point x="194" y="513"/>
      <point x="178" y="513" type="curve" smooth="yes"/>
      <point x="103" y="513" type="line"/>
      <point x="27" y="513" type="line"/>
      <point x="20" y="454" type="line" smooth="yes"/>
      <point x="18" y="437"/>
      <point x="25" y="427"/>
      <point x="41" y="423" type="curve"/>
      <point x="42" y="423"/>
      <point x="44" y="422"/>
      <point x="47" y="422" type="curve" smooth="yes"/>
      <point x="50" y="422"/>
      <point x="55" y="420"/>
      <point x="62" y="419" type="curve" smooth="yes"/>
      <point x="69" y="418"/>
      <point x="79" y="416"/>
      <point x="91" y="414" type="curve"/>
      <point x="65" y="207" type="line"/>
      <point x="40" y="0" type="line"/>
      <point x="40" y="0" type="line"/>
      <point x="163" y="0" type="line"/>
      <point x="185" y="177" type="line"/>
      <point x="209" y="376" type="line"/>
      <point x="224" y="391"/>
      <point x="240" y="403"/>
      <point x="257" y="412" type="curve" smooth="yes"/>
      <point x="274" y="421"/>
      <point x="291" y="425"/>
      <point x="309" y="425" type="curve" smooth="yes"/>
      <point x="336" y="425"/>
      <point x="355" y="417"/>
      <point x="367" y="401" type="curve" smooth="yes"/>
      <point x="379" y="385"/>
      <point x="382" y="360"/>
      <point x="378" y="326" type="curve" smooth="yes"/>
      <point x="338" y="0" type="line"/>
      <point x="462" y="0" type="line"/>
      <point x="475" y="99" type="line"/>
      <point x="481" y="155" type="line"/>
      <point x="490" y="229" type="line"/>
      <point x="490" y="229" type="line"/>
      <point x="502" y="326" type="line" smooth="yes"/>
      <point x="504" y="342"/>
      <point x="509" y="357"/>
      <point x="515" y="369" type="curve" smooth="yes"/>
      <point x="521" y="381"/>
      <point x="529" y="392"/>
      <point x="538" y="400" type="curve" smooth="yes"/>
      <point x="547" y="408"/>
      <point x="557" y="414"/>
      <point x="568" y="418" type="curve" smooth="yes"/>
      <point x="579" y="422"/>
      <point x="592" y="425"/>
      <point x="605" y="425" type="curve" smooth="yes"/>
      <point x="633" y="425"/>
      <point x="652" y="417"/>
      <point x="664" y="400" type="curve" smooth="yes"/>
      <point x="676" y="383"/>
      <point x="681" y="359"/>
      <point x="677" y="326" type="curve" smooth="yes"/>
      <point x="637" y="0" type="line"/>
      <point x="760" y="0" type="line"/>
      <point x="836" y="0" type="line"/>
      <point x="843" y="59" type="line" smooth="yes"/>
      <point x="845" y="76"/>
      <point x="838" y="86"/>
      <point x="822" y="90" type="curve"/>
    </contour>
    <contour>
      <point x="433" y="513" type="move" name="top"/>
    </contour>
    <contour>
      <point x="433" y="0" type="move" name="bottom"/>
    </contour>
  </outline>
</glyph>
<glyph name="q" format="1">
  <advance width="548"/>
  <unicode hex="0071"/>
  <note>
    q
  </note>
  <outline>
    <contour>
      <point x="507" y="-78"/>
      <point x="504" y="-77"/>
      <point x="501" y="-77" type="curve" smooth="yes"/>
      <point x="498" y="-77"/>
      <point x="493" y="-75"/>
      <point x="485" y="-74" type="curve" smooth="yes"/>
      <point x="477" y="-73"/>
      <point x="467" y="-71"/>
      <point x="455" y="-69" type="curve"/>
      <point x="504" y="333" type="line"/>
      <point x="524" y="494" type="line"/>
      <point x="433" y="513"/>
      <point x="350" y="522"/>
      <point x="276" y="522" type="curve" smooth="yes"/>
      <point x="242" y="522"/>
      <point x="211" y="515"/>
      <point x="182" y="502" type="curve" smooth="yes"/>
      <point x="153" y="489"/>
      <point x="128" y="469"/>
      <point x="106" y="445" type="curve" smooth="yes"/>
      <point x="84" y="421"/>
      <point x="65" y="393"/>
      <point x="51" y="360" type="curve" smooth="yes"/>
      <point x="37" y="327"/>
      <point x="27" y="292"/>
      <point x="22" y="254" type="curve" smooth="yes"/>
      <point x="17" y="212"/>
      <point x="17" y="174"/>
      <point x="22" y="142" type="curve" smooth="yes"/>
      <point x="27" y="110"/>
      <point x="37" y="83"/>
      <point x="51" y="61" type="curve" smooth="yes"/>
      <point x="65" y="39"/>
      <point x="83" y="23"/>
      <point x="105" y="11" type="curve" smooth="yes"/>
      <point x="127" y="-1"/>
      <point x="152" y="-7"/>
      <point x="180" y="-7" type="curve" smooth="yes"/>
      <point x="214" y="-7"/>
      <point x="245" y="0"/>
      <point x="272" y="13" type="curve" smooth="yes"/>
      <point x="299" y="26"/>
      <point x="325" y="42"/>
      <point x="348" y="64" type="curve"/>
      <point x="331" y="-69" type="line"/>
      <point x="318" y="-71"/>
      <point x="308" y="-73"/>
      <point x="301" y="-74" type="curve" smooth="yes"/>
      <point x="294" y="-75"/>
      <point x="289" y="-76"/>
      <point x="286" y="-77" type="curve" smooth="yes"/>
      <point x="283" y="-78"/>
      <point x="280" y="-78"/>
      <point x="279" y="-78" type="curve"/>
      <point x="262" y="-82"/>
      <point x="253" y="-92"/>
      <point x="251" y="-109" type="curve" smooth="yes"/>
      <point x="243" y="-168" type="line"/>
      <point x="319" y="-168" type="line"/>
      <point x="443" y="-168" type="line"/>
      <point x="522" y="-168" type="line"/>
      <point x="529" y="-109" type="line" smooth="yes"/>
      <point x="531" y="-92"/>
      <point x="524" y="-82"/>
      <point x="508" y="-78" type="curve"/>
    </contour>
    <contour>
      <point x="282" y="95"/>
      <point x="260" y="89"/>
      <point x="234" y="89" type="curve" smooth="yes"/>
      <point x="218" y="89"/>
      <point x="203" y="92"/>
      <point x="191" y="98" type="curve" smooth="yes"/>
      <point x="179" y="104"/>
      <point x="169" y="114"/>
      <point x="162" y="127" type="curve" smooth="yes"/>
      <point x="155" y="140"/>
      <point x="150" y="157"/>
      <point x="148" y="178" type="curve" smooth="yes"/>
      <point x="146" y="199"/>
      <point x="146" y="224"/>
      <point x="150" y="254" type="curve" smooth="yes"/>
      <point x="154" y="284"/>
      <point x="160" y="309"/>
      <point x="168" y="331" type="curve" smooth="yes"/>
      <point x="176" y="353"/>
      <point x="187" y="371"/>
      <point x="199" y="385" type="curve" smooth="yes"/>
      <point x="211" y="399"/>
      <point x="225" y="410"/>
      <point x="241" y="417" type="curve" smooth="yes"/>
      <point x="257" y="424"/>
      <point x="274" y="428"/>
      <point x="293" y="428" type="curve" smooth="yes"/>
      <point x="326" y="428"/>
      <point x="358" y="424"/>
      <point x="391" y="418" type="curve"/>
      <point x="358" y="151" type="line"/>
      <point x="340" y="131"/>
      <point x="321" y="117"/>
      <point x="302" y="106" type="curve" smooth="yes"/>
    </contour>
    <contour>
      <point x="274" y="513" type="move" name="top"/>
    </contour>
    <contour>
      <point x="274" y="0" type="move" name="bottom"/>
    </contour>
  </outline>
</glyph>
<glyph name="r" format="1">
  <advance width="448"/>
  <unicode hex="0072"/>
  <note>
    r
  </note>
  <outline>
    <contour>
      <point x="337" y="522"/>
      <point x="309" y="513"/>
      <point x="282" y="495" type="curve" smooth="yes"/>
      <point x="255" y="477"/>
      <point x="230" y="452"/>
      <point x="208" y="420" type="curve"/>
      <point x="208" y="482" type="line" smooth="yes"/>
      <point x="208" y="493"/>
      <point x="205" y="501"/>
      <point x="201" y="506" type="curve" smooth="yes"/>
      <point x="197" y="511"/>
      <point x="188" y="513"/>
      <point x="175" y="513" type="curve" smooth="yes"/>
      <point x="103" y="513" type="line"/>
      <point x="103" y="513" type="line"/>
      <point x="27" y="513" type="line"/>
      <point x="20" y="454" type="line" smooth="yes"/>
      <point x="18" y="437"/>
      <point x="25" y="427"/>
      <point x="41" y="423" type="curve"/>
      <point x="49" y="422"/>
      <point x="49" y="422"/>
      <point x="91" y="414" type="curve"/>
      <point x="64" y="193" type="line"/>
      <point x="59" y="158" type="line"/>
      <point x="52" y="99" type="line"/>
      <point x="40" y="0" type="line"/>
      <point x="40" y="0" type="line"/>
      <point x="163" y="0" type="line"/>
      <point x="163" y="0" type="line"/>
      <point x="181" y="141" type="line"/>
      <point x="203" y="319" type="line"/>
      <point x="219" y="346"/>
      <point x="237" y="368"/>
      <point x="257" y="382" type="curve" smooth="yes"/>
      <point x="277" y="396"/>
      <point x="299" y="403"/>
      <point x="325" y="403" type="curve" smooth="yes"/>
      <point x="339" y="403"/>
      <point x="351" y="401"/>
      <point x="359" y="399" type="curve" smooth="yes"/>
      <point x="367" y="397"/>
      <point x="374" y="396"/>
      <point x="379" y="396" type="curve" smooth="yes"/>
      <point x="385" y="396"/>
      <point x="389" y="397"/>
      <point x="393" y="400" type="curve"/>
      <point x="397" y="402"/>
      <point x="400" y="406"/>
      <point x="402" y="412" type="curve"/>
      <point x="429" y="505" type="line"/>
      <point x="414" y="517"/>
      <point x="393" y="522"/>
      <point x="368" y="522" type="curve" smooth="yes"/>
    </contour>
    <contour>
      <point x="224" y="513" type="move" name="top"/>
    </contour>
    <contour>
      <point x="224" y="0" type="move" name="bottom"/>
    </contour>
  </outline>
</glyph>
<glyph name="braceleft" format="1">
  <advance width="348"/>
  <unicode hex="007B"/>
  <note>
    braceleft
  </note>
  <outline>
    <contour>
      <point x="69" y="189"/>
      <point x="66" y="174"/>
      <point x="62" y="158" type="curve" smooth="yes"/>
      <point x="58" y="142"/>
      <point x="53" y="127"/>
      <point x="48" y="111" type="curve" smooth="yes"/>
      <point x="43" y="95"/>
      <point x="39" y="80"/>
      <point x="35" y="64" type="curve" smooth="yes"/>
      <point x="31" y="48"/>
      <point x="28" y="32"/>
      <point x="26" y="16" type="curve" smooth="yes"/>
      <point x="23" y="-9"/>
      <point x="23" y="-33"/>
      <point x="28" y="-54" type="curve" smooth="yes"/>
      <point x="33" y="-75"/>
      <point x="42" y="-92"/>
      <point x="55" y="-107" type="curve" smooth="yes"/>
      <point x="68" y="-122"/>
      <point x="87" y="-134"/>
      <point x="109" y="-142" type="curve" smooth="yes"/>
      <point x="131" y="-150"/>
      <point x="158" y="-154"/>
      <point x="189" y="-154" type="curve" smooth="yes"/>
      <point x="215" y="-154" type="line"/>
      <point x="222" y="-100" type="line"/>
      <point x="223" y="-96"/>
      <point x="222" y="-91"/>
      <point x="221" y="-88" type="curve" smooth="yes"/>
      <point x="220" y="-85"/>
      <point x="218" y="-82"/>
      <point x="215" y="-80" type="curve" smooth="yes"/>
      <point x="212" y="-78"/>
      <point x="210" y="-77"/>
      <point x="207" y="-76" type="curve" smooth="yes"/>
      <point x="204" y="-75"/>
      <point x="201" y="-74"/>
      <point x="199" y="-74" type="curve" smooth="yes"/>
      <point x="194" y="-74" type="line" smooth="yes"/>
      <point x="171" y="-74"/>
      <point x="154" y="-67"/>
      <point x="143" y="-52" type="curve" smooth="yes"/>
      <point x="132" y="-37"/>
      <point x="129" y="-17"/>
      <point x="132" y="8" type="curve" smooth="yes"/>
      <point x="134" y="26"/>
      <point x="138" y="44"/>
      <point x="142" y="61" type="curve" smooth="yes"/>
      <point x="146" y="78"/>
      <point x="150" y="94"/>
      <point x="154" y="110" type="curve" smooth="yes"/>
      <point x="158" y="126"/>
      <point x="162" y="142"/>
      <point x="166" y="157" type="curve" smooth="yes"/>
      <point x="170" y="172"/>
      <point x="173" y="187"/>
      <point x="175" y="203" type="curve"/>
      <point x="177" y="215"/>
      <point x="176" y="228"/>
      <point x="174" y="239" type="curve" smooth="yes"/>
      <point x="172" y="250"/>
      <point x="168" y="261"/>
      <point x="162" y="270" type="curve" smooth="yes"/>
      <point x="156" y="279"/>
      <point x="150" y="287"/>
      <point x="141" y="294" type="curve" smooth="yes"/>
      <point x="132" y="301"/>
      <point x="122" y="306"/>
      <point x="110" y="310" type="curve"/>
      <point x="122" y="313"/>
      <point x="135" y="318"/>
      <point x="145" y="325" type="curve" smooth="yes"/>
      <point x="155" y="332"/>
      <point x="164" y="340"/>
      <point x="172" y="349" type="curve" smooth="yes"/>
      <point x="180" y="358"/>
      <point x="186" y="369"/>
      <point x="191" y="380" type="curve" smooth="yes"/>
      <point x="196" y="391"/>
      <point x="199" y="403"/>
      <point x="201" y="416" type="curve" smooth="yes"/>
      <point x="203" y="432"/>
      <point x="204" y="448"/>
      <point x="204" y="463" type="curve" smooth="yes"/>
      <point x="204" y="478"/>
      <point x="203" y="493"/>
      <point x="203" y="509" type="curve" smooth="yes"/>
      <point x="203" y="558" type="line" smooth="yes"/>
      <point x="203" y="575"/>
      <point x="204" y="593"/>
      <point x="206" y="611" type="curve" smooth="yes"/>
      <point x="209" y="637"/>
      <point x="218" y="657"/>
      <point x="232" y="672" type="curve" smooth="yes"/>
      <point x="246" y="687"/>
      <point x="266" y="694"/>
      <point x="289" y="694" type="curve" smooth="yes"/>
      <point x="293" y="694" type="line" smooth="yes"/>
      <point x="295" y="694"/>
      <point x="298" y="694"/>
      <point x="301" y="695" type="curve" smooth="yes"/>
      <point x="304" y="696"/>
      <point x="307" y="698"/>
      <point x="310" y="700" type="curve" smooth="yes"/>
      <point x="313" y="702"/>
      <point x="316" y="704"/>
      <point x="318" y="707" type="curve" smooth="yes"/>
      <point x="320" y="710"/>
      <point x="322" y="715"/>
      <point x="323" y="719" type="curve"/>
      <point x="329" y="774" type="line"/>
      <point x="303" y="774" type="line" smooth="yes"/>
      <point x="272" y="774"/>
      <point x="244" y="769"/>
      <point x="220" y="761" type="curve" smooth="yes"/>
      <point x="196" y="753"/>
      <point x="175" y="742"/>
      <point x="158" y="727" type="curve" smooth="yes"/>
      <point x="141" y="712"/>
      <point x="127" y="694"/>
      <point x="117" y="673" type="curve" smooth="yes"/>
      <point x="107" y="652"/>
      <point x="101" y="629"/>
      <point x="98" y="604" type="curve" smooth="yes"/>
      <point x="96" y="588"/>
      <point x="95" y="571"/>
      <point x="95" y="555" type="curve" smooth="yes"/>
      <point x="95" y="539"/>
      <point x="96" y="524"/>
      <point x="97" y="508" type="curve" smooth="yes"/>
      <point x="98" y="492"/>
      <point x="99" y="477"/>
      <point x="99" y="461" type="curve" smooth="yes"/>
      <point x="99" y="445"/>
      <point x="98" y="431"/>
      <point x="96" y="415" type="curve" smooth="yes"/>
      <point x="94" y="395"/>
      <point x="87" y="378"/>
      <point x="76" y="365" type="curve" smooth="yes"/>
      <point x="65" y="352"/>
      <point x="49" y="346"/>
      <point x="28" y="346" type="curve"/>
      <point x="19" y="274" type="line"/>
      <point x="40" y="274"/>
      <point x="54" y="268"/>
      <point x="62" y="255" type="curve" smooth="yes"/>
      <point x="70" y="242"/>
      <point x="73" y="225"/>
      <point x="71" y="205" type="curve" smooth="yes"/>
    </contour>
  </outline>
</glyph>
<glyph name="bar" format="1">
  <advance width="248"/>
  <unicode hex="007C"/>
  <note>
    bar
  </note>
  <outline>
    <contour>
      <point x="80" y="774" type="line"/>
      <point x="80" y="-168" type="line"/>
      <point x="176" y="-168" type="line"/>
      <point x="176" y="774" type="line"/>
    </contour>
  </outline>
</glyph>
<glyph name="braceright" format="1">
  <advance width="348"/>
  <unicode hex="007D"/>
  <note>
    braceright
  </note>
  <outline>
    <contour>
      <point x="253" y="225"/>
      <point x="260" y="242"/>
      <point x="271" y="255" type="curve" smooth="yes"/>
      <point x="282" y="268"/>
      <point x="299" y="274"/>
      <point x="320" y="274" type="curve"/>
      <point x="328" y="346" type="line"/>
      <point x="307" y="346"/>
      <point x="293" y="352"/>
      <point x="285" y="365" type="curve" smooth="yes"/>
      <point x="277" y="378"/>
      <point x="275" y="394"/>
      <point x="277" y="414" type="curve" smooth="yes"/>
      <point x="279" y="430"/>
      <point x="282" y="445"/>
      <point x="286" y="461" type="curve" smooth="yes"/>
      <point x="290" y="476"/>
      <point x="294" y="492"/>
      <point x="299" y="508" type="curve" smooth="yes"/>
      <point x="304" y="524"/>
      <point x="308" y="539"/>
      <point x="312" y="555" type="curve" smooth="yes"/>
      <point x="316" y="571"/>
      <point x="320" y="588"/>
      <point x="322" y="604" type="curve" smooth="yes"/>
      <point x="325" y="629"/>
      <point x="324" y="652"/>
      <point x="319" y="673" type="curve" smooth="yes"/>
      <point x="314" y="694"/>
      <point x="305" y="712"/>
      <point x="292" y="727" type="curve" smooth="yes"/>
      <point x="279" y="742"/>
      <point x="261" y="753"/>
      <point x="239" y="761" type="curve" smooth="yes"/>
      <point x="217" y="769"/>
      <point x="189" y="774"/>
      <point x="158" y="774" type="curve" smooth="yes"/>
      <point x="132" y="774" type="line"/>
      <point x="125" y="719" type="line"/>
      <point x="124" y="715"/>
      <point x="125" y="710"/>
      <point x="126" y="707" type="curve" smooth="yes"/>
      <point x="127" y="704"/>
      <point x="130" y="702"/>
      <point x="133" y="700" type="curve" smooth="yes"/>
      <point x="136" y="698"/>
      <point x="138" y="696"/>
      <point x="141" y="695" type="curve" smooth="yes"/>
      <point x="144" y="694"/>
      <point x="147" y="694"/>
      <point x="149" y="694" type="curve" smooth="yes"/>
      <point x="153" y="694" type="line" smooth="yes"/>
      <point x="176" y="694"/>
      <point x="193" y="687"/>
      <point x="204" y="672" type="curve" smooth="yes"/>
      <point x="215" y="657"/>
      <point x="218" y="637"/>
      <point x="215" y="611" type="curve" smooth="yes"/>
      <point x="213" y="593"/>
      <point x="209" y="575"/>
      <point x="205" y="558" type="curve" smooth="yes"/>
      <point x="201" y="541"/>
      <point x="197" y="525"/>
      <point x="193" y="509" type="curve" smooth="yes"/>
      <point x="189" y="493"/>
      <point x="185" y="477"/>
      <point x="181" y="462" type="curve" smooth="yes"/>
      <point x="177" y="447"/>
      <point x="174" y="432"/>
      <point x="172" y="416" type="curve" smooth="yes"/>
      <point x="170" y="403"/>
      <point x="171" y="391"/>
      <point x="173" y="380" type="curve" smooth="yes"/>
      <point x="175" y="369"/>
      <point x="179" y="358"/>
      <point x="185" y="349" type="curve" smooth="yes"/>
      <point x="191" y="340"/>
      <point x="197" y="332"/>
      <point x="206" y="325" type="curve" smooth="yes"/>
      <point x="215" y="318"/>
      <point x="225" y="313"/>
      <point x="237" y="310" type="curve"/>
      <point x="225" y="306"/>
      <point x="213" y="301"/>
      <point x="202" y="294" type="curve" smooth="yes"/>
      <point x="191" y="287"/>
      <point x="183" y="279"/>
      <point x="175" y="270" type="curve" smooth="yes"/>
      <point x="167" y="261"/>
      <point x="161" y="249"/>
      <point x="156" y="238" type="curve" smooth="yes"/>
      <point x="151" y="227"/>
      <point x="148" y="215"/>
      <point x="146" y="203" type="curve"/>
      <point x="144" y="187"/>
      <point x="144" y="171"/>
      <point x="144" y="156" type="curve" smooth="yes"/>
      <point x="144" y="110" type="line"/>
      <point x="144" y="61" type="line" smooth="yes"/>
      <point x="144" y="44"/>
      <point x="143" y="26"/>
      <point x="141" y="8" type="curve" smooth="yes"/>
      <point x="138" y="-17"/>
      <point x="129" y="-37"/>
      <point x="115" y="-52" type="curve" smooth="yes"/>
      <point x="101" y="-67"/>
      <point x="82" y="-74"/>
      <point x="59" y="-74" type="curve" smooth="yes"/>
      <point x="54" y="-74" type="line" smooth="yes"/>
      <point x="52" y="-74"/>
      <point x="49" y="-75"/>
      <point x="46" y="-76" type="curve" smooth="yes"/>
      <point x="43" y="-77"/>
      <point x="40" y="-78"/>
      <point x="37" y="-80" type="curve" smooth="yes"/>
      <point x="34" y="-82"/>
      <point x="31" y="-85"/>
      <point x="29" y="-88" type="curve" smooth="yes"/>
      <point x="27" y="-91"/>
      <point x="26" y="-96"/>
      <point x="25" y="-100" type="curve"/>
      <point x="18" y="-154" type="line"/>
      <point x="44" y="-154" type="line" smooth="yes"/>
      <point x="75" y="-154"/>
      <point x="104" y="-150"/>
      <point x="128" y="-142" type="curve" smooth="yes"/>
      <point x="152" y="-134"/>
      <point x="172" y="-122"/>
      <point x="189" y="-107" type="curve" smooth="yes"/>
      <point x="206" y="-92"/>
      <point x="220" y="-75"/>
      <point x="230" y="-54" type="curve" smooth="yes"/>
      <point x="240" y="-33"/>
      <point x="246" y="-10"/>
      <point x="249" y="15" type="curve" smooth="yes"/>
      <point x="251" y="31"/>
      <point x="252" y="48"/>
      <point x="252" y="64" type="curve" smooth="yes"/>
      <point x="252" y="80"/>
      <point x="251" y="95"/>
      <point x="250" y="111" type="curve" smooth="yes"/>
      <point x="249" y="127"/>
      <point x="249" y="142"/>
      <point x="249" y="158" type="curve" smooth="yes"/>
      <point x="249" y="174"/>
      <point x="249" y="189"/>
      <point x="251" y="205" type="curve" smooth="yes"/>
    </contour>
  </outline>
</glyph>
<glyph name="exclamdown" format="1">
  <advance width="254"/>
  <unicode hex="00A1"/>
  <note>
    exclamdown
  </note>
  <outline>
    <contour>
      <point x="22" y="-168" type="line"/>
      <point x="138" y="-168" type="line"/>
      <point x="171" y="99" type="line" smooth="yes"/>
      <point x="175" y="129"/>
      <point x="177" y="159"/>
      <point x="178" y="188" type="curve" smooth="yes"/>
      <point x="179" y="217"/>
      <point x="178" y="248"/>
      <point x="177" y="281" type="curve"/>
      <point x="94" y="281" type="line"/>
      <point x="85" y="248"/>
      <point x="77" y="217"/>
      <point x="70" y="188" type="curve" smooth="yes"/>
      <point x="63" y="159"/>
      <point x="59" y="129"/>
      <point x="55" y="99" type="curve" smooth="yes"/>
    </contour>
    <contour>
      <point x="77" y="435"/>
      <point x="77" y="425"/>
      <point x="80" y="416" type="curve" smooth="yes"/>
      <point x="83" y="407"/>
      <point x="87" y="400"/>
      <point x="93" y="393" type="curve" smooth="yes"/>
      <point x="99" y="386"/>
      <point x="106" y="381"/>
      <point x="115" y="377" type="curve" smooth="yes"/>
      <point x="124" y="373"/>
      <point x="134" y="371"/>
      <point x="145" y="371" type="curve" smooth="yes"/>
      <point x="156" y="371"/>
      <point x="165" y="373"/>
      <point x="175" y="377" type="curve" smooth="yes"/>
      <point x="185" y="381"/>
      <point x="193" y="386"/>
      <point x="201" y="393" type="curve" smooth="yes"/>
      <point x="209" y="400"/>
      <point x="215" y="407"/>
      <point x="220" y="416" type="curve" smooth="yes"/>
      <point x="225" y="425"/>
      <point x="229" y="435"/>
      <point x="230" y="446" type="curve" smooth="yes"/>
      <point x="231" y="457"/>
      <point x="230" y="467"/>
      <point x="227" y="476" type="curve" smooth="yes"/>
      <point x="224" y="485"/>
      <point x="220" y="493"/>
      <point x="214" y="500" type="curve" smooth="yes"/>
      <point x="208" y="507"/>
      <point x="201" y="511"/>
      <point x="192" y="515" type="curve" smooth="yes"/>
      <point x="183" y="519"/>
      <point x="174" y="521"/>
      <point x="163" y="521" type="curve" smooth="yes"/>
      <point x="152" y="521"/>
      <point x="142" y="519"/>
      <point x="132" y="515" type="curve" smooth="yes"/>
      <point x="122" y="511"/>
      <point x="113" y="506"/>
      <point x="106" y="499" type="curve" smooth="yes"/>
      <point x="99" y="492"/>
      <point x="93" y="485"/>
      <point x="88" y="476" type="curve" smooth="yes"/>
      <point x="83" y="467"/>
      <point x="79" y="457"/>
      <point x="78" y="446" type="curve" smooth="yes"/>
    </contour>
  </outline>
</glyph>
<glyph name="brokenbar" format="1">
  <advance width="250"/>
  <unicode hex="00A6"/>
  <note>
    brokenbar
  </note>
  <outline>
    <contour>
      <point x="135" y="774" type="line"/>
      <point x="85" y="369" type="line"/>
      <point x="181" y="369" type="line"/>
      <point x="231" y="774" type="line"/>
    </contour>
    <contour>
      <point x="69" y="236" type="line"/>
      <point x="19" y="-168" type="line"/>
      <point x="115" y="-168" type="line"/>
      <point x="165" y="236" type="line"/>
    </contour>
  </outline>
</glyph>
<glyph name="ordfeminine" format="1">
  <advance width="336"/>
  <unicode hex="00AA"/>
  <note>
    ordfeminine
  </note>
  <outline>
    <contour>
      <point x="287" y="420" type="line"/>
      <point x="311" y="612" type="line" smooth="yes"/>
      <point x="313" y="629"/>
      <point x="312" y="645"/>
      <point x="308" y="660" type="curve" smooth="yes"/>
      <point x="304" y="675"/>
      <point x="297" y="688"/>
      <point x="288" y="699" type="curve" smooth="yes"/>
      <point x="279" y="710"/>
      <point x="267" y="718"/>
      <point x="253" y="724" type="curve" smooth="yes"/>
      <point x="239" y="730"/>
      <point x="223" y="733"/>
      <point x="204" y="733" type="curve" smooth="yes"/>
      <point x="178" y="733"/>
      <point x="153" y="729"/>
      <point x="130" y="721" type="curve" smooth="yes"/>
      <point x="107" y="713"/>
      <point x="85" y="701"/>
      <point x="64" y="684" type="curve"/>
      <point x="76" y="656" type="line"/>
      <point x="78" y="652"/>
      <point x="80" y="647"/>
      <point x="84" y="644" type="curve" smooth="yes"/>
      <point x="88" y="641"/>
      <point x="94" y="639"/>
      <point x="100" y="639" type="curve" smooth="yes"/>
      <point x="107" y="639"/>
      <point x="113" y="640"/>
      <point x="118" y="642" type="curve" smooth="yes"/>
      <point x="123" y="644"/>
      <point x="129" y="647"/>
      <point x="135" y="650" type="curve" smooth="yes"/>
      <point x="141" y="653"/>
      <point x="148" y="656"/>
      <point x="156" y="658" type="curve" smooth="yes"/>
      <point x="164" y="660"/>
      <point x="173" y="662"/>
      <point x="184" y="662" type="curve" smooth="yes"/>
      <point x="199" y="662"/>
      <point x="210" y="659"/>
      <point x="217" y="651" type="curve" smooth="yes"/>
      <point x="224" y="643"/>
      <point x="226" y="630"/>
      <point x="224" y="612" type="curve" smooth="yes"/>
      <point x="223" y="600" type="line"/>
      <point x="187" y="599"/>
      <point x="156" y="595"/>
      <point x="132" y="589" type="curve" smooth="yes"/>
      <point x="108" y="583"/>
      <point x="87" y="575"/>
      <point x="72" y="566" type="curve" smooth="yes"/>
      <point x="57" y="557"/>
      <point x="46" y="547"/>
      <point x="39" y="535" type="curve" smooth="yes"/>
      <point x="32" y="523"/>
      <point x="27" y="512"/>
      <point x="26" y="501" type="curve"/>
      <point x="24" y="487"/>
      <point x="26" y="475"/>
      <point x="29" y="465" type="curve" smooth="yes"/>
      <point x="32" y="455"/>
      <point x="37" y="445"/>
      <point x="44" y="438" type="curve" smooth="yes"/>
      <point x="51" y="431"/>
      <point x="61" y="426"/>
      <point x="72" y="422" type="curve" smooth="yes"/>
      <point x="83" y="418"/>
      <point x="95" y="416"/>
      <point x="109" y="416" type="curve" smooth="yes"/>
      <point x="120" y="416"/>
      <point x="130" y="417"/>
      <point x="139" y="419" type="curve" smooth="yes"/>
      <point x="148" y="421"/>
      <point x="157" y="423"/>
      <point x="165" y="426" type="curve" smooth="yes"/>
      <point x="173" y="429"/>
      <point x="181" y="434"/>
      <point x="189" y="439" type="curve" smooth="yes"/>
      <point x="197" y="444"/>
      <point x="205" y="449"/>
      <point x="214" y="456" type="curve"/>
      <point x="218" y="438" type="line" smooth="yes"/>
      <point x="220" y="430"/>
      <point x="223" y="426"/>
      <point x="227" y="424" type="curve" smooth="yes"/>
      <point x="231" y="422"/>
      <point x="237" y="420"/>
      <point x="245" y="420" type="curve" smooth="yes"/>
    </contour>
    <contour>
      <point x="132" y="477"/>
      <point x="124" y="479"/>
      <point x="118" y="483" type="curve" smooth="yes"/>
      <point x="112" y="487"/>
      <point x="111" y="495"/>
      <point x="112" y="506" type="curve"/>
      <point x="113" y="511"/>
      <point x="114" y="516"/>
      <point x="118" y="520" type="curve" smooth="yes"/>
      <point x="122" y="524"/>
      <point x="127" y="528"/>
      <point x="135" y="532" type="curve"/>
      <point x="143" y="535"/>
      <point x="154" y="539"/>
      <point x="167" y="541" type="curve" smooth="yes"/>
      <point x="180" y="543"/>
      <point x="196" y="545"/>
      <point x="216" y="546" type="curve"/>
      <point x="211" y="505" type="line"/>
      <point x="200" y="495"/>
      <point x="189" y="488"/>
      <point x="179" y="484" type="curve" smooth="yes"/>
      <point x="169" y="480"/>
      <point x="157" y="477"/>
      <point x="144" y="477" type="curve" smooth="yes"/>
    </contour>
  </outline>
</glyph>
<glyph name="guillemotleft" format="1">
  <advance width="421"/>
  <unicode hex="00AB"/>
  <note>
    guillemotleft
  </note>
  <outline>
    <contour>
      <point x="24" y="261" type="line"/>
      <point x="128" y="63" type="line"/>
      <point x="171" y="82" type="line" smooth="yes"/>
      <point x="184" y="88"/>
      <point x="192" y="97"/>
      <point x="193" y="108" type="curve"/>
      <point x="194" y="115"/>
      <point x="192" y="123"/>
      <point x="189" y="130" type="curve" smooth="yes"/>
      <point x="134" y="248" type="line" smooth="yes"/>
      <point x="130" y="257"/>
      <point x="126" y="264"/>
      <point x="121" y="269" type="curve"/>
      <point x="128" y="274"/>
      <point x="134" y="281"/>
      <point x="140" y="290" type="curve" smooth="yes"/>
      <point x="223" y="408" type="line" smooth="yes"/>
      <point x="228" y="415"/>
      <point x="231" y="422"/>
      <point x="232" y="429" type="curve" smooth="yes"/>
      <point x="233" y="435"/>
      <point x="232" y="439"/>
      <point x="230" y="444" type="curve" smooth="yes"/>
      <point x="228" y="449"/>
      <point x="222" y="453"/>
      <point x="216" y="456" type="curve" smooth="yes"/>
      <point x="178" y="475" type="line"/>
      <point x="26" y="277" type="line"/>
    </contour>
    <contour>
      <point x="188" y="261" type="line"/>
      <point x="292" y="63" type="line"/>
      <point x="335" y="82" type="line" smooth="yes"/>
      <point x="348" y="88"/>
      <point x="356" y="97"/>
      <point x="357" y="108" type="curve"/>
      <point x="358" y="115"/>
      <point x="356" y="123"/>
      <point x="353" y="130" type="curve" smooth="yes"/>
      <point x="299" y="248" type="line" smooth="yes"/>
      <point x="295" y="257"/>
      <point x="290" y="264"/>
      <point x="285" y="269" type="curve"/>
      <point x="292" y="274"/>
      <point x="298" y="281"/>
      <point x="304" y="290" type="curve" smooth="yes"/>
      <point x="387" y="408" type="line" smooth="yes"/>
      <point x="392" y="415"/>
      <point x="396" y="422"/>
      <point x="397" y="429" type="curve" smooth="yes"/>
      <point x="398" y="435"/>
      <point x="396" y="440"/>
      <point x="394" y="445" type="curve" smooth="yes"/>
      <point x="392" y="450"/>
      <point x="387" y="453"/>
      <point x="381" y="456" type="curve" smooth="yes"/>
      <point x="343" y="475" type="line"/>
      <point x="190" y="277" type="line"/>
    </contour>
  </outline>
</glyph>
<glyph name="registered" format="1">
  <advance width="787"/>
  <unicode hex="00AE"/>
  <note>
    registered
  </note>
  <outline>
    <contour>
      <point x="21" y="328"/>
      <point x="22" y="295"/>
      <point x="27" y="264" type="curve" smooth="yes"/>
      <point x="32" y="233"/>
      <point x="40" y="203"/>
      <point x="53" y="176" type="curve" smooth="yes"/>
      <point x="66" y="149"/>
      <point x="82" y="123"/>
      <point x="102" y="101" type="curve" smooth="yes"/>
      <point x="122" y="79"/>
      <point x="144" y="60"/>
      <point x="169" y="44" type="curve" smooth="yes"/>
      <point x="194" y="28"/>
      <point x="223" y="15"/>
      <point x="253" y="6" type="curve" smooth="yes"/>
      <point x="283" y="-3"/>
      <point x="315" y="-7"/>
      <point x="349" y="-7" type="curve" smooth="yes"/>
      <point x="383" y="-7"/>
      <point x="416" y="-3"/>
      <point x="449" y="6" type="curve" smooth="yes"/>
      <point x="482" y="15"/>
      <point x="513" y="28"/>
      <point x="542" y="44" type="curve" smooth="yes"/>
      <point x="571" y="60"/>
      <point x="599" y="79"/>
      <point x="624" y="101" type="curve" smooth="yes"/>
      <point x="649" y="123"/>
      <point x="672" y="149"/>
      <point x="691" y="176" type="curve" smooth="yes"/>
      <point x="710" y="203"/>
      <point x="726" y="232"/>
      <point x="739" y="264" type="curve" smooth="yes"/>
      <point x="752" y="296"/>
      <point x="760" y="328"/>
      <point x="764" y="362" type="curve" smooth="yes"/>
      <point x="768" y="396"/>
      <point x="768" y="428"/>
      <point x="763" y="460" type="curve" smooth="yes"/>
      <point x="758" y="492"/>
      <point x="749" y="521"/>
      <point x="736" y="548" type="curve" smooth="yes"/>
      <point x="723" y="575"/>
      <point x="708" y="601"/>
      <point x="688" y="623" type="curve" smooth="yes"/>
      <point x="668" y="645"/>
      <point x="645" y="664"/>
      <point x="620" y="680" type="curve" smooth="yes"/>
      <point x="595" y="696"/>
      <point x="566" y="709"/>
      <point x="536" y="718" type="curve" smooth="yes"/>
      <point x="506" y="727"/>
      <point x="474" y="731"/>
      <point x="440" y="731" type="curve" smooth="yes"/>
      <point x="406" y="731"/>
      <point x="372" y="727"/>
      <point x="340" y="718" type="curve" smooth="yes"/>
      <point x="308" y="709"/>
      <point x="277" y="696"/>
      <point x="248" y="680" type="curve" smooth="yes"/>
      <point x="219" y="664"/>
      <point x="191" y="645"/>
      <point x="166" y="623" type="curve" smooth="yes"/>
      <point x="141" y="601"/>
      <point x="118" y="575"/>
      <point x="99" y="548" type="curve" smooth="yes"/>
      <point x="80" y="521"/>
      <point x="64" y="492"/>
      <point x="51" y="460" type="curve" smooth="yes"/>
      <point x="38" y="428"/>
      <point x="29" y="396"/>
      <point x="25" y="362" type="curve" smooth="yes"/>
    </contour>
    <contour>
      <point x="97" y="390"/>
      <point x="104" y="418"/>
      <point x="114" y="445" type="curve" smooth="yes"/>
      <point x="124" y="472"/>
      <point x="137" y="497"/>
      <point x="153" y="520" type="curve" smooth="yes"/>
      <point x="169" y="543"/>
      <point x="187" y="564"/>
      <point x="207" y="583" type="curve" smooth="yes"/>
      <point x="227" y="602"/>
      <point x="250" y="617"/>
      <point x="274" y="631" type="curve" smooth="yes"/>
      <point x="298" y="644"/>
      <point x="323" y="655"/>
      <point x="350" y="662" type="curve" smooth="yes"/>
      <point x="377" y="669"/>
      <point x="405" y="673"/>
      <point x="433" y="673" type="curve" smooth="yes"/>
      <point x="461" y="673"/>
      <point x="488" y="669"/>
      <point x="513" y="662" type="curve" smooth="yes"/>
      <point x="538" y="655"/>
      <point x="560" y="645"/>
      <point x="581" y="631" type="curve" smooth="yes"/>
      <point x="602" y="617"/>
      <point x="621" y="602"/>
      <point x="637" y="583" type="curve" smooth="yes"/>
      <point x="653" y="564"/>
      <point x="666" y="543"/>
      <point x="676" y="520" type="curve" smooth="yes"/>
      <point x="686" y="497"/>
      <point x="693" y="472"/>
      <point x="697" y="445" type="curve" smooth="yes"/>
      <point x="701" y="418"/>
      <point x="702" y="391"/>
      <point x="698" y="362" type="curve" smooth="yes"/>
      <point x="693" y="319"/>
      <point x="679" y="278"/>
      <point x="659" y="240" type="curve" smooth="yes"/>
      <point x="639" y="202"/>
      <point x="614" y="170"/>
      <point x="583" y="142" type="curve" smooth="yes"/>
      <point x="552" y="114"/>
      <point x="517" y="92"/>
      <point x="478" y="76" type="curve" smooth="yes"/>
      <point x="439" y="60"/>
      <point x="398" y="52"/>
      <point x="356" y="52" type="curve" smooth="yes"/>
      <point x="314" y="52"/>
      <point x="276" y="60"/>
      <point x="241" y="76" type="curve" smooth="yes"/>
      <point x="206" y="92"/>
      <point x="177" y="114"/>
      <point x="153" y="142" type="curve" smooth="yes"/>
      <point x="129" y="170"/>
      <point x="112" y="202"/>
      <point x="101" y="240" type="curve" smooth="yes"/>
      <point x="90" y="278"/>
      <point x="88" y="318"/>
      <point x="93" y="361" type="curve" smooth="yes"/>
    </contour>
    <contour>
      <point x="331" y="301" type="line"/>
      <point x="358" y="301" type="line" smooth="yes"/>
      <point x="366" y="301"/>
      <point x="373" y="299"/>
      <point x="377" y="297" type="curve" smooth="yes"/>
      <point x="381" y="295"/>
      <point x="384" y="291"/>
      <point x="387" y="286" type="curve"/>
      <point x="442" y="155" type="line" smooth="yes"/>
      <point x="447" y="144"/>
      <point x="457" y="138"/>
      <point x="472" y="138" type="curve" smooth="yes"/>
      <point x="575" y="138" type="line"/>
      <point x="503" y="292" type="line" smooth="yes"/>
      <point x="499" y="301"/>
      <point x="495" y="308"/>
      <point x="491" y="315" type="curve"/>
      <point x="487" y="321"/>
      <point x="481" y="327"/>
      <point x="474" y="331" type="curve"/>
      <point x="508" y="341"/>
      <point x="534" y="358"/>
      <point x="552" y="380" type="curve" smooth="yes"/>
      <point x="570" y="402"/>
      <point x="580" y="428"/>
      <point x="584" y="458" type="curve" smooth="yes"/>
      <point x="589" y="500"/>
      <point x="578" y="532"/>
      <point x="552" y="554" type="curve" smooth="yes"/>
      <point x="526" y="576"/>
      <point x="482" y="587"/>
      <point x="420" y="587" type="curve" smooth="yes"/>
      <point x="259" y="587" type="line"/>
      <point x="204" y="138" type="line"/>
      <point x="311" y="138" type="line"/>
    </contour>
    <contour>
      <point x="340" y="378" type="line"/>
      <point x="356" y="506" type="line"/>
      <point x="410" y="506" type="line" smooth="yes"/>
      <point x="425" y="506"/>
      <point x="437" y="504"/>
      <point x="447" y="502" type="curve" smooth="yes"/>
      <point x="457" y="500"/>
      <point x="463" y="496"/>
      <point x="468" y="491" type="curve" smooth="yes"/>
      <point x="473" y="486"/>
      <point x="476" y="479"/>
      <point x="477" y="471" type="curve" smooth="yes"/>
      <point x="478" y="463"/>
      <point x="478" y="454"/>
      <point x="477" y="444" type="curve" smooth="yes"/>
      <point x="476" y="433"/>
      <point x="473" y="424"/>
      <point x="470" y="416" type="curve" smooth="yes"/>
      <point x="467" y="408"/>
      <point x="462" y="400"/>
      <point x="455" y="394" type="curve" smooth="yes"/>
      <point x="448" y="388"/>
      <point x="438" y="385"/>
      <point x="427" y="382" type="curve" smooth="yes"/>
      <point x="416" y="379"/>
      <point x="402" y="378"/>
      <point x="385" y="378" type="curve" smooth="yes"/>
    </contour>
  </outline>
</glyph>
<glyph name="macron" format="1">
  <advance width="367"/>
  <unicode hex="00AF"/>
  <note>
    macron
  </note>
  <outline>
    <contour>
      <point x="41" y="686" type="line"/>
      <point x="31" y="607" type="line"/>
      <point x="330" y="607" type="line"/>
      <point x="340" y="686" type="line"/>
    </contour>
  </outline>
</glyph>
<glyph name="plusminus" format="1">
  <advance width="579"/>
  <unicode hex="00B1"/>
  <note>
    plusminus
  </note>
  <outline>
    <contour>
      <point x="386" y="620" type="line"/>
      <point x="286" y="620" type="line"/>
      <point x="264" y="444" type="line"/>
      <point x="71" y="444" type="line"/>
      <point x="59" y="352" type="line"/>
      <point x="253" y="352" type="line"/>
      <point x="232" y="181" type="line"/>
      <point x="332" y="181" type="line"/>
      <point x="353" y="352" type="line"/>
      <point x="547" y="352" type="line"/>
      <point x="559" y="444" type="line"/>
      <point x="364" y="444" type="line"/>
    </contour>
    <contour>
      <point x="32" y="132" type="line"/>
      <point x="21" y="40" type="line"/>
      <point x="509" y="40" type="line"/>
      <point x="520" y="132" type="line"/>
    </contour>
  </outline>
</glyph>
<glyph name="twosuperior" format="1">
  <advance width="341"/>
  <unicode hex="00B2"/>
  <note>
    twosuperior
  </note>
  <outline>
    <contour>
      <point x="305" y="555" type="line"/>
      <point x="298" y="555" type="line"/>
      <point x="273" y="555" type="line" smooth="yes"/>
      <point x="265" y="555"/>
      <point x="260" y="551"/>
      <point x="258" y="544" type="curve"/>
      <point x="257" y="542"/>
      <point x="257" y="537"/>
      <point x="255" y="530" type="curve"/>
      <point x="210" y="530" type="line" smooth="yes"/>
      <point x="202" y="530"/>
      <point x="194" y="530"/>
      <point x="185" y="528" type="curve" smooth="yes"/>
      <point x="176" y="526"/>
      <point x="167" y="524"/>
      <point x="157" y="521" type="curve"/>
      <point x="229" y="586" type="line" smooth="yes"/>
      <point x="240" y="596"/>
      <point x="250" y="606"/>
      <point x="260" y="616" type="curve" smooth="yes"/>
      <point x="270" y="626"/>
      <point x="280" y="636"/>
      <point x="288" y="646" type="curve" smooth="yes"/>
      <point x="296" y="656"/>
      <point x="302" y="667"/>
      <point x="308" y="678" type="curve" smooth="yes"/>
      <point x="314" y="689"/>
      <point x="317" y="702"/>
      <point x="319" y="716" type="curve" smooth="yes"/>
      <point x="321" y="731"/>
      <point x="320" y="746"/>
      <point x="316" y="759" type="curve" smooth="yes"/>
      <point x="312" y="772"/>
      <point x="306" y="783"/>
      <point x="297" y="793" type="curve" smooth="yes"/>
      <point x="288" y="803"/>
      <point x="275" y="810"/>
      <point x="261" y="816" type="curve" smooth="yes"/>
      <point x="247" y="822"/>
      <point x="229" y="824"/>
      <point x="210" y="824" type="curve" smooth="yes"/>
      <point x="173" y="824"/>
      <point x="141" y="815"/>
      <point x="114" y="797" type="curve" smooth="yes"/>
      <point x="87" y="779"/>
      <point x="68" y="750"/>
      <point x="58" y="712" type="curve"/>
      <point x="107" y="704" type="line"/>
      <point x="113" y="704" type="line" smooth="yes"/>
      <point x="115" y="704"/>
      <point x="116" y="703"/>
      <point x="118" y="703" type="curve" smooth="yes"/>
      <point x="126" y="703"/>
      <point x="131" y="705"/>
      <point x="136" y="708" type="curve" smooth="yes"/>
      <point x="141" y="711"/>
      <point x="146" y="715"/>
      <point x="150" y="721" type="curve"/>
      <point x="156" y="731"/>
      <point x="162" y="739"/>
      <point x="169" y="745" type="curve" smooth="yes"/>
      <point x="176" y="751"/>
      <point x="186" y="753"/>
      <point x="197" y="753" type="curve" smooth="yes"/>
      <point x="209" y="753"/>
      <point x="217" y="750"/>
      <point x="223" y="742" type="curve" smooth="yes"/>
      <point x="229" y="734"/>
      <point x="230" y="725"/>
      <point x="229" y="713" type="curve"/>
      <point x="228" y="705"/>
      <point x="226" y="697"/>
      <point x="222" y="689" type="curve" smooth="yes"/>
      <point x="218" y="681"/>
      <point x="213" y="673"/>
      <point x="207" y="665" type="curve" smooth="yes"/>
      <point x="201" y="657"/>
      <point x="195" y="648"/>
      <point x="187" y="640" type="curve" smooth="yes"/>
      <point x="179" y="632"/>
      <point x="172" y="624"/>
      <point x="164" y="617" type="curve" smooth="yes"/>
      <point x="46" y="514" type="line" smooth="yes"/>
      <point x="40" y="509"/>
      <point x="36" y="502"/>
      <point x="33" y="496" type="curve" smooth="yes"/>
      <point x="30" y="490"/>
      <point x="29" y="484"/>
      <point x="28" y="478" type="curve" smooth="yes"/>
      <point x="24" y="450" type="line"/>
      <point x="294" y="450" type="line"/>
      <point x="295" y="456" type="line"/>
      <point x="301" y="502" type="line"/>
      <point x="307" y="555" type="line"/>
    </contour>
  </outline>
</glyph>
<glyph name="acute" format="1">
  <advance width="309"/>
  <unicode hex="00B4"/>
  <note>
    acute
  </note>
  <outline>
    <contour>
      <point x="284" y="731" type="line"/>
      <point x="164" y="731" type="line" smooth="yes"/>
      <point x="151" y="731"/>
      <point x="140" y="728"/>
      <point x="133" y="724" type="curve" smooth="yes"/>
      <point x="126" y="720"/>
      <point x="119" y="713"/>
      <point x="113" y="704" type="curve" smooth="yes"/>
      <point x="27" y="583" type="line"/>
      <point x="101" y="583" type="line" smooth="yes"/>
      <point x="110" y="583"/>
      <point x="118" y="585"/>
      <point x="124" y="587" type="curve" smooth="yes"/>
      <point x="130" y="589"/>
      <point x="137" y="593"/>
      <point x="144" y="600" type="curve" smooth="yes"/>
    </contour>
  </outline>
</glyph>
<glyph name="paragraph" format="1">
  <advance width="737"/>
  <unicode hex="00B6"/>
  <note>
    paragraph
  </note>
  <outline>
    <contour>
      <point x="717" y="723" type="line"/>
      <point x="276" y="723" type="line" smooth="yes"/>
      <point x="241" y="723"/>
      <point x="209" y="718"/>
      <point x="180" y="708" type="curve" smooth="yes"/>
      <point x="151" y="698"/>
      <point x="125" y="684"/>
      <point x="103" y="666" type="curve" smooth="yes"/>
      <point x="81" y="648"/>
      <point x="63" y="627"/>
      <point x="49" y="602" type="curve" smooth="yes"/>
      <point x="35" y="577"/>
      <point x="27" y="548"/>
      <point x="23" y="518" type="curve" smooth="yes"/>
      <point x="20" y="490"/>
      <point x="22" y="465"/>
      <point x="30" y="440" type="curve" smooth="yes"/>
      <point x="38" y="415"/>
      <point x="50" y="393"/>
      <point x="68" y="375" type="curve" smooth="yes"/>
      <point x="86" y="357"/>
      <point x="107" y="342"/>
      <point x="134" y="331" type="curve" smooth="yes"/>
      <point x="161" y="320"/>
      <point x="191" y="315"/>
      <point x="226" y="315" type="curve"/>
      <point x="175" y="-104" type="line"/>
      <point x="283" y="-104" type="line"/>
      <point x="371" y="620" type="line"/>
      <point x="489" y="620" type="line"/>
      <point x="400" y="-104" type="line"/>
      <point x="508" y="-104" type="line"/>
      <point x="597" y="620" type="line"/>
      <point x="704" y="620" type="line"/>
    </contour>
  </outline>
</glyph>
<glyph name="cedilla" format="1">
  <advance width="265"/>
  <unicode hex="00B8"/>
  <note>
    cedilla
  </note>
  <outline>
    <contour>
      <point x="55" y="-114"/>
      <point x="49" y="-117"/>
      <point x="46" y="-125" type="curve"/>
      <point x="30" y="-163" type="line"/>
      <point x="41" y="-167"/>
      <point x="52" y="-170"/>
      <point x="64" y="-172" type="curve" smooth="yes"/>
      <point x="76" y="-174"/>
      <point x="88" y="-174"/>
      <point x="102" y="-174" type="curve" smooth="yes"/>
      <point x="120" y="-174"/>
      <point x="137" y="-173"/>
      <point x="152" y="-169" type="curve" smooth="yes"/>
      <point x="167" y="-165"/>
      <point x="182" y="-160"/>
      <point x="193" y="-154" type="curve" smooth="yes"/>
      <point x="204" y="-148"/>
      <point x="213" y="-141"/>
      <point x="220" y="-132" type="curve" smooth="yes"/>
      <point x="227" y="-123"/>
      <point x="232" y="-113"/>
      <point x="233" y="-102" type="curve" smooth="yes"/>
      <point x="235" y="-85"/>
      <point x="230" y="-69"/>
      <point x="220" y="-57" type="curve" smooth="yes"/>
      <point x="210" y="-45"/>
      <point x="190" y="-35"/>
      <point x="161" y="-28" type="curve"/>
      <point x="175" y="7" type="line"/>
      <point x="98" y="7" type="line"/>
      <point x="67" y="-67" type="line"/>
      <point x="92" y="-70"/>
      <point x="110" y="-74"/>
      <point x="121" y="-78" type="curve" smooth="yes"/>
      <point x="132" y="-82"/>
      <point x="137" y="-89"/>
      <point x="136" y="-99" type="curve"/>
      <point x="135" y="-105"/>
      <point x="132" y="-110"/>
      <point x="126" y="-114" type="curve" smooth="yes"/>
      <point x="120" y="-118"/>
      <point x="112" y="-120"/>
      <point x="101" y="-120" type="curve" smooth="yes"/>
      <point x="96" y="-120"/>
      <point x="91" y="-121"/>
      <point x="87" y="-120" type="curve" smooth="yes"/>
      <point x="83" y="-119"/>
      <point x="80" y="-118"/>
      <point x="77" y="-117" type="curve" smooth="yes"/>
      <point x="74" y="-116"/>
      <point x="71" y="-115"/>
      <point x="69" y="-114" type="curve" smooth="yes"/>
      <point x="67" y="-113"/>
      <point x="64" y="-114"/>
      <point x="62" y="-114" type="curve" smooth="yes"/>
    </contour>
  </outline>
</glyph>
<glyph name="guillemotright" format="1">
  <advance width="421"/>
  <unicode hex="00BB"/>
  <note>
    guillemotright
  </note>
  <outline>
    <contour>
      <point x="78" y="63" type="line"/>
      <point x="230" y="261" type="line"/>
      <point x="232" y="277" type="line"/>
      <point x="129" y="475" type="line"/>
      <point x="86" y="456" type="line" smooth="yes"/>
      <point x="73" y="450"/>
      <point x="65" y="441"/>
      <point x="64" y="429" type="curve"/>
      <point x="63" y="422"/>
      <point x="64" y="415"/>
      <point x="67" y="408" type="curve" smooth="yes"/>
      <point x="122" y="290" type="line" smooth="yes"/>
      <point x="126" y="281"/>
      <point x="130" y="274"/>
      <point x="135" y="269" type="curve"/>
      <point x="129" y="264"/>
      <point x="123" y="257"/>
      <point x="117" y="248" type="curve" smooth="yes"/>
      <point x="33" y="130" type="line" smooth="yes"/>
      <point x="28" y="123"/>
      <point x="25" y="116"/>
      <point x="24" y="109" type="curve" smooth="yes"/>
      <point x="23" y="103"/>
      <point x="25" y="99"/>
      <point x="27" y="94" type="curve" smooth="yes"/>
      <point x="29" y="89"/>
      <point x="34" y="85"/>
      <point x="40" y="82" type="curve" smooth="yes"/>
    </contour>
    <contour>
      <point x="243" y="63" type="line"/>
      <point x="395" y="261" type="line"/>
      <point x="397" y="277" type="line"/>
      <point x="293" y="475" type="line"/>
      <point x="250" y="456" type="line" smooth="yes"/>
      <point x="237" y="450"/>
      <point x="229" y="441"/>
      <point x="228" y="429" type="curve"/>
      <point x="227" y="422"/>
      <point x="229" y="415"/>
      <point x="232" y="408" type="curve" smooth="yes"/>
      <point x="286" y="290" type="line" smooth="yes"/>
      <point x="290" y="281"/>
      <point x="295" y="274"/>
      <point x="300" y="269" type="curve"/>
      <point x="294" y="264"/>
      <point x="287" y="257"/>
      <point x="281" y="248" type="curve" smooth="yes"/>
      <point x="198" y="130" type="line" smooth="yes"/>
      <point x="193" y="123"/>
      <point x="190" y="116"/>
      <point x="189" y="109" type="curve" smooth="yes"/>
      <point x="188" y="103"/>
      <point x="189" y="99"/>
      <point x="191" y="94" type="curve" smooth="yes"/>
      <point x="193" y="89"/>
      <point x="198" y="85"/>
      <point x="204" y="82" type="curve" smooth="yes"/>
    </contour>
  </outline>
</glyph>
<glyph name="onehalf" format="1">
  <advance width="669"/>
  <unicode hex="00BD"/>
  <note>
    onehalf
  </note>
  <outline>
    <contour>
      <point x="632" y="105" type="line"/>
      <point x="625" y="105" type="line"/>
      <point x="600" y="105" type="line" smooth="yes"/>
      <point x="592" y="105"/>
      <point x="587" y="101"/>
      <point x="585" y="94" type="curve"/>
      <point x="584" y="92"/>
      <point x="584" y="87"/>
      <point x="582" y="80" type="curve"/>
      <point x="537" y="80" type="line" smooth="yes"/>
      <point x="529" y="80"/>
      <point x="521" y="80"/>
      <point x="512" y="78" type="curve" smooth="yes"/>
      <point x="503" y="76"/>
      <point x="494" y="74"/>
      <point x="484" y="71" type="curve"/>
      <point x="556" y="136" type="line" smooth="yes"/>
      <point x="567" y="146"/>
      <point x="577" y="156"/>
      <point x="587" y="166" type="curve" smooth="yes"/>
      <point x="597" y="176"/>
      <point x="607" y="186"/>
      <point x="615" y="196" type="curve" smooth="yes"/>
      <point x="623" y="206"/>
      <point x="629" y="217"/>
      <point x="635" y="228" type="curve" smooth="yes"/>
      <point x="641" y="239"/>
      <point x="644" y="252"/>
      <point x="646" y="266" type="curve" smooth="yes"/>
      <point x="648" y="281"/>
      <point x="647" y="296"/>
      <point x="643" y="309" type="curve" smooth="yes"/>
      <point x="639" y="322"/>
      <point x="633" y="333"/>
      <point x="624" y="343" type="curve" smooth="yes"/>
      <point x="615" y="353"/>
      <point x="602" y="360"/>
      <point x="588" y="366" type="curve" smooth="yes"/>
      <point x="574" y="372"/>
      <point x="556" y="374"/>
      <point x="537" y="374" type="curve" smooth="yes"/>
      <point x="500" y="374"/>
      <point x="468" y="365"/>
      <point x="441" y="347" type="curve" smooth="yes"/>
      <point x="414" y="329"/>
      <point x="395" y="300"/>
      <point x="385" y="262" type="curve"/>
      <point x="434" y="254" type="line"/>
      <point x="440" y="254" type="line" smooth="yes"/>
      <point x="442" y="254"/>
      <point x="443" y="253"/>
      <point x="445" y="253" type="curve" smooth="yes"/>
      <point x="453" y="253"/>
      <point x="458" y="255"/>
      <point x="463" y="258" type="curve" smooth="yes"/>
      <point x="468" y="261"/>
      <point x="473" y="265"/>
      <point x="477" y="271" type="curve"/>
      <point x="483" y="281"/>
      <point x="489" y="290"/>
      <point x="496" y="295" type="curve"/>
      <point x="503" y="301"/>
      <point x="513" y="303"/>
      <point x="524" y="303" type="curve" smooth="yes"/>
      <point x="536" y="303"/>
      <point x="544" y="300"/>
      <point x="550" y="292" type="curve" smooth="yes"/>
      <point x="556" y="284"/>
      <point x="557" y="275"/>
      <point x="556" y="263" type="curve"/>
      <point x="555" y="255"/>
      <point x="553" y="247"/>
      <point x="549" y="239" type="curve" smooth="yes"/>
      <point x="545" y="231"/>
      <point x="540" y="223"/>
      <point x="534" y="215" type="curve" smooth="yes"/>
      <point x="528" y="207"/>
      <point x="522" y="198"/>
      <point x="514" y="190" type="curve" smooth="yes"/>
      <point x="506" y="182"/>
      <point x="498" y="174"/>
      <point x="490" y="167" type="curve" smooth="yes"/>
      <point x="373" y="64" type="line" smooth="yes"/>
      <point x="367" y="59"/>
      <point x="363" y="52"/>
      <point x="360" y="46" type="curve" smooth="yes"/>
      <point x="357" y="40"/>
      <point x="355" y="35"/>
      <point x="354" y="29" type="curve"/>
      <point x="351" y="0" type="line"/>
      <point x="621" y="0" type="line"/>
      <point x="622" y="6" type="line"/>
      <point x="628" y="52" type="line"/>
      <point x="634" y="105" type="line"/>
    </contour>
    <contour>
      <point x="643" y="723" type="line"/>
      <point x="591" y="723" type="line" smooth="yes"/>
      <point x="576" y="723"/>
      <point x="562" y="719"/>
      <point x="551" y="712" type="curve" smooth="yes"/>
      <point x="540" y="705"/>
      <point x="530" y="696"/>
      <point x="521" y="683" type="curve" smooth="yes"/>
      <point x="20" y="0" type="line"/>
      <point x="73" y="0" type="line" smooth="yes"/>
      <point x="86" y="0"/>
      <point x="98" y="3"/>
      <point x="108" y="8" type="curve" smooth="yes"/>
      <point x="118" y="13"/>
      <point x="129" y="22"/>
      <point x="139" y="36" type="curve" smooth="yes"/>
    </contour>
    <contour>
      <point x="49" y="410" type="line"/>
      <point x="42" y="353" type="line"/>
      <point x="257" y="353" type="line"/>
      <point x="264" y="410" type="line"/>
      <point x="207" y="410" type="line"/>
      <point x="245" y="724" type="line"/>
      <point x="171" y="724" type="line"/>
      <point x="42" y="627" type="line"/>
      <point x="65" y="589" type="line"/>
      <point x="66" y="586"/>
      <point x="69" y="584"/>
      <point x="73" y="582" type="curve" smooth="yes"/>
      <point x="77" y="580"/>
      <point x="81" y="579"/>
      <point x="86" y="579" type="curve" smooth="yes"/>
      <point x="92" y="579"/>
      <point x="98" y="581"/>
      <point x="104" y="585" type="curve"/>
      <point x="146" y="616" type="line"/>
      <point x="140" y="590" type="line"/>
      <point x="118" y="410" type="line"/>
    </contour>
  </outline>
</glyph>
<glyph name="threequarters" format="1">
  <advance width="696"/>
  <unicode hex="00BE"/>
  <note>
    threequarters
  </note>
  <outline>
    <contour>
      <point x="676" y="723" type="line"/>
      <point x="624" y="723" type="line" smooth="yes"/>
      <point x="609" y="723"/>
      <point x="595" y="719"/>
      <point x="584" y="712" type="curve" smooth="yes"/>
      <point x="573" y="705"/>
      <point x="563" y="695"/>
      <point x="554" y="682" type="curve" smooth="yes"/>
      <point x="53" y="0" type="line"/>
      <point x="106" y="0" type="line" smooth="yes"/>
      <point x="119" y="0"/>
      <point x="130" y="3"/>
      <point x="140" y="8" type="curve" smooth="yes"/>
      <point x="150" y="13"/>
      <point x="162" y="22"/>
      <point x="172" y="36" type="curve" smooth="yes"/>
    </contour>
    <contour>
      <point x="616" y="141" type="line"/>
      <point x="644" y="370" type="line"/>
      <point x="558" y="370" type="line"/>
      <point x="362" y="137" type="line"/>
      <point x="365" y="99" type="line"/>
      <point x="365" y="94"/>
      <point x="368" y="90"/>
      <point x="372" y="86" type="curve" smooth="yes"/>
      <point x="376" y="82"/>
      <point x="382" y="80"/>
      <point x="390" y="80" type="curve" smooth="yes"/>
      <point x="534" y="80" type="line"/>
      <point x="524" y="0" type="line"/>
      <point x="598" y="0" type="line"/>
      <point x="608" y="80" type="line"/>
      <point x="638" y="80" type="line" smooth="yes"/>
      <point x="643" y="80"/>
      <point x="648" y="83"/>
      <point x="651" y="86" type="curve" smooth="yes"/>
      <point x="654" y="89"/>
      <point x="656" y="93"/>
      <point x="657" y="97" type="curve"/>
      <point x="663" y="141" type="line"/>
    </contour>
    <contour>
      <point x="181" y="728"/>
      <point x="165" y="725"/>
      <point x="149" y="721" type="curve" smooth="yes"/>
      <point x="133" y="717"/>
      <point x="120" y="709"/>
      <point x="107" y="700" type="curve" smooth="yes"/>
      <point x="94" y="691"/>
      <point x="83" y="679"/>
      <point x="73" y="665" type="curve" smooth="yes"/>
      <point x="63" y="651"/>
      <point x="56" y="634"/>
      <point x="51" y="615" type="curve"/>
      <point x="96" y="608" type="line"/>
      <point x="101" y="607"/>
      <point x="105" y="606"/>
      <point x="109" y="606" type="curve" smooth="yes"/>
      <point x="116" y="606"/>
      <point x="121" y="608"/>
      <point x="125" y="611" type="curve" smooth="yes"/>
      <point x="129" y="614"/>
      <point x="134" y="619"/>
      <point x="138" y="626" type="curve" smooth="yes"/>
      <point x="143" y="635"/>
      <point x="149" y="642"/>
      <point x="156" y="647" type="curve" smooth="yes"/>
      <point x="163" y="652"/>
      <point x="173" y="655"/>
      <point x="185" y="655" type="curve" smooth="yes"/>
      <point x="198" y="655"/>
      <point x="207" y="651"/>
      <point x="213" y="644" type="curve" smooth="yes"/>
      <point x="219" y="637"/>
      <point x="221" y="627"/>
      <point x="219" y="615" type="curve" smooth="yes"/>
      <point x="218" y="608"/>
      <point x="216" y="602"/>
      <point x="213" y="596" type="curve" smooth="yes"/>
      <point x="210" y="590"/>
      <point x="206" y="586"/>
      <point x="200" y="582" type="curve" smooth="yes"/>
      <point x="194" y="578"/>
      <point x="187" y="575"/>
      <point x="178" y="573" type="curve" smooth="yes"/>
      <point x="169" y="571"/>
      <point x="157" y="569"/>
      <point x="143" y="569" type="curve"/>
      <point x="136" y="511" type="line"/>
      <point x="150" y="511"/>
      <point x="162" y="511"/>
      <point x="171" y="509" type="curve" smooth="yes"/>
      <point x="180" y="507"/>
      <point x="187" y="505"/>
      <point x="192" y="501" type="curve" smooth="yes"/>
      <point x="197" y="497"/>
      <point x="200" y="493"/>
      <point x="202" y="487" type="curve" smooth="yes"/>
      <point x="204" y="481"/>
      <point x="204" y="473"/>
      <point x="203" y="464" type="curve" smooth="yes"/>
      <point x="202" y="452"/>
      <point x="196" y="442"/>
      <point x="187" y="434" type="curve" smooth="yes"/>
      <point x="178" y="426"/>
      <point x="166" y="422"/>
      <point x="151" y="422" type="curve" smooth="yes"/>
      <point x="144" y="422"/>
      <point x="138" y="423"/>
      <point x="133" y="425" type="curve" smooth="yes"/>
      <point x="128" y="427"/>
      <point x="124" y="430"/>
      <point x="120" y="433" type="curve" smooth="yes"/>
      <point x="116" y="436"/>
      <point x="113" y="439"/>
      <point x="111" y="443" type="curve" smooth="yes"/>
      <point x="109" y="447"/>
      <point x="108" y="451"/>
      <point x="106" y="455" type="curve"/>
      <point x="102" y="464"/>
      <point x="94" y="469"/>
      <point x="82" y="469" type="curve" smooth="yes"/>
      <point x="76" y="469"/>
      <point x="69" y="468"/>
      <point x="61" y="465" type="curve" smooth="yes"/>
      <point x="21" y="450" type="line"/>
      <point x="25" y="431"/>
      <point x="30" y="415"/>
      <point x="37" y="402" type="curve" smooth="yes"/>
      <point x="44" y="389"/>
      <point x="53" y="379"/>
      <point x="63" y="371" type="curve" smooth="yes"/>
      <point x="73" y="363"/>
      <point x="85" y="358"/>
      <point x="99" y="354" type="curve" smooth="yes"/>
      <point x="113" y="350"/>
      <point x="129" y="349"/>
      <point x="147" y="349" type="curve" smooth="yes"/>
      <point x="163" y="349"/>
      <point x="179" y="351"/>
      <point x="195" y="356" type="curve" smooth="yes"/>
      <point x="211" y="361"/>
      <point x="226" y="368"/>
      <point x="240" y="378" type="curve" smooth="yes"/>
      <point x="254" y="388"/>
      <point x="265" y="400"/>
      <point x="274" y="415" type="curve" smooth="yes"/>
      <point x="283" y="430"/>
      <point x="289" y="447"/>
      <point x="292" y="468" type="curve"/>
      <point x="294" y="488"/>
      <point x="292" y="504"/>
      <point x="283" y="516" type="curve" smooth="yes"/>
      <point x="274" y="528"/>
      <point x="260" y="537"/>
      <point x="241" y="544" type="curve"/>
      <point x="261" y="552"/>
      <point x="276" y="564"/>
      <point x="286" y="578" type="curve" smooth="yes"/>
      <point x="296" y="592"/>
      <point x="303" y="610"/>
      <point x="306" y="631" type="curve" smooth="yes"/>
      <point x="308" y="643"/>
      <point x="306" y="655"/>
      <point x="302" y="667" type="curve" smooth="yes"/>
      <point x="298" y="679"/>
      <point x="291" y="688"/>
      <point x="282" y="697" type="curve" smooth="yes"/>
      <point x="273" y="706"/>
      <point x="262" y="713"/>
      <point x="248" y="719" type="curve" smooth="yes"/>
      <point x="234" y="725"/>
      <point x="217" y="728"/>
      <point x="198" y="728" type="curve" smooth="yes"/>
    </contour>
    <contour>
      <point x="542" y="141" type="line"/>
      <point x="444" y="141" type="line"/>
      <point x="562" y="279" type="line"/>
      <point x="559" y="269"/>
      <point x="558" y="259"/>
      <point x="556" y="250" type="curve" smooth="yes"/>
      <point x="554" y="241"/>
      <point x="553" y="233"/>
      <point x="552" y="225" type="curve" smooth="yes"/>
    </contour>
  </outline>
</glyph>
<glyph name="questiondown" format="1">
  <advance width="420"/>
  <unicode hex="00BF"/>
  <note>
    questiondown
  </note>
  <outline>
    <contour>
      <point x="372" y="-50" type="line"/>
      <point x="368" y="-40"/>
      <point x="360" y="-34"/>
      <point x="348" y="-34" type="curve" smooth="yes"/>
      <point x="343" y="-34"/>
      <point x="337" y="-37"/>
      <point x="330" y="-41" type="curve" smooth="yes"/>
      <point x="323" y="-45"/>
      <point x="315" y="-50"/>
      <point x="305" y="-55" type="curve" smooth="yes"/>
      <point x="295" y="-60"/>
      <point x="284" y="-65"/>
      <point x="270" y="-69" type="curve" smooth="yes"/>
      <point x="256" y="-73"/>
      <point x="240" y="-76"/>
      <point x="221" y="-76" type="curve" smooth="yes"/>
      <point x="208" y="-76"/>
      <point x="196" y="-74"/>
      <point x="185" y="-70" type="curve" smooth="yes"/>
      <point x="174" y="-66"/>
      <point x="166" y="-61"/>
      <point x="159" y="-54" type="curve" smooth="yes"/>
      <point x="152" y="-47"/>
      <point x="146" y="-40"/>
      <point x="143" y="-30" type="curve" smooth="yes"/>
      <point x="140" y="-20"/>
      <point x="139" y="-10"/>
      <point x="140" y="2" type="curve" smooth="yes"/>
      <point x="142" y="19"/>
      <point x="148" y="34"/>
      <point x="157" y="46" type="curve" smooth="yes"/>
      <point x="166" y="58"/>
      <point x="176" y="68"/>
      <point x="188" y="77" type="curve" smooth="yes"/>
      <point x="200" y="86"/>
      <point x="213" y="94"/>
      <point x="227" y="101" type="curve" smooth="yes"/>
      <point x="241" y="108"/>
      <point x="253" y="116"/>
      <point x="265" y="124" type="curve" smooth="yes"/>
      <point x="277" y="132"/>
      <point x="287" y="142"/>
      <point x="296" y="152" type="curve" smooth="yes"/>
      <point x="305" y="162"/>
      <point x="309" y="175"/>
      <point x="311" y="190" type="curve"/>
      <point x="312" y="195" type="line"/>
      <point x="312" y="200" type="line"/>
      <point x="314" y="281" type="line"/>
      <point x="229" y="281" type="line"/>
      <point x="209" y="209" type="line" smooth="yes"/>
      <point x="206" y="198"/>
      <point x="199" y="189"/>
      <point x="190" y="181" type="curve" smooth="yes"/>
      <point x="181" y="173"/>
      <point x="170" y="166"/>
      <point x="157" y="158" type="curve" smooth="yes"/>
      <point x="144" y="150"/>
      <point x="131" y="142"/>
      <point x="117" y="133" type="curve" smooth="yes"/>
      <point x="103" y="124"/>
      <point x="89" y="113"/>
      <point x="76" y="101" type="curve" smooth="yes"/>
      <point x="63" y="89"/>
      <point x="53" y="74"/>
      <point x="43" y="56" type="curve" smooth="yes"/>
      <point x="33" y="38"/>
      <point x="27" y="17"/>
      <point x="24" y="-8" type="curve" smooth="yes"/>
      <point x="21" y="-34"/>
      <point x="22" y="-58"/>
      <point x="29" y="-78" type="curve" smooth="yes"/>
      <point x="36" y="-98"/>
      <point x="48" y="-116"/>
      <point x="63" y="-130" type="curve" smooth="yes"/>
      <point x="78" y="-144"/>
      <point x="97" y="-155"/>
      <point x="120" y="-163" type="curve" smooth="yes"/>
      <point x="143" y="-171"/>
      <point x="169" y="-175"/>
      <point x="198" y="-175" type="curve" smooth="yes"/>
      <point x="219" y="-175"/>
      <point x="239" y="-173"/>
      <point x="258" y="-169" type="curve" smooth="yes"/>
      <point x="277" y="-165"/>
      <point x="294" y="-160"/>
      <point x="311" y="-153" type="curve" smooth="yes"/>
      <point x="328" y="-146"/>
      <point x="342" y="-139"/>
      <point x="357" y="-130" type="curve" smooth="yes"/>
      <point x="372" y="-121"/>
      <point x="386" y="-112"/>
      <point x="399" y="-102" type="curve"/>
    </contour>
    <contour>
      <point x="217" y="435"/>
      <point x="217" y="425"/>
      <point x="220" y="416" type="curve" smooth="yes"/>
      <point x="223" y="407"/>
      <point x="227" y="400"/>
      <point x="233" y="393" type="curve" smooth="yes"/>
      <point x="239" y="386"/>
      <point x="246" y="381"/>
      <point x="255" y="377" type="curve" smooth="yes"/>
      <point x="264" y="373"/>
      <point x="274" y="371"/>
      <point x="285" y="371" type="curve" smooth="yes"/>
      <point x="295" y="371"/>
      <point x="305" y="373"/>
      <point x="315" y="377" type="curve" smooth="yes"/>
      <point x="325" y="381"/>
      <point x="334" y="386"/>
      <point x="341" y="393" type="curve" smooth="yes"/>
      <point x="348" y="400"/>
      <point x="355" y="407"/>
      <point x="360" y="416" type="curve" smooth="yes"/>
      <point x="365" y="425"/>
      <point x="368" y="435"/>
      <point x="369" y="446" type="curve" smooth="yes"/>
      <point x="370" y="456"/>
      <point x="370" y="467"/>
      <point x="367" y="476" type="curve" smooth="yes"/>
      <point x="364" y="485"/>
      <point x="360" y="493"/>
      <point x="354" y="500" type="curve" smooth="yes"/>
      <point x="348" y="507"/>
      <point x="341" y="512"/>
      <point x="332" y="516" type="curve" smooth="yes"/>
      <point x="323" y="520"/>
      <point x="313" y="522"/>
      <point x="303" y="522" type="curve" smooth="yes"/>
      <point x="292" y="522"/>
      <point x="282" y="520"/>
      <point x="272" y="516" type="curve" smooth="yes"/>
      <point x="262" y="512"/>
      <point x="254" y="507"/>
      <point x="246" y="500" type="curve" smooth="yes"/>
      <point x="238" y="493"/>
      <point x="232" y="485"/>
      <point x="227" y="476" type="curve" smooth="yes"/>
      <point x="222" y="467"/>
      <point x="219" y="456"/>
      <point x="218" y="446" type="curve" smooth="yes"/>
    </contour>
  </outline>
</glyph>
<glyph name="Agrave" format="1">
  <advance width="823"/>
  <unicode hex="00C0"/>
  <note>
    Agrave
  </note>
  <outline>
    <contour>
      <point x="780" y="79"/>
      <point x="763" y="87"/>
      <point x="733" y="100" type="curve"/>
      <point x="565" y="723" type="line"/>
      <point x="427" y="723" type="line"/>
      <point x="106" y="100" type="line"/>
      <point x="73" y="87"/>
      <point x="54" y="79"/>
      <point x="48" y="77" type="curve"/>
      <point x="34" y="71"/>
      <point x="26" y="63"/>
      <point x="25" y="51" type="curve" smooth="yes"/>
      <point x="19" y="0" type="line"/>
      <point x="54" y="0" type="line"/>
      <point x="133" y="0" type="line"/>
      <point x="149" y="0" type="line"/>
      <point x="159" y="0" type="line"/>
      <point x="263" y="0" type="line"/>
      <point x="270" y="51" type="line"/>
      <point x="271" y="63"/>
      <point x="266" y="71"/>
      <point x="253" y="77" type="curve" smooth="yes"/>
      <point x="251" y="78"/>
      <point x="244" y="80"/>
      <point x="234" y="85" type="curve"/>
      <point x="237" y="91" type="line"/>
      <point x="287" y="194" type="line"/>
      <point x="575" y="194" type="line"/>
      <point x="599" y="96" type="line"/>
      <point x="601" y="85" type="line"/>
      <point x="590" y="80"/>
      <point x="583" y="78"/>
      <point x="580" y="77" type="curve"/>
      <point x="566" y="71"/>
      <point x="558" y="63"/>
      <point x="557" y="51" type="curve" smooth="yes"/>
      <point x="551" y="0" type="line"/>
      <point x="656" y="0" type="line"/>
      <point x="665" y="0" type="line"/>
      <point x="682" y="0" type="line"/>
      <point x="760" y="0" type="line"/>
      <point x="795" y="0" type="line"/>
      <point x="802" y="51" type="line"/>
      <point x="803" y="63"/>
      <point x="798" y="72"/>
      <point x="785" y="77" type="curve" smooth="yes"/>
    </contour>
    <contour>
      <point x="443" y="513" type="line"/>
      <point x="449" y="524"/>
      <point x="455" y="536"/>
      <point x="461" y="551" type="curve" smooth="yes"/>
      <point x="467" y="566"/>
      <point x="473" y="581"/>
      <point x="480" y="598" type="curve"/>
      <point x="483" y="581"/>
      <point x="486" y="565"/>
      <point x="489" y="551" type="curve" smooth="yes"/>
      <point x="492" y="537"/>
      <point x="495" y="524"/>
      <point x="498" y="513" type="curve" smooth="yes"/>
      <point x="552" y="289" type="line"/>
      <point x="333" y="289" type="line"/>
    </contour>
    <contour>
      <point x="308" y="896" type="line"/>
      <point x="444" y="786" type="line"/>
      <point x="447" y="783"/>
      <point x="450" y="782"/>
      <point x="453" y="780" type="curve" smooth="yes"/>
      <point x="456" y="778"/>
      <point x="458" y="777"/>
      <point x="461" y="776" type="curve" smooth="yes"/>
      <point x="464" y="775"/>
      <point x="468" y="775"/>
      <point x="471" y="775" type="curve" smooth="yes"/>
      <point x="474" y="775"/>
      <point x="478" y="774"/>
      <point x="483" y="774" type="curve" smooth="yes"/>
      <point x="581" y="774" type="line"/>
      <point x="494" y="876" type="line"/>
      <point x="490" y="880"/>
      <point x="488" y="883"/>
      <point x="485" y="886" type="curve" smooth="yes"/>
      <point x="482" y="889"/>
      <point x="479" y="890"/>
      <point x="475" y="892" type="curve" smooth="yes"/>
      <point x="471" y="894"/>
      <point x="467" y="895"/>
      <point x="462" y="895" type="curve" smooth="yes"/>
      <point x="457" y="895"/>
      <point x="452" y="896"/>
      <point x="445" y="896" type="curve" smooth="yes"/>
    </contour>
  </outline>
</glyph>
<glyph name="Aacute" format="1">
  <advance width="823"/>
  <unicode hex="00C1"/>
  <note>
    Aacute
  </note>
  <outline>
    <contour>
      <point x="780" y="79"/>
      <point x="763" y="87"/>
      <point x="733" y="100" type="curve"/>
      <point x="565" y="723" type="line"/>
      <point x="427" y="723" type="line"/>
      <point x="106" y="100" type="line"/>
      <point x="73" y="87"/>
      <point x="54" y="79"/>
      <point x="48" y="77" type="curve"/>
      <point x="34" y="71"/>
      <point x="26" y="63"/>
      <point x="25" y="51" type="curve" smooth="yes"/>
      <point x="19" y="0" type="line"/>
      <point x="54" y="0" type="line"/>
      <point x="133" y="0" type="line"/>
      <point x="149" y="0" type="line"/>
      <point x="159" y="0" type="line"/>
      <point x="263" y="0" type="line"/>
      <point x="270" y="51" type="line"/>
      <point x="271" y="63"/>
      <point x="266" y="71"/>
      <point x="253" y="77" type="curve" smooth="yes"/>
      <point x="251" y="78"/>
      <point x="244" y="80"/>
      <point x="234" y="85" type="curve"/>
      <point x="237" y="91" type="line"/>
      <point x="287" y="194" type="line"/>
      <point x="575" y="194" type="line"/>
      <point x="599" y="96" type="line"/>
      <point x="601" y="85" type="line"/>
      <point x="590" y="80"/>
      <point x="583" y="78"/>
      <point x="580" y="77" type="curve"/>
      <point x="566" y="71"/>
      <point x="558" y="63"/>
      <point x="557" y="51" type="curve" smooth="yes"/>
      <point x="551" y="0" type="line"/>
      <point x="656" y="0" type="line"/>
      <point x="665" y="0" type="line"/>
      <point x="682" y="0" type="line"/>
      <point x="760" y="0" type="line"/>
      <point x="795" y="0" type="line"/>
      <point x="802" y="51" type="line"/>
      <point x="803" y="63"/>
      <point x="798" y="72"/>
      <point x="785" y="77" type="curve" smooth="yes"/>
    </contour>
    <contour>
      <point x="443" y="513" type="line"/>
      <point x="449" y="524"/>
      <point x="455" y="536"/>
      <point x="461" y="551" type="curve" smooth="yes"/>
      <point x="467" y="566"/>
      <point x="473" y="581"/>
      <point x="480" y="598" type="curve"/>
      <point x="483" y="581"/>
      <point x="486" y="565"/>
      <point x="489" y="551" type="curve" smooth="yes"/>
      <point x="492" y="537"/>
      <point x="495" y="524"/>
      <point x="498" y="513" type="curve" smooth="yes"/>
      <point x="552" y="289" type="line"/>
      <point x="333" y="289" type="line"/>
    </contour>
    <contour>
      <point x="709" y="896" type="line"/>
      <point x="571" y="896" type="line" smooth="yes"/>
      <point x="564" y="896"/>
      <point x="559" y="895"/>
      <point x="554" y="895" type="curve" smooth="yes"/>
      <point x="549" y="895"/>
      <point x="545" y="894"/>
      <point x="541" y="892" type="curve"/>
      <point x="537" y="891"/>
      <point x="534" y="889"/>
      <point x="530" y="886" type="curve" smooth="yes"/>
      <point x="526" y="883"/>
      <point x="521" y="879"/>
      <point x="517" y="875" type="curve"/>
      <point x="407" y="774" type="line"/>
      <point x="504" y="774" type="line" smooth="yes"/>
      <point x="509" y="774"/>
      <point x="512" y="775"/>
      <point x="516" y="775" type="curve" smooth="yes"/>
      <point x="520" y="775"/>
      <point x="524" y="776"/>
      <point x="527" y="777" type="curve" smooth="yes"/>
      <point x="530" y="778"/>
      <point x="534" y="779"/>
      <point x="537" y="781" type="curve" smooth="yes"/>
      <point x="540" y="783"/>
      <point x="544" y="784"/>
      <point x="548" y="787" type="curve"/>
    </contour>
  </outline>
</glyph>
<glyph name="Atilde" format="1">
  <advance width="823"/>
  <unicode hex="00C3"/>
  <note>
    Atilde
  </note>
  <outline>
    <contour>
      <point x="780" y="79"/>
      <point x="763" y="87"/>
      <point x="733" y="100" type="curve"/>
      <point x="565" y="723" type="line"/>
      <point x="427" y="723" type="line"/>
      <point x="106" y="100" type="line"/>
      <point x="73" y="87"/>
      <point x="54" y="79"/>
      <point x="48" y="77" type="curve"/>
      <point x="34" y="71"/>
      <point x="26" y="63"/>
      <point x="25" y="51" type="curve" smooth="yes"/>
      <point x="19" y="0" type="line"/>
      <point x="54" y="0" type="line"/>
      <point x="133" y="0" type="line"/>
      <point x="149" y="0" type="line"/>
      <point x="159" y="0" type="line"/>
      <point x="263" y="0" type="line"/>
      <point x="270" y="51" type="line"/>
      <point x="271" y="63"/>
      <point x="266" y="71"/>
      <point x="253" y="77" type="curve" smooth="yes"/>
      <point x="251" y="78"/>
      <point x="244" y="80"/>
      <point x="234" y="85" type="curve"/>
      <point x="237" y="91" type="line"/>
      <point x="287" y="194" type="line"/>
      <point x="575" y="194" type="line"/>
      <point x="599" y="96" type="line"/>
      <point x="601" y="85" type="line"/>
      <point x="590" y="80"/>
      <point x="583" y="78"/>
      <point x="580" y="77" type="curve"/>
      <point x="566" y="71"/>
      <point x="558" y="63"/>
      <point x="557" y="51" type="curve" smooth="yes"/>
      <point x="551" y="0" type="line"/>
      <point x="656" y="0" type="line"/>
      <point x="665" y="0" type="line"/>
      <point x="682" y="0" type="line"/>
      <point x="760" y="0" type="line"/>
      <point x="795" y="0" type="line"/>
      <point x="802" y="51" type="line"/>
      <point x="803" y="63"/>
      <point x="798" y="72"/>
      <point x="785" y="77" type="curve" smooth="yes"/>
    </contour>
    <contour>
      <point x="443" y="513" type="line"/>
      <point x="449" y="524"/>
      <point x="455" y="536"/>
      <point x="461" y="551" type="curve" smooth="yes"/>
      <point x="467" y="566"/>
      <point x="473" y="581"/>
      <point x="480" y="598" type="curve"/>
      <point x="483" y="581"/>
      <point x="486" y="565"/>
      <point x="489" y="551" type="curve" smooth="yes"/>
      <point x="492" y="537"/>
      <point x="495" y="524"/>
      <point x="498" y="513" type="curve" smooth="yes"/>
      <point x="552" y="289" type="line"/>
      <point x="333" y="289" type="line"/>
    </contour>
    <contour>
      <point x="566" y="850"/>
      <point x="558" y="851"/>
      <point x="550" y="855" type="curve" smooth="yes"/>
      <point x="542" y="859"/>
      <point x="533" y="863"/>
      <point x="523" y="867" type="curve" smooth="yes"/>
      <point x="513" y="871"/>
      <point x="503" y="875"/>
      <point x="492" y="879" type="curve" smooth="yes"/>
      <point x="481" y="883"/>
      <point x="470" y="884"/>
      <point x="458" y="884" type="curve" smooth="yes"/>
      <point x="443" y="884"/>
      <point x="430" y="882"/>
      <point x="418" y="876" type="curve" smooth="yes"/>
      <point x="406" y="870"/>
      <point x="395" y="863"/>
      <point x="385" y="853" type="curve" smooth="yes"/>
      <point x="375" y="843"/>
      <point x="367" y="831"/>
      <point x="361" y="817" type="curve" smooth="yes"/>
      <point x="355" y="803"/>
      <point x="351" y="788"/>
      <point x="349" y="772" type="curve"/>
      <point x="417" y="772" type="line"/>
      <point x="419" y="783"/>
      <point x="423" y="790"/>
      <point x="429" y="796" type="curve" smooth="yes"/>
      <point x="435" y="802"/>
      <point x="442" y="804"/>
      <point x="451" y="804" type="curve" smooth="yes"/>
      <point x="458" y="804"/>
      <point x="466" y="803"/>
      <point x="474" y="799" type="curve" smooth="yes"/>
      <point x="482" y="795"/>
      <point x="491" y="791"/>
      <point x="501" y="787" type="curve" smooth="yes"/>
      <point x="511" y="783"/>
      <point x="521" y="779"/>
      <point x="532" y="775" type="curve" smooth="yes"/>
      <point x="543" y="771"/>
      <point x="554" y="769"/>
      <point x="566" y="769" type="curve" smooth="yes"/>
      <point x="581" y="769"/>
      <point x="595" y="772"/>
      <point x="607" y="778" type="curve" smooth="yes"/>
      <point x="619" y="784"/>
      <point x="630" y="790"/>
      <point x="639" y="800" type="curve" smooth="yes"/>
      <point x="648" y="810"/>
      <point x="656" y="821"/>
      <point x="662" y="835" type="curve" smooth="yes"/>
      <point x="668" y="849"/>
      <point x="672" y="864"/>
      <point x="674" y="881" type="curve"/>
      <point x="607" y="881" type="line"/>
      <point x="605" y="870"/>
      <point x="601" y="862"/>
      <point x="595" y="857" type="curve" smooth="yes"/>
      <point x="589" y="852"/>
      <point x="582" y="850"/>
      <point x="573" y="850" type="curve" smooth="yes"/>
    </contour>
  </outline>
</glyph>
<glyph name="Adieresis" format="1">
  <advance width="823"/>
  <unicode hex="00C4"/>
  <note>
    Adieresis
  </note>
  <outline>
    <contour>
      <point x="780" y="79"/>
      <point x="763" y="87"/>
      <point x="733" y="100" type="curve"/>
      <point x="565" y="723" type="line"/>
      <point x="427" y="723" type="line"/>
      <point x="106" y="100" type="line"/>
      <point x="73" y="87"/>
      <point x="54" y="79"/>
      <point x="48" y="77" type="curve"/>
      <point x="34" y="71"/>
      <point x="26" y="63"/>
      <point x="25" y="51" type="curve" smooth="yes"/>
      <point x="19" y="0" type="line"/>
      <point x="54" y="0" type="line"/>
      <point x="133" y="0" type="line"/>
      <point x="149" y="0" type="line"/>
      <point x="159" y="0" type="line"/>
      <point x="263" y="0" type="line"/>
      <point x="270" y="51" type="line"/>
      <point x="271" y="63"/>
      <point x="266" y="71"/>
      <point x="253" y="77" type="curve" smooth="yes"/>
      <point x="251" y="78"/>
      <point x="244" y="80"/>
      <point x="234" y="85" type="curve"/>
      <point x="237" y="91" type="line"/>
      <point x="287" y="194" type="line"/>
      <point x="575" y="194" type="line"/>
      <point x="599" y="96" type="line"/>
      <point x="601" y="85" type="line"/>
      <point x="590" y="80"/>
      <point x="583" y="78"/>
      <point x="580" y="77" type="curve"/>
      <point x="566" y="71"/>
      <point x="558" y="63"/>
      <point x="557" y="51" type="curve" smooth="yes"/>
      <point x="551" y="0" type="line"/>
      <point x="656" y="0" type="line"/>
      <point x="665" y="0" type="line"/>
      <point x="682" y="0" type="line"/>
      <point x="760" y="0" type="line"/>
      <point x="795" y="0" type="line"/>
      <point x="802" y="51" type="line"/>
      <point x="803" y="63"/>
      <point x="798" y="72"/>
      <point x="785" y="77" type="curve" smooth="yes"/>
    </contour>
    <contour>
      <point x="443" y="513" type="line"/>
      <point x="449" y="524"/>
      <point x="455" y="536"/>
      <point x="461" y="551" type="curve" smooth="yes"/>
      <point x="467" y="566"/>
      <point x="473" y="581"/>
      <point x="480" y="598" type="curve"/>
      <point x="483" y="581"/>
      <point x="486" y="565"/>
      <point x="489" y="551" type="curve" smooth="yes"/>
      <point x="492" y="537"/>
      <point x="495" y="524"/>
      <point x="498" y="513" type="curve" smooth="yes"/>
      <point x="552" y="289" type="line"/>
      <point x="333" y="289" type="line"/>
    </contour>
    <contour>
      <point x="469" y="843"/>
      <point x="469" y="851"/>
      <point x="466" y="859" type="curve" smooth="yes"/>
      <point x="463" y="867"/>
      <point x="460" y="875"/>
      <point x="454" y="881" type="curve" smooth="yes"/>
      <point x="448" y="887"/>
      <point x="441" y="891"/>
      <point x="433" y="895" type="curve" smooth="yes"/>
      <point x="425" y="899"/>
      <point x="417" y="901"/>
      <point x="408" y="901" type="curve" smooth="yes"/>
      <point x="399" y="901"/>
      <point x="390" y="899"/>
      <point x="382" y="895" type="curve" smooth="yes"/>
      <point x="374" y="891"/>
      <point x="367" y="887"/>
      <point x="360" y="881" type="curve" smooth="yes"/>
      <point x="353" y="875"/>
      <point x="348" y="867"/>
      <point x="343" y="859" type="curve" smooth="yes"/>
      <point x="338" y="851"/>
      <point x="335" y="842"/>
      <point x="334" y="833" type="curve" smooth="yes"/>
      <point x="333" y="824"/>
      <point x="333" y="816"/>
      <point x="336" y="808" type="curve" smooth="yes"/>
      <point x="339" y="800"/>
      <point x="343" y="793"/>
      <point x="348" y="787" type="curve" smooth="yes"/>
      <point x="353" y="781"/>
      <point x="360" y="776"/>
      <point x="367" y="773" type="curve" smooth="yes"/>
      <point x="374" y="770"/>
      <point x="382" y="768"/>
      <point x="391" y="768" type="curve" smooth="yes"/>
      <point x="400" y="768"/>
      <point x="409" y="770"/>
      <point x="418" y="773" type="curve" smooth="yes"/>
      <point x="427" y="776"/>
      <point x="435" y="781"/>
      <point x="442" y="787" type="curve" smooth="yes"/>
      <point x="449" y="793"/>
      <point x="455" y="800"/>
      <point x="460" y="808" type="curve" smooth="yes"/>
      <point x="465" y="816"/>
      <point x="467" y="825"/>
      <point x="468" y="834" type="curve" smooth="yes"/>
    </contour>
    <contour>
      <point x="685" y="842"/>
      <point x="684" y="851"/>
      <point x="682" y="859" type="curve" smooth="yes"/>
      <point x="680" y="867"/>
      <point x="676" y="875"/>
      <point x="671" y="881" type="curve" smooth="yes"/>
      <point x="666" y="887"/>
      <point x="659" y="891"/>
      <point x="651" y="895" type="curve" smooth="yes"/>
      <point x="643" y="899"/>
      <point x="635" y="901"/>
      <point x="626" y="901" type="curve" smooth="yes"/>
      <point x="617" y="901"/>
      <point x="608" y="899"/>
      <point x="599" y="895" type="curve" smooth="yes"/>
      <point x="590" y="891"/>
      <point x="583" y="887"/>
      <point x="576" y="881" type="curve" smooth="yes"/>
      <point x="569" y="875"/>
      <point x="564" y="867"/>
      <point x="559" y="859" type="curve" smooth="yes"/>
      <point x="554" y="851"/>
      <point x="551" y="842"/>
      <point x="550" y="833" type="curve" smooth="yes"/>
      <point x="549" y="824"/>
      <point x="549" y="816"/>
      <point x="552" y="808" type="curve" smooth="yes"/>
      <point x="555" y="800"/>
      <point x="559" y="793"/>
      <point x="564" y="787" type="curve" smooth="yes"/>
      <point x="569" y="781"/>
      <point x="576" y="776"/>
      <point x="584" y="773" type="curve" smooth="yes"/>
      <point x="592" y="770"/>
      <point x="600" y="768"/>
      <point x="609" y="768" type="curve" smooth="yes"/>
      <point x="618" y="768"/>
      <point x="627" y="770"/>
      <point x="636" y="773" type="curve" smooth="yes"/>
      <point x="645" y="776"/>
      <point x="652" y="781"/>
      <point x="659" y="787" type="curve" smooth="yes"/>
      <point x="666" y="793"/>
      <point x="672" y="800"/>
      <point x="676" y="808" type="curve" smooth="yes"/>
      <point x="680" y="816"/>
      <point x="683" y="824"/>
      <point x="684" y="833" type="curve" smooth="yes"/>
    </contour>
  </outline>
</glyph>
<glyph name="Ccedilla" format="1">
  <advance width="679"/>
  <unicode hex="00C7"/>
  <note>
    Ccedilla
  </note>
  <outline>
    <contour>
      <point x="557" y="162" type="line" smooth="yes"/>
      <point x="552" y="168"/>
      <point x="546" y="171"/>
      <point x="539" y="171" type="curve" smooth="yes"/>
      <point x="535" y="171"/>
      <point x="531" y="170"/>
      <point x="527" y="168" type="curve" smooth="yes"/>
      <point x="523" y="166"/>
      <point x="520" y="164"/>
      <point x="516" y="161" type="curve"/>
      <point x="504" y="151"/>
      <point x="491" y="142"/>
      <point x="479" y="135" type="curve" smooth="yes"/>
      <point x="467" y="128"/>
      <point x="455" y="123"/>
      <point x="442" y="119" type="curve" smooth="yes"/>
      <point x="429" y="115"/>
      <point x="415" y="111"/>
      <point x="400" y="109" type="curve" smooth="yes"/>
      <point x="385" y="107"/>
      <point x="367" y="106"/>
      <point x="349" y="106" type="curve" smooth="yes"/>
      <point x="318" y="106"/>
      <point x="291" y="111"/>
      <point x="266" y="123" type="curve" smooth="yes"/>
      <point x="241" y="135"/>
      <point x="219" y="151"/>
      <point x="202" y="173" type="curve" smooth="yes"/>
      <point x="185" y="195"/>
      <point x="173" y="221"/>
      <point x="165" y="253" type="curve" smooth="yes"/>
      <point x="157" y="285"/>
      <point x="156" y="320"/>
      <point x="161" y="361" type="curve" smooth="yes"/>
      <point x="166" y="400"/>
      <point x="177" y="437"/>
      <point x="192" y="468" type="curve" smooth="yes"/>
      <point x="207" y="499"/>
      <point x="226" y="526"/>
      <point x="249" y="548" type="curve" smooth="yes"/>
      <point x="272" y="570"/>
      <point x="299" y="587"/>
      <point x="329" y="599" type="curve" smooth="yes"/>
      <point x="359" y="611"/>
      <point x="391" y="616"/>
      <point x="425" y="616" type="curve"/>
      <point x="425" y="617" type="line"/>
      <point x="462" y="617"/>
      <point x="507" y="609"/>
      <point x="560" y="593" type="curve"/>
      <point x="559" y="549"/>
      <point x="559" y="522"/>
      <point x="559" y="513" type="curve"/>
      <point x="560" y="501"/>
      <point x="567" y="495"/>
      <point x="580" y="495" type="curve" smooth="yes"/>
      <point x="621" y="495" type="line"/>
      <point x="634" y="495" type="line"/>
      <point x="638" y="495" type="line"/>
      <point x="652" y="607" type="line"/>
      <point x="653" y="615" type="line"/>
      <point x="660" y="679" type="line"/>
      <point x="573" y="714"/>
      <point x="500" y="731"/>
      <point x="440" y="731" type="curve" smooth="yes"/>
      <point x="385" y="731"/>
      <point x="334" y="722"/>
      <point x="286" y="704" type="curve" smooth="yes"/>
      <point x="238" y="686"/>
      <point x="196" y="660"/>
      <point x="159" y="627" type="curve" smooth="yes"/>
      <point x="122" y="594"/>
      <point x="93" y="556"/>
      <point x="69" y="511" type="curve" smooth="yes"/>
      <point x="45" y="466"/>
      <point x="31" y="416"/>
      <point x="24" y="362" type="curve" smooth="yes"/>
      <point x="17" y="308"/>
      <point x="19" y="258"/>
      <point x="30" y="213" type="curve" smooth="yes"/>
      <point x="41" y="168"/>
      <point x="59" y="129"/>
      <point x="85" y="96" type="curve" smooth="yes"/>
      <point x="111" y="63"/>
      <point x="145" y="38"/>
      <point x="186" y="20" type="curve" smooth="yes"/>
      <point x="215" y="7"/>
      <point x="246" y="-2"/>
      <point x="282" y="-6" type="curve"/>
      <point x="256" y="-67" type="line"/>
      <point x="281" y="-70"/>
      <point x="298" y="-74"/>
      <point x="310" y="-78" type="curve" smooth="yes"/>
      <point x="321" y="-82"/>
      <point x="326" y="-89"/>
      <point x="325" y="-99" type="curve"/>
      <point x="324" y="-105"/>
      <point x="321" y="-110"/>
      <point x="315" y="-114" type="curve" smooth="yes"/>
      <point x="309" y="-118"/>
      <point x="301" y="-120"/>
      <point x="290" y="-120" type="curve" smooth="yes"/>
      <point x="285" y="-120"/>
      <point x="280" y="-120"/>
      <point x="276" y="-119" type="curve" smooth="yes"/>
      <point x="272" y="-118"/>
      <point x="269" y="-118"/>
      <point x="266" y="-117" type="curve" smooth="yes"/>
      <point x="263" y="-116"/>
      <point x="260" y="-115"/>
      <point x="258" y="-114" type="curve" smooth="yes"/>
      <point x="256" y="-113"/>
      <point x="253" y="-113"/>
      <point x="251" y="-113" type="curve" smooth="yes"/>
      <point x="244" y="-113"/>
      <point x="238" y="-117"/>
      <point x="235" y="-125" type="curve"/>
      <point x="219" y="-163" type="line"/>
      <point x="230" y="-167"/>
      <point x="241" y="-169"/>
      <point x="253" y="-171" type="curve" smooth="yes"/>
      <point x="265" y="-173"/>
      <point x="277" y="-174"/>
      <point x="291" y="-174" type="curve" smooth="yes"/>
      <point x="309" y="-174"/>
      <point x="326" y="-172"/>
      <point x="341" y="-169" type="curve" smooth="yes"/>
      <point x="356" y="-166"/>
      <point x="370" y="-160"/>
      <point x="381" y="-154" type="curve" smooth="yes"/>
      <point x="392" y="-148"/>
      <point x="402" y="-140"/>
      <point x="409" y="-131" type="curve" smooth="yes"/>
      <point x="416" y="-122"/>
      <point x="420" y="-113"/>
      <point x="421" y="-102" type="curve" smooth="yes"/>
      <point x="423" y="-85"/>
      <point x="419" y="-70"/>
      <point x="409" y="-57" type="curve" smooth="yes"/>
      <point x="399" y="-44"/>
      <point x="379" y="-35"/>
      <point x="350" y="-28" type="curve"/>
      <point x="358" y="-7" type="line"/>
      <point x="406" y="-4"/>
      <point x="448" y="5"/>
      <point x="485" y="21" type="curve" smooth="yes"/>
      <point x="530" y="40"/>
      <point x="569" y="68"/>
      <point x="603" y="104" type="curve"/>
    </contour>
  </outline>
</glyph>
<glyph name="Ecircumflex" format="1">
  <advance width="658"/>
  <unicode hex="00CA"/>
  <note>
    Ecircumflex
  </note>
  <outline>
    <contour>
      <point x="184" y="723" type="line"/>
      <point x="108" y="723" type="line"/>
      <point x="101" y="664" type="line" smooth="yes"/>
      <point x="99" y="647"/>
      <point x="106" y="637"/>
      <point x="122" y="633" type="curve"/>
      <point x="123" y="633"/>
      <point x="125" y="632"/>
      <point x="128" y="632" type="curve" smooth="yes"/>
      <point x="131" y="632"/>
      <point x="135" y="630"/>
      <point x="142" y="629" type="curve" smooth="yes"/>
      <point x="149" y="628"/>
      <point x="159" y="626"/>
      <point x="171" y="624" type="curve"/>
      <point x="107" y="99" type="line"/>
      <point x="94" y="97"/>
      <point x="84" y="95"/>
      <point x="77" y="94" type="curve" smooth="yes"/>
      <point x="70" y="93"/>
      <point x="64" y="91"/>
      <point x="61" y="91" type="curve" smooth="yes"/>
      <point x="58" y="91"/>
      <point x="57" y="90"/>
      <point x="55" y="90" type="curve"/>
      <point x="38" y="86"/>
      <point x="28" y="76"/>
      <point x="26" y="59" type="curve" smooth="yes"/>
      <point x="19" y="0" type="line"/>
      <point x="95" y="0" type="line"/>
      <point x="551" y="0" type="line"/>
      <point x="559" y="70" type="line"/>
      <point x="564" y="108" type="line"/>
      <point x="574" y="191" type="line"/>
      <point x="570" y="191" type="line"/>
      <point x="558" y="191" type="line"/>
      <point x="517" y="191" type="line" smooth="yes"/>
      <point x="504" y="191"/>
      <point x="495" y="184"/>
      <point x="491" y="172" type="curve"/>
      <point x="489" y="164"/>
      <point x="484" y="143"/>
      <point x="476" y="108" type="curve"/>
      <point x="243" y="108" type="line"/>
      <point x="269" y="312" type="line"/>
      <point x="513" y="312" type="line"/>
      <point x="526" y="416" type="line"/>
      <point x="281" y="416" type="line"/>
      <point x="306" y="616" type="line"/>
      <point x="538" y="616" type="line"/>
      <point x="537" y="581"/>
      <point x="538" y="560"/>
      <point x="538" y="552" type="curve"/>
      <point x="539" y="540"/>
      <point x="546" y="533"/>
      <point x="559" y="533" type="curve" smooth="yes"/>
      <point x="600" y="533" type="line"/>
      <point x="612" y="533" type="line"/>
      <point x="616" y="533" type="line"/>
      <point x="626" y="616" type="line"/>
      <point x="631" y="653" type="line"/>
      <point x="640" y="723" type="line"/>
    </contour>
    <contour>
      <point x="608" y="774" type="line"/>
      <point x="500" y="884" type="line"/>
      <point x="377" y="884" type="line"/>
      <point x="243" y="774" type="line"/>
      <point x="336" y="774" type="line" smooth="yes"/>
      <point x="341" y="774"/>
      <point x="347" y="775"/>
      <point x="353" y="776" type="curve" smooth="yes"/>
      <point x="359" y="777"/>
      <point x="364" y="779"/>
      <point x="368" y="782" type="curve"/>
      <point x="423" y="816" type="line"/>
      <point x="425" y="817"/>
      <point x="427" y="818"/>
      <point x="428" y="819" type="curve" smooth="yes"/>
      <point x="431" y="822" type="line"/>
      <point x="432" y="821"/>
      <point x="433" y="819"/>
      <point x="434" y="818" type="curve" smooth="yes"/>
      <point x="435" y="817"/>
      <point x="437" y="817"/>
      <point x="438" y="816" type="curve"/>
      <point x="484" y="782" type="line"/>
      <point x="487" y="779"/>
      <point x="492" y="777"/>
      <point x="498" y="776" type="curve" smooth="yes"/>
      <point x="504" y="775"/>
      <point x="509" y="774"/>
      <point x="514" y="774" type="curve" smooth="yes"/>
    </contour>
  </outline>
</glyph>
<glyph name="Edieresis" format="1">
  <advance width="658"/>
  <unicode hex="00CB"/>
  <note>
    Edieresis
  </note>
  <outline>
    <contour>
      <point x="184" y="723" type="line"/>
      <point x="108" y="723" type="line"/>
      <point x="101" y="664" type="line" smooth="yes"/>
      <point x="99" y="647"/>
      <point x="106" y="637"/>
      <point x="122" y="633" type="curve"/>
      <point x="123" y="633"/>
      <point x="125" y="632"/>
      <point x="128" y="632" type="curve" smooth="yes"/>
      <point x="131" y="632"/>
      <point x="135" y="630"/>
      <point x="142" y="629" type="curve" smooth="yes"/>
      <point x="149" y="628"/>
      <point x="159" y="626"/>
      <point x="171" y="624" type="curve"/>
      <point x="107" y="99" type="line"/>
      <point x="94" y="97"/>
      <point x="84" y="95"/>
      <point x="77" y="94" type="curve" smooth="yes"/>
      <point x="70" y="93"/>
      <point x="64" y="91"/>
      <point x="61" y="91" type="curve" smooth="yes"/>
      <point x="58" y="91"/>
      <point x="57" y="90"/>
      <point x="55" y="90" type="curve"/>
      <point x="38" y="86"/>
      <point x="28" y="76"/>
      <point x="26" y="59" type="curve" smooth="yes"/>
      <point x="19" y="0" type="line"/>
      <point x="95" y="0" type="line"/>
      <point x="551" y="0" type="line"/>
      <point x="559" y="70" type="line"/>
      <point x="564" y="108" type="line"/>
      <point x="574" y="191" type="line"/>
      <point x="570" y="191" type="line"/>
      <point x="558" y="191" type="line"/>
      <point x="517" y="191" type="line" smooth="yes"/>
      <point x="504" y="191"/>
      <point x="495" y="184"/>
      <point x="491" y="172" type="curve"/>
      <point x="489" y="164"/>
      <point x="484" y="143"/>
      <point x="476" y="108" type="curve"/>
      <point x="243" y="108" type="line"/>
      <point x="269" y="312" type="line"/>
      <point x="513" y="312" type="line"/>
      <point x="526" y="416" type="line"/>
      <point x="281" y="416" type="line"/>
      <point x="306" y="616" type="line"/>
      <point x="538" y="616" type="line"/>
      <point x="537" y="581"/>
      <point x="538" y="560"/>
      <point x="538" y="552" type="curve"/>
      <point x="539" y="540"/>
      <point x="546" y="533"/>
      <point x="559" y="533" type="curve" smooth="yes"/>
      <point x="600" y="533" type="line"/>
      <point x="612" y="533" type="line"/>
      <point x="616" y="533" type="line"/>
      <point x="626" y="616" type="line"/>
      <point x="631" y="653" type="line"/>
      <point x="640" y="723" type="line"/>
    </contour>
    <contour>
      <point x="393" y="843"/>
      <point x="392" y="851"/>
      <point x="389" y="859" type="curve" smooth="yes"/>
      <point x="386" y="867"/>
      <point x="383" y="875"/>
      <point x="377" y="881" type="curve" smooth="yes"/>
      <point x="371" y="887"/>
      <point x="365" y="891"/>
      <point x="357" y="895" type="curve" smooth="yes"/>
      <point x="349" y="899"/>
      <point x="340" y="901"/>
      <point x="331" y="901" type="curve" smooth="yes"/>
      <point x="322" y="901"/>
      <point x="313" y="899"/>
      <point x="305" y="895" type="curve" smooth="yes"/>
      <point x="297" y="891"/>
      <point x="290" y="887"/>
      <point x="283" y="881" type="curve" smooth="yes"/>
      <point x="276" y="875"/>
      <point x="271" y="867"/>
      <point x="266" y="859" type="curve" smooth="yes"/>
      <point x="261" y="851"/>
      <point x="259" y="842"/>
      <point x="258" y="833" type="curve" smooth="yes"/>
      <point x="257" y="824"/>
      <point x="257" y="816"/>
      <point x="260" y="808" type="curve" smooth="yes"/>
      <point x="263" y="800"/>
      <point x="266" y="793"/>
      <point x="271" y="787" type="curve" smooth="yes"/>
      <point x="276" y="781"/>
      <point x="283" y="776"/>
      <point x="290" y="773" type="curve" smooth="yes"/>
      <point x="297" y="770"/>
      <point x="306" y="768"/>
      <point x="315" y="768" type="curve" smooth="yes"/>
      <point x="324" y="768"/>
      <point x="333" y="770"/>
      <point x="342" y="773" type="curve" smooth="yes"/>
      <point x="351" y="776"/>
      <point x="358" y="781"/>
      <point x="365" y="787" type="curve" smooth="yes"/>
      <point x="372" y="793"/>
      <point x="378" y="800"/>
      <point x="383" y="808" type="curve" smooth="yes"/>
      <point x="388" y="816"/>
      <point x="391" y="825"/>
      <point x="392" y="834" type="curve" smooth="yes"/>
    </contour>
    <contour>
      <point x="609" y="842"/>
      <point x="607" y="851"/>
      <point x="605" y="859" type="curve" smooth="yes"/>
      <point x="603" y="867"/>
      <point x="599" y="875"/>
      <point x="594" y="881" type="curve" smooth="yes"/>
      <point x="589" y="887"/>
      <point x="582" y="891"/>
      <point x="574" y="895" type="curve" smooth="yes"/>
      <point x="566" y="899"/>
      <point x="558" y="901"/>
      <point x="549" y="901" type="curve" smooth="yes"/>
      <point x="540" y="901"/>
      <point x="531" y="899"/>
      <point x="522" y="895" type="curve" smooth="yes"/>
      <point x="513" y="891"/>
      <point x="506" y="887"/>
      <point x="499" y="881" type="curve" smooth="yes"/>
      <point x="492" y="875"/>
      <point x="487" y="867"/>
      <point x="482" y="859" type="curve" smooth="yes"/>
      <point x="477" y="851"/>
      <point x="475" y="842"/>
      <point x="474" y="833" type="curve" smooth="yes"/>
      <point x="473" y="824"/>
      <point x="473" y="816"/>
      <point x="476" y="808" type="curve" smooth="yes"/>
      <point x="479" y="800"/>
      <point x="483" y="793"/>
      <point x="488" y="787" type="curve" smooth="yes"/>
      <point x="493" y="781"/>
      <point x="499" y="776"/>
      <point x="507" y="773" type="curve" smooth="yes"/>
      <point x="515" y="770"/>
      <point x="524" y="768"/>
      <point x="533" y="768" type="curve" smooth="yes"/>
      <point x="542" y="768"/>
      <point x="550" y="770"/>
      <point x="559" y="773" type="curve" smooth="yes"/>
      <point x="568" y="776"/>
      <point x="575" y="781"/>
      <point x="582" y="787" type="curve" smooth="yes"/>
      <point x="589" y="793"/>
      <point x="595" y="800"/>
      <point x="599" y="808" type="curve" smooth="yes"/>
      <point x="603" y="816"/>
      <point x="607" y="824"/>
      <point x="608" y="833" type="curve" smooth="yes"/>
    </contour>
  </outline>
</glyph>
<glyph name="Icircumflex" format="1">
  <advance width="459"/>
  <unicode hex="00CE"/>
  <note>
    Icircumflex
  </note>
  <outline>
    <contour>
      <point x="375" y="637"/>
      <point x="385" y="647"/>
      <point x="387" y="664" type="curve" smooth="yes"/>
      <point x="394" y="723" type="line"/>
      <point x="319" y="723" type="line"/>
      <point x="184" y="723" type="line"/>
      <point x="108" y="723" type="line"/>
      <point x="101" y="664" type="line" smooth="yes"/>
      <point x="99" y="647"/>
      <point x="106" y="637"/>
      <point x="122" y="633" type="curve"/>
      <point x="123" y="633"/>
      <point x="125" y="633"/>
      <point x="128" y="632" type="curve"/>
      <point x="131" y="632"/>
      <point x="135" y="630"/>
      <point x="142" y="629" type="curve" smooth="yes"/>
      <point x="149" y="628"/>
      <point x="159" y="626"/>
      <point x="171" y="624" type="curve"/>
      <point x="107" y="99" type="line"/>
      <point x="94" y="97"/>
      <point x="84" y="95"/>
      <point x="77" y="94" type="curve" smooth="yes"/>
      <point x="70" y="93"/>
      <point x="64" y="91"/>
      <point x="61" y="91" type="curve" smooth="yes"/>
      <point x="58" y="91"/>
      <point x="56" y="90"/>
      <point x="55" y="90" type="curve"/>
      <point x="38" y="86"/>
      <point x="28" y="76"/>
      <point x="26" y="59" type="curve" smooth="yes"/>
      <point x="19" y="0" type="line"/>
      <point x="95" y="0" type="line"/>
      <point x="230" y="0" type="line"/>
      <point x="305" y="0" type="line"/>
      <point x="313" y="59" type="line" smooth="yes"/>
      <point x="315" y="76"/>
      <point x="308" y="86"/>
      <point x="292" y="90" type="curve"/>
      <point x="291" y="90"/>
      <point x="288" y="91"/>
      <point x="285" y="91" type="curve" smooth="yes"/>
      <point x="282" y="91"/>
      <point x="278" y="93"/>
      <point x="271" y="94" type="curve" smooth="yes"/>
      <point x="264" y="95"/>
      <point x="254" y="97"/>
      <point x="242" y="99" type="curve"/>
      <point x="306" y="624" type="line"/>
      <point x="319" y="626"/>
      <point x="330" y="628"/>
      <point x="337" y="629" type="curve" smooth="yes"/>
      <point x="344" y="630"/>
      <point x="349" y="632"/>
      <point x="352" y="632" type="curve" smooth="yes"/>
      <point x="355" y="632"/>
      <point x="356" y="633"/>
      <point x="358" y="633" type="curve"/>
    </contour>
    <contour>
      <point x="442" y="774" type="line"/>
      <point x="334" y="884" type="line"/>
      <point x="211" y="884" type="line"/>
      <point x="77" y="774" type="line"/>
      <point x="170" y="774" type="line" smooth="yes"/>
      <point x="175" y="774"/>
      <point x="181" y="775"/>
      <point x="187" y="776" type="curve" smooth="yes"/>
      <point x="193" y="777"/>
      <point x="198" y="779"/>
      <point x="202" y="782" type="curve"/>
      <point x="257" y="816" type="line"/>
      <point x="259" y="817"/>
      <point x="261" y="818"/>
      <point x="262" y="819" type="curve" smooth="yes"/>
      <point x="265" y="822" type="line"/>
      <point x="266" y="821"/>
      <point x="267" y="819"/>
      <point x="268" y="818" type="curve" smooth="yes"/>
      <point x="269" y="817"/>
      <point x="271" y="817"/>
      <point x="272" y="816" type="curve"/>
      <point x="318" y="782" type="line"/>
      <point x="321" y="779"/>
      <point x="326" y="777"/>
      <point x="332" y="776" type="curve" smooth="yes"/>
      <point x="338" y="775"/>
      <point x="343" y="774"/>
      <point x="348" y="774" type="curve" smooth="yes"/>
    </contour>
  </outline>
</glyph>
<glyph name="Ntilde" format="1">
  <advance width="888"/>
  <unicode hex="00D1"/>
  <note>
    Ntilde
  </note>
  <outline>
    <contour>
      <point x="794" y="723" type="line"/>
      <point x="675" y="723" type="line"/>
      <point x="585" y="723" type="line"/>
      <point x="578" y="664" type="line" smooth="yes"/>
      <point x="576" y="647"/>
      <point x="583" y="637"/>
      <point x="599" y="633" type="curve"/>
      <point x="601" y="633"/>
      <point x="622" y="630"/>
      <point x="663" y="624" type="curve"/>
      <point x="621" y="284" type="line" smooth="yes"/>
      <point x="620" y="274"/>
      <point x="619" y="263"/>
      <point x="618" y="252" type="curve" smooth="yes"/>
      <point x="617" y="241"/>
      <point x="617" y="230"/>
      <point x="617" y="218" type="curve"/>
      <point x="296" y="701" type="line"/>
      <point x="293" y="706"/>
      <point x="291" y="710"/>
      <point x="288" y="713" type="curve" smooth="yes"/>
      <point x="285" y="716"/>
      <point x="282" y="718"/>
      <point x="279" y="719" type="curve"/>
      <point x="276" y="721"/>
      <point x="273" y="722"/>
      <point x="269" y="722" type="curve" smooth="yes"/>
      <point x="265" y="722"/>
      <point x="260" y="723"/>
      <point x="254" y="723" type="curve" smooth="yes"/>
      <point x="184" y="723" type="line"/>
      <point x="108" y="723" type="line"/>
      <point x="101" y="664" type="line" smooth="yes"/>
      <point x="99" y="647"/>
      <point x="106" y="637"/>
      <point x="122" y="633" type="curve"/>
      <point x="123" y="633"/>
      <point x="125" y="632"/>
      <point x="128" y="632" type="curve" smooth="yes"/>
      <point x="131" y="632"/>
      <point x="135" y="630"/>
      <point x="142" y="629" type="curve" smooth="yes"/>
      <point x="149" y="628"/>
      <point x="159" y="626"/>
      <point x="171" y="624" type="curve"/>
      <point x="107" y="99" type="line"/>
      <point x="94" y="97"/>
      <point x="84" y="95"/>
      <point x="77" y="94" type="curve" smooth="yes"/>
      <point x="70" y="93"/>
      <point x="64" y="92"/>
      <point x="61" y="91" type="curve" smooth="yes"/>
      <point x="58" y="90"/>
      <point x="56" y="90"/>
      <point x="55" y="90" type="curve"/>
      <point x="38" y="86"/>
      <point x="28" y="76"/>
      <point x="26" y="59" type="curve" smooth="yes"/>
      <point x="19" y="0" type="line"/>
      <point x="95" y="0" type="line"/>
      <point x="213" y="0" type="line"/>
      <point x="303" y="0" type="line"/>
      <point x="311" y="59" type="line" smooth="yes"/>
      <point x="313" y="76"/>
      <point x="305" y="86"/>
      <point x="289" y="90" type="curve"/>
      <point x="287" y="90"/>
      <point x="266" y="93"/>
      <point x="225" y="99" type="curve"/>
      <point x="268" y="444" type="line" smooth="yes"/>
      <point x="269" y="453"/>
      <point x="270" y="463"/>
      <point x="271" y="473" type="curve" smooth="yes"/>
      <point x="272" y="483"/>
      <point x="272" y="493"/>
      <point x="272" y="504" type="curve"/>
      <point x="591" y="23" type="line" smooth="yes"/>
      <point x="597" y="14"/>
      <point x="602" y="8"/>
      <point x="609" y="5" type="curve" smooth="yes"/>
      <point x="616" y="2"/>
      <point x="624" y="0"/>
      <point x="635" y="0" type="curve" smooth="yes"/>
      <point x="705" y="0" type="line"/>
      <point x="781" y="624" type="line"/>
      <point x="794" y="626"/>
      <point x="805" y="628"/>
      <point x="812" y="629" type="curve" smooth="yes"/>
      <point x="819" y="630"/>
      <point x="824" y="632"/>
      <point x="827" y="632" type="curve" smooth="yes"/>
      <point x="830" y="632"/>
      <point x="831" y="633"/>
      <point x="833" y="633" type="curve"/>
      <point x="850" y="637"/>
      <point x="860" y="647"/>
      <point x="862" y="664" type="curve" smooth="yes"/>
      <point x="869" y="723" type="line"/>
    </contour>
    <contour>
      <point x="567" y="850"/>
      <point x="559" y="851"/>
      <point x="551" y="855" type="curve" smooth="yes"/>
      <point x="543" y="859"/>
      <point x="534" y="863"/>
      <point x="524" y="867" type="curve" smooth="yes"/>
      <point x="514" y="871"/>
      <point x="504" y="875"/>
      <point x="493" y="879" type="curve" smooth="yes"/>
      <point x="482" y="883"/>
      <point x="471" y="884"/>
      <point x="459" y="884" type="curve" smooth="yes"/>
      <point x="444" y="884"/>
      <point x="430" y="882"/>
      <point x="418" y="876" type="curve" smooth="yes"/>
      <point x="406" y="870"/>
      <point x="395" y="863"/>
      <point x="385" y="853" type="curve" smooth="yes"/>
      <point x="375" y="843"/>
      <point x="368" y="831"/>
      <point x="362" y="817" type="curve" smooth="yes"/>
      <point x="356" y="803"/>
      <point x="352" y="788"/>
      <point x="350" y="772" type="curve"/>
      <point x="418" y="772" type="line"/>
      <point x="420" y="783"/>
      <point x="424" y="790"/>
      <point x="430" y="796" type="curve" smooth="yes"/>
      <point x="436" y="802"/>
      <point x="443" y="804"/>
      <point x="452" y="804" type="curve" smooth="yes"/>
      <point x="459" y="804"/>
      <point x="467" y="803"/>
      <point x="475" y="799" type="curve" smooth="yes"/>
      <point x="483" y="795"/>
      <point x="492" y="791"/>
      <point x="502" y="787" type="curve" smooth="yes"/>
      <point x="512" y="783"/>
      <point x="522" y="779"/>
      <point x="533" y="775" type="curve" smooth="yes"/>
      <point x="544" y="771"/>
      <point x="555" y="769"/>
      <point x="567" y="769" type="curve" smooth="yes"/>
      <point x="582" y="769"/>
      <point x="596" y="772"/>
      <point x="608" y="778" type="curve" smooth="yes"/>
      <point x="620" y="784"/>
      <point x="631" y="790"/>
      <point x="640" y="800" type="curve" smooth="yes"/>
      <point x="649" y="810"/>
      <point x="657" y="821"/>
      <point x="663" y="835" type="curve" smooth="yes"/>
      <point x="669" y="849"/>
      <point x="673" y="864"/>
      <point x="675" y="881" type="curve"/>
      <point x="608" y="881" type="line"/>
      <point x="606" y="870"/>
      <point x="602" y="862"/>
      <point x="596" y="857" type="curve" smooth="yes"/>
      <point x="590" y="852"/>
      <point x="583" y="850"/>
      <point x="574" y="850" type="curve" smooth="yes"/>
    </contour>
  </outline>
</glyph>
<glyph name="Odieresis" format="1">
  <advance width="780"/>
  <unicode hex="00D6"/>
  <note>
    Odieresis
  </note>
  <outline>
    <contour>
      <point x="763" y="415"/>
      <point x="760" y="464"/>
      <point x="748" y="509" type="curve" smooth="yes"/>
      <point x="736" y="554"/>
      <point x="716" y="593"/>
      <point x="688" y="626" type="curve" smooth="yes"/>
      <point x="660" y="659"/>
      <point x="625" y="684"/>
      <point x="582" y="703" type="curve" smooth="yes"/>
      <point x="539" y="722"/>
      <point x="491" y="731"/>
      <point x="436" y="731" type="curve" smooth="yes"/>
      <point x="381" y="731"/>
      <point x="330" y="721"/>
      <point x="283" y="703" type="curve" smooth="yes"/>
      <point x="236" y="685"/>
      <point x="193" y="659"/>
      <point x="157" y="626" type="curve" smooth="yes"/>
      <point x="121" y="593"/>
      <point x="91" y="554"/>
      <point x="68" y="509" type="curve" smooth="yes"/>
      <point x="45" y="464"/>
      <point x="30" y="415"/>
      <point x="23" y="362" type="curve" smooth="yes"/>
      <point x="16" y="309"/>
      <point x="20" y="259"/>
      <point x="32" y="214" type="curve" smooth="yes"/>
      <point x="44" y="169"/>
      <point x="64" y="130"/>
      <point x="92" y="97" type="curve" smooth="yes"/>
      <point x="120" y="64"/>
      <point x="156" y="38"/>
      <point x="199" y="20" type="curve" smooth="yes"/>
      <point x="242" y="2"/>
      <point x="290" y="-8"/>
      <point x="345" y="-8" type="curve" smooth="yes"/>
      <point x="400" y="-8"/>
      <point x="451" y="2"/>
      <point x="498" y="20" type="curve" smooth="yes"/>
      <point x="545" y="38"/>
      <point x="587" y="64"/>
      <point x="623" y="97" type="curve" smooth="yes"/>
      <point x="659" y="130"/>
      <point x="689" y="169"/>
      <point x="712" y="214" type="curve" smooth="yes"/>
      <point x="735" y="259"/>
      <point x="749" y="309"/>
      <point x="756" y="362" type="curve" smooth="yes"/>
    </contour>
    <contour>
      <point x="613" y="322"/>
      <point x="604" y="287"/>
      <point x="590" y="255" type="curve" smooth="yes"/>
      <point x="576" y="223"/>
      <point x="556" y="197"/>
      <point x="534" y="175" type="curve" smooth="yes"/>
      <point x="512" y="153"/>
      <point x="487" y="136"/>
      <point x="457" y="124" type="curve" smooth="yes"/>
      <point x="427" y="112"/>
      <point x="394" y="107"/>
      <point x="359" y="107" type="curve" smooth="yes"/>
      <point x="324" y="107"/>
      <point x="293" y="112"/>
      <point x="266" y="124" type="curve" smooth="yes"/>
      <point x="239" y="136"/>
      <point x="217" y="153"/>
      <point x="200" y="175" type="curve" smooth="yes"/>
      <point x="183" y="197"/>
      <point x="171" y="223"/>
      <point x="164" y="255" type="curve" smooth="yes"/>
      <point x="157" y="287"/>
      <point x="156" y="322"/>
      <point x="161" y="362" type="curve" smooth="yes"/>
      <point x="166" y="402"/>
      <point x="175" y="436"/>
      <point x="190" y="468" type="curve" smooth="yes"/>
      <point x="205" y="500"/>
      <point x="223" y="527"/>
      <point x="246" y="549" type="curve" smooth="yes"/>
      <point x="269" y="571"/>
      <point x="294" y="587"/>
      <point x="324" y="599" type="curve" smooth="yes"/>
      <point x="354" y="611"/>
      <point x="387" y="617"/>
      <point x="422" y="617" type="curve" smooth="yes"/>
      <point x="457" y="617"/>
      <point x="488" y="611"/>
      <point x="515" y="599" type="curve" smooth="yes"/>
      <point x="542" y="587"/>
      <point x="563" y="571"/>
      <point x="580" y="549" type="curve" smooth="yes"/>
      <point x="597" y="527"/>
      <point x="609" y="500"/>
      <point x="616" y="468" type="curve" smooth="yes"/>
      <point x="623" y="436"/>
      <point x="623" y="402"/>
      <point x="618" y="362" type="curve" smooth="yes"/>
    </contour>
    <contour>
      <point x="409" y="843"/>
      <point x="409" y="851"/>
      <point x="406" y="859" type="curve" smooth="yes"/>
      <point x="403" y="867"/>
      <point x="400" y="875"/>
      <point x="394" y="881" type="curve" smooth="yes"/>
      <point x="388" y="887"/>
      <point x="381" y="892"/>
      <point x="373" y="896" type="curve" smooth="yes"/>
      <point x="365" y="900"/>
      <point x="357" y="901"/>
      <point x="348" y="901" type="curve" smooth="yes"/>
      <point x="339" y="901"/>
      <point x="330" y="900"/>
      <point x="322" y="896" type="curve" smooth="yes"/>
      <point x="314" y="892"/>
      <point x="307" y="887"/>
      <point x="300" y="881" type="curve" smooth="yes"/>
      <point x="293" y="875"/>
      <point x="288" y="867"/>
      <point x="283" y="859" type="curve" smooth="yes"/>
      <point x="278" y="851"/>
      <point x="275" y="843"/>
      <point x="274" y="834" type="curve" smooth="yes"/>
      <point x="273" y="825"/>
      <point x="273" y="816"/>
      <point x="276" y="808" type="curve" smooth="yes"/>
      <point x="279" y="800"/>
      <point x="283" y="793"/>
      <point x="288" y="787" type="curve" smooth="yes"/>
      <point x="293" y="781"/>
      <point x="300" y="776"/>
      <point x="307" y="773" type="curve" smooth="yes"/>
      <point x="314" y="770"/>
      <point x="322" y="768"/>
      <point x="331" y="768" type="curve" smooth="yes"/>
      <point x="340" y="768"/>
      <point x="349" y="770"/>
      <point x="358" y="773" type="curve" smooth="yes"/>
      <point x="367" y="776"/>
      <point x="375" y="781"/>
      <point x="382" y="787" type="curve" smooth="yes"/>
      <point x="389" y="793"/>
      <point x="395" y="800"/>
      <point x="400" y="808" type="curve" smooth="yes"/>
      <point x="405" y="816"/>
      <point x="407" y="825"/>
      <point x="408" y="834" type="curve" smooth="yes"/>
    </contour>
    <contour>
      <point x="625" y="843"/>
      <point x="624" y="851"/>
      <point x="622" y="859" type="curve" smooth="yes"/>
      <point x="620" y="867"/>
      <point x="616" y="875"/>
      <point x="611" y="881" type="curve" smooth="yes"/>
      <point x="606" y="887"/>
      <point x="599" y="891"/>
      <point x="591" y="895" type="curve" smooth="yes"/>
      <point x="583" y="899"/>
      <point x="575" y="901"/>
      <point x="566" y="901" type="curve" smooth="yes"/>
      <point x="557" y="901"/>
      <point x="548" y="899"/>
      <point x="539" y="895" type="curve" smooth="yes"/>
      <point x="530" y="891"/>
      <point x="523" y="887"/>
      <point x="516" y="881" type="curve" smooth="yes"/>
      <point x="509" y="875"/>
      <point x="504" y="867"/>
      <point x="499" y="859" type="curve" smooth="yes"/>
      <point x="494" y="851"/>
      <point x="491" y="843"/>
      <point x="490" y="834" type="curve" smooth="yes"/>
      <point x="489" y="825"/>
      <point x="489" y="816"/>
      <point x="492" y="808" type="curve" smooth="yes"/>
      <point x="495" y="800"/>
      <point x="499" y="793"/>
      <point x="504" y="787" type="curve" smooth="yes"/>
      <point x="509" y="781"/>
      <point x="516" y="776"/>
      <point x="524" y="773" type="curve" smooth="yes"/>
      <point x="532" y="770"/>
      <point x="540" y="768"/>
      <point x="549" y="768" type="curve" smooth="yes"/>
      <point x="558" y="768"/>
      <point x="567" y="770"/>
      <point x="576" y="773" type="curve" smooth="yes"/>
      <point x="585" y="776"/>
      <point x="592" y="781"/>
      <point x="599" y="787" type="curve" smooth="yes"/>
      <point x="606" y="793"/>
      <point x="612" y="800"/>
      <point x="616" y="808" type="curve" smooth="yes"/>
      <point x="620" y="816"/>
      <point x="623" y="825"/>
      <point x="624" y="834" type="curve" smooth="yes"/>
    </contour>
  </outline>
</glyph>
<glyph name="multiply" format="1">
  <advance width="539"/>
  <unicode hex="00D7"/>
  <note>
    multiply
  </note>
  <outline>
    <contour>
      <point x="522" y="498" type="line"/>
      <point x="464" y="563" type="line"/>
      <point x="282" y="400" type="line"/>
      <point x="139" y="564" type="line"/>
      <point x="66" y="499" type="line"/>
      <point x="209" y="336" type="line"/>
      <point x="18" y="164" type="line"/>
      <point x="75" y="100" type="line"/>
      <point x="267" y="270" type="line"/>
      <point x="416" y="101" type="line"/>
      <point x="489" y="166" type="line"/>
      <point x="339" y="336" type="line"/>
    </contour>
  </outline>
</glyph>
<glyph name="Oslash" format="1">
  <advance width="824"/>
  <unicode hex="00D8"/>
  <note>
    Oslash
  </note>
  <outline>
    <contour>
      <point x="785" y="417"/>
      <point x="781" y="468"/>
      <point x="768" y="514" type="curve" smooth="yes"/>
      <point x="755" y="560"/>
      <point x="734" y="600"/>
      <point x="703" y="633" type="curve"/>
      <point x="807" y="756" type="line"/>
      <point x="738" y="756" type="line" smooth="yes"/>
      <point x="731" y="756"/>
      <point x="724" y="755"/>
      <point x="719" y="754" type="curve" smooth="yes"/>
      <point x="714" y="753"/>
      <point x="709" y="752"/>
      <point x="705" y="749" type="curve"/>
      <point x="701" y="747"/>
      <point x="696" y="742"/>
      <point x="692" y="738" type="curve" smooth="yes"/>
      <point x="688" y="734"/>
      <point x="683" y="729"/>
      <point x="678" y="723" type="curve" smooth="yes"/>
      <point x="644" y="682" type="line"/>
      <point x="619" y="698"/>
      <point x="590" y="710"/>
      <point x="559" y="718" type="curve" smooth="yes"/>
      <point x="528" y="726"/>
      <point x="494" y="731"/>
      <point x="457" y="731" type="curve" smooth="yes"/>
      <point x="402" y="731"/>
      <point x="351" y="721"/>
      <point x="304" y="703" type="curve" smooth="yes"/>
      <point x="257" y="685"/>
      <point x="214" y="659"/>
      <point x="178" y="626" type="curve" smooth="yes"/>
      <point x="142" y="593"/>
      <point x="112" y="554"/>
      <point x="89" y="509" type="curve" smooth="yes"/>
      <point x="66" y="464"/>
      <point x="52" y="414"/>
      <point x="45" y="361" type="curve" smooth="yes"/>
      <point x="38" y="302"/>
      <point x="42" y="249"/>
      <point x="57" y="201" type="curve" smooth="yes"/>
      <point x="72" y="153"/>
      <point x="97" y="111"/>
      <point x="131" y="78" type="curve"/>
      <point x="17" y="-56" type="line"/>
      <point x="70" y="-56" type="line" smooth="yes"/>
      <point x="83" y="-56"/>
      <point x="96" y="-53"/>
      <point x="110" y="-48" type="curve" smooth="yes"/>
      <point x="124" y="-43"/>
      <point x="137" y="-33"/>
      <point x="148" y="-20" type="curve" smooth="yes"/>
      <point x="193" y="33" type="line"/>
      <point x="217" y="20"/>
      <point x="244" y="9"/>
      <point x="273" y="2" type="curve" smooth="yes"/>
      <point x="302" y="-5"/>
      <point x="332" y="-8"/>
      <point x="366" y="-8" type="curve" smooth="yes"/>
      <point x="421" y="-8"/>
      <point x="472" y="2"/>
      <point x="519" y="20" type="curve" smooth="yes"/>
      <point x="566" y="38"/>
      <point x="608" y="64"/>
      <point x="644" y="97" type="curve" smooth="yes"/>
      <point x="680" y="130"/>
      <point x="710" y="169"/>
      <point x="733" y="214" type="curve" smooth="yes"/>
      <point x="756" y="259"/>
      <point x="771" y="309"/>
      <point x="778" y="362" type="curve" smooth="yes"/>
    </contour>
    <contour>
      <point x="187" y="401"/>
      <point x="196" y="436"/>
      <point x="211" y="468" type="curve" smooth="yes"/>
      <point x="226" y="500"/>
      <point x="244" y="526"/>
      <point x="267" y="548" type="curve" smooth="yes"/>
      <point x="290" y="570"/>
      <point x="315" y="587"/>
      <point x="345" y="599" type="curve" smooth="yes"/>
      <point x="375" y="611"/>
      <point x="408" y="616"/>
      <point x="443" y="616" type="curve" smooth="yes"/>
      <point x="490" y="616"/>
      <point x="529" y="606"/>
      <point x="561" y="585" type="curve"/>
      <point x="217" y="180" type="line"/>
      <point x="201" y="202"/>
      <point x="190" y="228"/>
      <point x="184" y="258" type="curve" smooth="yes"/>
      <point x="178" y="288"/>
      <point x="177" y="323"/>
      <point x="182" y="361" type="curve" smooth="yes"/>
    </contour>
    <contour>
      <point x="635" y="322"/>
      <point x="625" y="287"/>
      <point x="611" y="255" type="curve" smooth="yes"/>
      <point x="597" y="223"/>
      <point x="578" y="197"/>
      <point x="556" y="175" type="curve" smooth="yes"/>
      <point x="534" y="153"/>
      <point x="508" y="136"/>
      <point x="478" y="124" type="curve" smooth="yes"/>
      <point x="448" y="112"/>
      <point x="415" y="107"/>
      <point x="380" y="107" type="curve" smooth="yes"/>
      <point x="340" y="107"/>
      <point x="305" y="115"/>
      <point x="275" y="130" type="curve"/>
      <point x="614" y="529" type="line"/>
      <point x="626" y="508"/>
      <point x="635" y="483"/>
      <point x="639" y="455" type="curve" smooth="yes"/>
      <point x="643" y="427"/>
      <point x="644" y="396"/>
      <point x="640" y="362" type="curve" smooth="yes"/>
    </contour>
  </outline>
</glyph>
